{"glyphs":{"0":{"ha":1028,"x_min":53,"x_max":978,"o":"m 519 0 q 324 50 410 0 q 180 179 239 99 q 89 360 121 259 q 54 566 57 461 q 65 714 53 636 q 102 867 77 792 q 167 1009 127 941 q 258 1128 206 1077 q 376 1210 311 1180 q 518 1240 441 1240 q 661 1210 595 1240 q 777 1128 726 1180 q 867 1009 829 1077 q 930 866 905 941 q 966 711 955 791 q 977 559 978 632 q 944 352 974 453 q 857 173 914 251 q 715 47 800 95 q 519 0 631 0 m 521 199 q 633 230 585 199 q 712 311 681 260 q 760 426 743 361 q 777 559 776 491 q 770 662 777 608 q 749 769 764 716 q 713 871 735 822 q 663 956 692 920 q 597 1015 633 993 q 517 1036 560 1036 q 435 1015 472 1036 q 370 957 399 993 q 319 873 340 921 q 283 774 297 826 q 263 667 270 722 q 258 566 256 613 q 277 431 259 496 q 327 313 294 365 q 408 231 359 262 q 521 199 457 199 z "},"1":{"ha":297,"x_min":46,"x_max":251,"o":"m 49 1152 q 80 1224 49 1200 q 149 1248 111 1248 q 217 1224 186 1248 q 251 1153 248 1200 l 251 94 q 220 23 251 45 q 152 1 189 1 q 111 8 132 1 q 77 27 91 15 q 54 58 62 39 q 50 100 46 76 l 49 94 l 49 1152 z "},"2":{"ha":917,"x_min":64,"x_max":865,"o":"m 172 0 q 130 5 149 -4 q 95 31 110 14 q 72 71 80 47 q 64 122 64 95 q 76 184 64 153 q 115 236 88 214 q 205 311 151 264 q 319 416 259 357 q 439 543 380 475 q 545 682 499 610 q 618 824 591 753 q 642 960 646 895 q 610 1026 639 1002 q 511 1043 581 1050 q 374 990 442 1036 q 260 857 305 944 q 225 821 247 833 q 178 810 203 810 q 130 821 153 810 q 92 850 107 831 q 72 893 76 868 q 83 947 68 918 q 264 1156 152 1080 q 503 1242 377 1233 q 665 1233 598 1253 q 774 1170 732 1213 q 836 1068 817 1127 q 854 943 854 1009 q 810 736 854 840 q 698 536 766 632 q 548 353 629 439 q 392 199 467 267 l 769 199 q 842 170 819 199 q 865 100 865 140 q 842 33 865 64 q 770 0 818 3 l 172 0 z "},"3":{"ha":928,"x_min":54,"x_max":872,"o":"m 663 351 q 659 427 665 385 q 629 507 652 469 q 560 570 606 545 q 437 594 514 595 q 398 598 415 591 q 370 618 381 605 q 352 651 358 632 q 346 690 346 670 q 366 754 346 722 q 429 802 385 787 q 505 810 472 798 q 559 844 538 822 q 589 893 581 865 q 594 948 598 921 q 556 1015 587 986 q 464 1044 525 1043 q 410 1033 435 1044 q 362 1002 384 1021 q 322 958 340 983 q 290 906 304 933 q 254 862 275 875 q 205 849 232 849 q 159 862 182 849 q 122 894 137 875 q 101 935 107 913 q 103 977 95 958 q 155 1074 121 1025 q 238 1160 190 1122 q 344 1222 286 1199 q 467 1245 401 1245 q 608 1223 548 1245 q 708 1163 667 1200 q 771 1076 749 1126 q 800 974 793 1027 q 802 956 802 964 q 803 935 803 947 q 785 815 803 869 q 726 718 768 761 q 805 625 776 673 q 850 531 834 578 q 869 439 865 484 q 872 351 872 393 q 840 216 869 281 q 754 101 810 151 q 619 24 699 52 q 438 0 540 -4 q 313 22 374 1 q 200 87 251 43 q 112 196 149 130 q 58 351 75 262 q 66 408 54 384 q 99 444 79 431 q 145 460 119 457 q 195 455 171 464 q 238 426 220 446 q 263 372 256 406 q 336 241 285 282 q 444 199 387 201 q 538 211 498 198 q 606 245 579 224 q 648 294 633 266 q 663 351 662 321 z "},"4":{"ha":963,"x_min":71,"x_max":898,"o":"m 646 606 l 214 606 q 152 608 179 606 q 106 624 125 610 q 79 667 88 637 q 71 751 71 696 l 71 1147 q 101 1220 71 1196 q 170 1244 132 1244 q 238 1220 208 1244 q 271 1149 269 1196 l 271 808 l 646 808 l 646 1147 q 677 1220 646 1196 q 745 1244 708 1244 q 813 1220 783 1244 q 846 1149 844 1196 l 846 800 q 886 762 873 788 q 898 708 898 736 q 885 652 898 678 q 846 614 872 625 l 846 94 q 829 41 845 62 q 791 11 814 20 q 741 2 768 1 q 693 14 715 3 q 657 44 671 24 q 646 94 643 64 l 646 606 z "},"5":{"ha":890,"x_min":57,"x_max":837,"o":"m 72 1103 q 74 1165 72 1138 q 90 1211 76 1192 q 132 1238 103 1229 q 217 1246 161 1246 l 724 1246 q 797 1217 773 1246 q 821 1147 821 1187 q 796 1079 821 1109 q 724 1046 772 1048 l 274 1046 l 274 844 q 473 853 387 865 q 621 805 559 841 q 725 715 684 769 q 791 600 766 661 q 827 477 817 538 q 837 363 837 415 q 811 235 837 298 q 736 119 785 171 q 616 35 688 68 q 450 -3 544 1 q 209 74 311 -3 q 65 294 107 151 q 64 347 57 323 q 85 387 71 370 q 122 412 100 403 q 165 420 144 420 q 218 406 194 420 q 252 359 241 391 l 252 361 q 327 241 277 286 q 454 199 377 197 q 534 216 500 201 q 591 254 568 231 q 624 304 613 277 q 635 361 635 332 q 614 497 635 433 q 545 603 593 562 q 422 654 498 644 q 236 625 346 663 q 121 629 168 598 q 72 738 75 661 l 72 1103 z "},"6":{"ha":990,"x_min":75,"x_max":917,"o":"m 553 1051 q 456 1009 502 1048 q 374 911 410 970 q 317 781 339 852 q 293 642 296 709 q 425 708 354 686 q 564 730 495 730 q 697 710 633 731 q 810 648 761 689 q 888 544 859 606 q 917 399 917 481 q 891 260 917 330 q 814 134 865 191 q 689 41 764 77 q 519 0 614 4 q 315 34 399 -4 q 180 140 232 72 q 103 302 127 209 q 77 502 79 396 q 104 777 75 644 q 193 1012 133 909 q 344 1179 254 1115 q 556 1248 434 1242 q 669 1226 617 1248 q 762 1170 722 1204 q 831 1090 803 1135 q 873 996 859 1044 q 871 948 882 970 q 840 912 860 926 q 792 891 819 898 q 740 888 765 884 q 695 909 715 892 q 670 955 675 925 q 623 1029 654 1004 q 553 1051 593 1054 m 289 403 q 284 393 285 392 q 285 399 283 395 q 288 408 286 404 q 289 403 289 411 m 289 403 q 359 252 300 308 q 507 195 419 195 q 585 217 548 199 q 650 262 621 235 q 695 321 678 289 q 713 385 712 353 q 682 479 709 444 q 616 528 655 514 q 529 539 576 543 q 435 518 481 536 q 350 471 389 500 q 289 403 311 441 z "},"7":{"ha":951,"x_min":57,"x_max":883,"o":"m 605 1046 l 153 1046 q 80 1076 103 1046 q 57 1145 57 1107 q 81 1213 57 1181 q 152 1246 104 1244 l 785 1246 q 831 1232 810 1246 q 865 1194 852 1217 q 880 1145 878 1172 q 871 1095 883 1118 q 726 847 803 985 q 571 567 650 709 q 416 287 492 425 q 271 39 339 149 q 236 6 256 16 q 195 -4 216 -4 q 143 12 168 -4 q 102 51 118 27 q 84 100 87 75 q 100 146 81 126 l 605 1046 z "},"8":{"ha":898,"x_min":52,"x_max":856,"o":"m 439 1242 q 596 1217 530 1242 q 705 1153 662 1192 q 768 1063 747 1114 q 792 959 789 1012 q 700 736 799 825 q 814 579 773 680 q 846 347 856 479 q 815 218 842 281 q 738 106 788 155 q 616 28 688 57 q 450 -1 544 -1 q 287 28 358 -1 q 166 106 216 58 q 90 216 117 155 q 58 343 62 278 q 61 479 52 419 q 91 587 71 540 q 138 671 111 635 q 197 735 165 707 q 132 829 156 774 q 109 945 109 883 q 125 1053 109 1000 q 182 1149 142 1107 q 286 1217 222 1191 q 439 1242 349 1242 m 452 199 q 533 212 498 199 q 593 246 568 225 q 633 295 618 267 q 650 353 647 323 q 642 464 655 415 q 602 547 629 513 q 536 600 575 582 q 450 618 496 618 q 364 599 403 618 q 299 543 326 579 q 262 458 273 507 q 260 351 251 410 q 278 295 264 323 q 315 246 292 267 q 373 212 339 225 q 452 199 407 199 m 450 836 q 553 869 518 836 q 587 945 587 903 q 567 1002 587 979 q 515 1037 547 1025 q 448 1049 484 1048 q 381 1040 412 1050 q 330 1008 350 1029 q 309 956 309 987 q 319 912 309 933 q 347 874 328 891 q 391 846 365 857 q 450 836 418 836 z "},"9":{"ha":986,"x_min":69,"x_max":913,"o":"m 495 1244 q 603 1225 547 1244 q 711 1171 659 1207 q 743 1230 713 1210 q 808 1251 772 1251 q 846 1245 827 1251 q 879 1229 864 1240 q 903 1202 894 1218 q 913 1164 913 1185 l 913 91 q 896 41 911 61 q 859 9 880 20 q 812 -1 837 -1 q 765 9 787 -1 q 728 39 743 19 q 711 92 712 60 l 711 406 q 614 366 665 378 q 515 353 564 354 q 325 387 407 350 q 187 485 243 423 q 102 627 132 547 q 72 792 73 708 q 94 958 69 876 q 172 1103 119 1039 q 306 1205 225 1166 q 495 1244 387 1244 m 495 1044 q 399 1024 439 1044 q 332 970 358 1004 q 292 894 305 937 q 279 806 279 850 q 296 711 281 757 q 341 629 312 665 q 414 574 370 594 q 514 556 457 553 q 623 592 570 559 q 711 699 675 625 l 711 871 q 669 942 694 910 q 613 996 643 974 q 552 1031 583 1019 q 495 1044 521 1044 z "}," ":{"ha":472,"x_min":0,"x_max":0,"o":""}," ":{"ha":472,"x_min":0,"x_max":0,"o":""},"d":{"ha":959,"x_min":49,"x_max":892,"o":"m 787 -16 q 722 4 750 -16 q 690 64 693 24 q 584 10 639 28 q 477 -9 529 -8 q 295 26 374 -12 q 162 128 216 64 q 80 277 109 193 q 50 450 52 361 q 76 640 49 547 q 159 808 103 734 q 298 926 214 882 q 494 968 382 971 q 593 955 543 967 q 690 916 644 943 l 690 1157 q 722 1230 690 1206 q 789 1253 753 1253 q 858 1229 826 1253 q 892 1157 890 1204 l 892 71 q 883 33 892 49 q 859 5 873 16 q 825 -11 844 -5 q 787 -16 806 -16 m 476 191 q 532 203 502 191 q 592 238 563 216 q 648 292 621 260 q 690 363 674 324 l 690 621 q 602 728 655 694 q 492 765 549 762 q 389 741 433 768 q 315 669 345 713 q 271 567 285 624 q 259 452 256 510 q 274 353 260 400 q 315 270 288 307 q 382 212 342 233 q 476 191 422 191 z "},"e":{"ha":1002,"x_min":57,"x_max":954,"o":"m 340 457 q 356 360 342 407 q 398 277 370 313 q 467 220 426 241 q 563 198 507 198 q 621 206 591 198 q 677 230 651 214 q 722 269 703 245 q 751 323 742 292 q 788 390 758 368 q 853 412 818 412 q 923 384 892 412 q 954 298 954 355 q 895 171 935 227 q 804 77 856 115 q 690 19 751 39 q 564 -1 628 -1 q 380 34 460 -4 q 245 136 300 72 q 163 285 191 201 q 133 458 134 369 q 75 495 94 467 q 57 557 57 524 q 81 625 57 594 q 153 659 106 656 l 161 659 q 220 779 183 722 q 309 878 258 836 q 425 946 359 921 q 568 971 490 971 q 722 937 656 971 q 833 847 788 902 q 904 724 878 792 q 939 589 930 655 q 937 536 941 560 q 915 494 932 511 q 867 467 898 476 q 785 457 836 457 l 340 457 m 571 776 q 509 766 538 776 q 454 739 479 755 q 412 702 430 723 q 387 659 395 681 l 716 659 q 699 700 712 680 q 665 737 685 720 q 621 765 646 754 q 571 776 597 776 z "},"n":{"ha":869,"x_min":52,"x_max":819,"o":"m 255 85 q 224 15 255 37 q 156 -7 194 -7 q 116 0 136 -7 q 81 19 96 7 q 59 50 66 31 q 54 94 52 69 l 54 85 l 54 880 q 85 954 54 930 q 153 977 115 977 q 206 962 180 977 q 245 921 232 948 q 346 956 293 944 q 452 962 399 967 q 573 927 519 954 q 666 859 627 901 q 733 764 705 817 q 777 650 761 711 q 811 444 804 551 q 818 240 818 338 l 818 87 q 787 13 819 39 q 713 -14 754 -14 q 674 -7 693 -14 q 640 13 655 0 q 616 45 625 26 q 610 92 608 65 q 611 121 610 106 q 612 156 612 137 q 613 205 613 179 q 613 260 613 231 q 607 427 613 339 q 582 587 601 514 q 530 704 563 656 q 439 757 496 751 q 336 741 387 762 q 255 669 286 719 l 255 85 z "},"h":{"ha":872,"x_min":60,"x_max":827,"o":"m 263 85 q 233 15 263 37 q 164 -7 202 -7 q 124 0 144 -7 q 90 19 104 7 q 67 50 75 31 q 62 94 60 69 l 62 85 l 62 1153 q 93 1225 62 1202 q 161 1249 123 1249 q 229 1225 198 1249 q 263 1153 260 1200 l 263 895 q 361 925 309 914 q 460 930 412 936 q 581 896 528 922 q 674 827 635 869 q 741 732 713 785 q 785 618 769 680 q 819 429 812 519 q 826 240 826 338 l 826 92 q 819 47 827 66 q 796 14 811 27 q 762 -7 781 0 q 722 -14 742 -14 q 682 -7 701 -14 q 648 13 663 0 q 625 45 633 26 q 618 92 616 65 q 619 121 618 106 q 620 156 620 137 q 621 205 621 179 q 621 260 621 231 q 615 411 621 339 q 590 556 609 483 q 538 673 571 625 q 448 726 505 720 q 345 709 395 731 q 263 637 294 688 l 263 85 z "},"i":{"ha":317,"x_min":47,"x_max":263,"o":"m 56 872 q 87 945 56 921 q 156 968 118 968 q 224 944 193 968 q 258 872 255 920 l 258 94 q 227 23 258 45 q 159 1 195 1 q 118 8 138 1 q 83 27 98 15 q 61 58 69 39 q 57 100 53 76 l 56 94 l 56 872 m 47 1130 q 79 1207 47 1175 q 156 1240 111 1240 q 232 1207 201 1240 q 263 1130 263 1175 q 232 1054 263 1085 q 156 1023 201 1023 q 79 1054 111 1023 q 47 1130 47 1085 z "},"m":{"ha":1440,"x_min":87,"x_max":1363,"o":"m 951 757 q 877 737 914 757 q 804 675 840 718 q 809 663 807 669 q 812 650 811 656 q 846 445 840 552 q 853 240 853 338 l 853 92 q 846 47 854 66 q 823 14 838 27 q 789 -7 808 0 q 749 -14 769 -14 q 709 -7 728 -14 q 675 13 690 0 q 652 45 661 26 q 646 92 643 65 l 646 87 q 646 119 646 102 q 647 156 647 137 q 648 205 648 179 q 648 260 648 231 q 642 427 648 339 q 617 587 636 514 q 565 704 598 656 q 475 757 532 751 q 372 741 422 762 q 290 669 321 719 l 290 85 q 260 15 290 37 q 191 -7 229 -7 q 151 0 171 -7 q 117 19 132 7 q 94 50 102 31 q 90 94 87 69 l 90 85 l 90 880 q 120 954 90 930 q 189 977 151 977 q 241 962 216 977 q 281 921 267 948 q 381 956 328 944 q 487 962 434 967 q 609 927 553 955 q 703 859 665 899 q 829 938 764 913 q 958 963 894 963 q 1077 941 1020 963 q 1182 877 1134 918 q 1266 778 1230 836 q 1321 650 1302 720 q 1355 444 1348 551 q 1362 240 1362 338 l 1362 87 q 1331 13 1363 39 q 1257 -14 1298 -14 q 1218 -7 1237 -14 q 1184 13 1199 0 q 1160 45 1169 26 q 1154 92 1152 65 q 1155 121 1154 106 q 1156 156 1156 137 q 1157 205 1157 179 q 1157 260 1157 231 q 1151 427 1157 339 q 1126 587 1145 514 q 1055 713 1103 669 q 951 757 1008 757 z "},"v":{"ha":966,"x_min":49,"x_max":921,"o":"m 907 830 q 770 505 826 637 q 677 287 713 373 q 620 153 640 201 q 590 83 600 106 q 578 56 581 61 q 575 50 575 52 q 537 8 563 20 q 483 -4 511 -4 q 430 8 456 -4 q 392 50 404 20 l 392 49 q 227 438 309 244 q 60 827 144 632 q 54 880 49 856 q 73 924 58 905 q 111 954 88 943 q 156 964 133 964 q 208 951 183 964 q 245 907 232 939 l 483 353 l 723 910 q 760 954 735 940 q 811 967 784 967 q 859 956 836 967 q 897 927 882 945 q 916 884 911 909 q 907 830 921 859 z "},"w":{"ha":1440,"x_min":58,"x_max":1392,"o":"m 724 376 q 656 216 690 294 q 587 57 623 138 q 549 11 576 26 q 492 -4 522 -4 q 439 8 465 -4 q 401 50 414 20 l 401 49 q 236 438 319 244 q 69 827 153 632 q 63 880 58 856 q 83 924 68 905 q 120 954 98 943 q 165 964 142 964 q 217 951 193 964 q 255 907 241 939 l 492 353 q 563 513 528 433 q 632 673 598 593 q 671 715 646 700 q 726 731 697 731 q 779 717 753 731 q 818 673 804 703 l 958 351 q 1076 630 1017 492 q 1195 907 1135 768 q 1233 951 1208 939 q 1284 964 1257 964 q 1330 954 1308 964 q 1367 924 1352 943 q 1387 880 1382 905 q 1381 827 1392 856 q 1214 438 1298 635 q 1048 49 1130 241 l 1048 50 q 1010 8 1036 20 q 958 -4 985 -4 q 901 10 928 -4 q 864 56 875 24 l 724 376 z "},"p":{"ha":963,"x_min":64,"x_max":909,"o":"m 170 986 q 233 966 205 986 q 266 906 262 945 q 370 960 316 941 q 477 979 425 978 q 667 941 586 983 q 803 829 749 899 q 883 669 857 760 q 905 484 909 578 q 871 304 901 392 q 787 149 842 217 q 650 41 731 81 q 463 3 570 0 q 362 16 412 4 q 266 54 312 27 l 266 -245 q 235 -319 266 -296 q 165 -342 203 -342 q 98 -318 129 -342 q 64 -247 66 -294 l 64 899 q 73 937 64 921 q 98 964 83 954 q 132 981 113 975 q 170 986 151 986 m 481 780 q 423 767 454 780 q 363 732 392 754 q 308 678 334 709 q 266 608 282 647 l 266 349 q 354 241 301 275 q 463 205 407 208 q 557 226 515 202 q 627 289 598 250 q 674 378 656 328 q 696 480 692 429 q 686 588 697 534 q 648 684 674 642 q 580 753 621 727 q 481 780 538 780 z "},"q":{"ha":967,"x_min":57,"x_max":899,"o":"m 484 979 q 591 960 536 978 q 697 906 646 941 q 728 966 700 945 q 793 986 757 986 q 831 981 812 986 q 865 964 850 975 q 890 937 880 954 q 899 899 899 921 l 899 -247 q 865 -318 897 -294 q 798 -342 833 -342 q 728 -319 760 -342 q 697 -245 697 -296 l 697 54 q 601 16 651 27 q 500 3 551 4 q 314 41 396 0 q 175 153 232 83 q 87 315 118 222 q 57 507 57 407 q 84 685 57 598 q 165 838 111 772 q 299 944 220 905 q 484 979 378 983 m 481 780 q 386 757 426 780 q 319 695 346 734 q 279 606 292 656 q 266 505 266 556 q 279 404 266 457 q 321 305 293 350 q 394 231 350 260 q 499 205 438 202 q 609 241 556 208 q 697 349 662 275 l 697 608 q 654 678 681 647 q 599 732 628 709 q 538 767 570 754 q 481 780 507 780 z "},"r":{"ha":810,"x_min":50,"x_max":779,"o":"m 761 811 q 763 751 779 783 q 717 697 747 719 q 650 672 686 675 q 589 697 613 669 q 469 768 534 762 q 411 765 442 770 q 350 747 380 760 q 295 715 320 735 q 254 670 270 696 l 254 85 q 223 15 254 37 q 155 -7 193 -7 q 115 -1 134 -7 q 80 18 95 5 q 58 47 65 30 q 53 85 50 64 l 53 880 q 83 954 53 930 q 152 977 114 977 q 205 962 180 977 q 244 920 231 948 q 365 964 311 955 q 479 970 419 972 q 566 954 524 968 q 646 916 609 939 q 713 867 684 894 q 761 811 742 840 z "},"o":{"ha":1001,"x_min":68,"x_max":939,"o":"m 507 0 q 327 39 408 0 q 188 146 245 79 q 99 303 130 213 q 68 494 68 393 q 95 671 68 585 q 176 826 122 758 q 309 935 229 894 q 496 977 389 977 q 694 930 610 977 q 833 810 779 884 q 913 642 888 736 q 935 453 939 548 q 901 283 930 365 q 819 139 872 202 q 688 38 766 76 q 507 0 610 0 m 509 199 q 603 221 563 199 q 670 279 643 243 q 711 363 697 316 q 727 460 726 410 q 715 573 728 517 q 672 674 701 629 q 598 747 643 719 q 495 774 553 774 q 399 747 441 774 q 330 675 358 719 q 289 577 302 632 q 278 469 275 522 q 296 371 279 419 q 341 285 312 323 q 412 223 370 247 q 509 199 454 199 z "},"s":{"ha":937,"x_min":50,"x_max":867,"o":"m 252 297 q 280 241 259 262 q 329 209 301 220 q 389 195 357 198 q 452 191 422 191 q 523 198 484 191 q 594 222 562 205 q 647 267 627 239 q 665 336 667 294 q 631 385 662 370 q 558 404 600 400 q 476 406 517 408 q 414 403 435 403 q 273 420 334 403 q 172 467 213 437 q 108 538 130 496 q 80 631 85 581 q 104 760 73 696 q 191 874 134 825 q 325 954 247 924 q 494 979 403 983 q 610 957 555 977 q 710 907 666 937 q 783 836 754 876 q 821 754 812 796 q 806 690 827 715 q 755 655 785 665 q 694 653 724 646 q 651 688 663 661 q 633 720 644 704 q 602 751 621 736 q 550 775 582 765 q 471 787 518 785 q 409 778 444 787 q 345 751 374 769 q 296 709 316 734 q 279 654 277 684 q 420 597 290 597 q 587 591 506 597 q 730 559 667 585 q 829 484 792 534 q 867 345 867 433 q 830 199 867 263 q 734 90 793 134 q 597 22 674 46 q 441 -1 521 -1 q 313 12 377 -1 q 195 57 250 24 q 102 144 141 90 q 50 279 64 198 q 81 361 50 334 q 152 388 113 388 q 216 366 187 388 q 252 296 245 343 l 252 297 l 252 297 z "},"k":{"ha":867,"x_min":68,"x_max":815,"o":"m 273 354 l 273 94 q 241 23 273 45 q 174 1 210 1 q 133 8 153 1 q 98 27 113 15 q 76 58 84 39 q 72 100 68 76 l 71 94 l 71 1153 q 102 1225 71 1202 q 171 1249 133 1249 q 239 1225 208 1249 q 273 1154 270 1202 l 273 739 q 459 848 366 792 q 643 958 552 905 q 696 963 671 968 q 740 942 722 958 q 768 903 758 926 q 779 857 779 880 q 766 806 779 829 q 722 769 753 783 q 623 712 667 738 q 537 662 579 686 q 451 611 495 637 q 353 553 407 585 q 561 372 461 460 q 770 191 661 285 q 815 110 815 164 q 803 62 815 85 q 770 24 791 39 q 722 5 749 8 q 665 16 694 1 l 273 354 z "},"g":{"ha":978,"x_min":58,"x_max":905,"o":"m 498 -157 q 562 -144 529 -157 q 621 -104 594 -132 q 666 -36 648 -77 q 684 62 684 5 q 585 16 636 31 q 487 0 534 1 q 300 37 381 -3 q 166 145 220 77 q 85 301 113 213 q 60 481 58 389 q 90 665 61 575 q 175 825 119 755 q 313 937 231 895 q 503 977 395 979 q 606 962 555 975 q 704 921 656 949 q 742 969 715 954 q 800 985 769 985 q 868 961 837 985 q 902 890 899 937 q 902 754 902 821 q 903 623 902 688 q 905 516 905 575 q 905 414 905 457 q 892 80 905 231 q 845 -123 883 -43 q 753 -251 807 -203 q 632 -317 699 -298 q 499 -338 566 -336 q 378 -333 435 -339 q 271 -309 321 -327 q 180 -258 221 -290 q 109 -172 138 -225 l 109 -174 q 103 -100 87 -134 q 152 -50 119 -66 q 222 -37 184 -33 q 279 -81 259 -42 q 323 -116 297 -102 q 380 -140 350 -130 q 440 -153 410 -149 q 498 -157 471 -157 m 486 199 q 542 212 511 199 q 602 246 572 224 q 658 300 632 269 q 700 372 684 332 l 700 631 q 612 738 665 704 q 502 774 559 772 q 401 751 445 777 q 328 683 357 726 q 283 585 298 640 q 269 472 269 529 q 282 370 269 419 q 323 283 296 321 q 390 222 350 244 q 486 199 430 199 z "},"x":{"ha":884,"x_min":43,"x_max":844,"o":"m 444 644 q 552 787 498 716 q 661 929 606 857 l 661 928 q 696 960 675 949 q 739 970 718 970 q 788 956 765 970 q 825 919 811 941 q 842 869 840 897 q 826 814 844 841 l 570 477 q 692 315 632 396 q 819 153 753 235 q 832 113 833 136 q 819 67 831 90 q 787 26 807 45 q 745 0 768 8 q 701 -3 723 -8 q 661 27 678 1 q 610 96 635 64 q 559 163 585 129 q 505 232 533 197 q 444 311 476 267 q 392 241 422 282 q 332 159 362 199 q 273 83 301 118 q 228 30 245 47 q 170 13 205 7 q 106 41 134 19 q 64 94 77 62 q 69 153 50 126 q 132 239 102 199 q 191 316 161 278 q 251 393 221 354 q 316 477 281 433 q 188 646 251 563 q 61 814 125 730 q 45 869 43 841 q 60 919 46 897 q 98 956 75 941 q 148 970 122 970 q 191 959 170 970 q 227 928 212 948 l 444 644 z "},"t":{"ha":879,"x_min":60,"x_max":829,"o":"m 540 784 l 540 94 q 509 23 540 45 q 439 1 477 1 q 399 7 419 1 q 365 26 380 14 q 342 55 350 38 q 338 94 335 72 l 338 784 l 156 784 q 83 814 107 784 q 60 883 60 844 q 83 951 60 921 q 155 983 107 981 l 338 983 l 338 1150 q 369 1223 338 1199 q 438 1246 400 1246 q 506 1223 475 1246 q 540 1152 537 1199 l 540 983 l 738 983 q 807 954 785 983 q 829 886 829 924 q 822 846 829 865 q 803 812 815 827 q 772 789 791 798 q 730 785 754 781 l 738 784 l 540 784 z "},"u":{"ha":894,"x_min":58,"x_max":826,"o":"m 623 878 q 654 947 623 925 q 722 968 685 968 q 762 962 742 968 q 796 943 781 956 q 819 912 811 930 q 823 869 826 894 l 825 878 l 825 81 q 793 9 825 33 q 724 -15 762 -15 q 671 -1 696 -15 q 632 41 646 14 q 531 7 585 18 q 426 0 477 -4 q 304 35 358 8 q 211 104 251 62 q 144 199 171 145 q 100 313 117 252 q 66 517 73 411 q 60 722 60 624 l 60 875 q 91 949 58 924 q 164 975 123 975 q 203 969 184 975 q 237 949 222 963 q 260 916 252 936 q 267 871 269 897 q 267 840 267 856 q 266 807 266 825 q 264 757 264 783 q 264 703 264 731 q 271 536 264 624 q 296 374 277 449 l 296 376 q 348 258 315 307 q 438 205 381 210 q 541 222 490 199 q 623 293 591 245 l 623 878 z "},"V":{"ha":1147,"x_min":34,"x_max":1105,"o":"m 711 88 l 711 91 q 662 20 696 43 q 589 -4 628 -4 q 517 18 551 -4 q 465 83 484 41 l 49 1108 l 49 1107 q 39 1164 34 1138 q 60 1210 43 1191 q 100 1240 76 1229 q 149 1251 125 1251 q 203 1236 178 1251 q 243 1191 229 1222 l 583 335 q 741 760 662 541 q 898 1185 819 979 q 937 1231 911 1217 q 991 1245 963 1245 q 1041 1234 1017 1245 q 1080 1204 1065 1223 q 1101 1159 1096 1185 q 1093 1103 1105 1133 l 1095 1104 l 711 88 z "},"A":{"ha":1154,"x_min":35,"x_max":1116,"o":"m 435 1150 q 484 1221 450 1198 q 557 1244 518 1244 q 629 1221 595 1244 q 681 1158 662 1199 l 1104 140 q 1111 83 1116 110 q 1090 37 1105 57 q 1051 6 1074 18 q 1004 -5 1028 -5 q 950 9 975 -5 q 910 54 925 24 q 851 195 879 130 q 791 338 823 260 l 355 338 q 298 195 327 266 q 243 53 270 123 q 204 7 229 22 q 151 -8 179 -8 q 102 3 126 -8 q 62 33 79 14 q 41 77 46 52 q 47 133 35 103 l 435 1150 m 435 549 l 701 549 q 667 634 682 594 q 637 716 652 674 q 604 804 621 758 q 563 907 587 850 l 435 549 z "},"y":{"ha":1105,"x_min":79,"x_max":1035,"o":"m 528 -292 q 445 -346 507 -346 q 397 -335 422 -346 q 357 -305 373 -324 q 334 -261 340 -286 q 342 -209 328 -236 q 374 -139 357 -176 q 408 -63 391 -102 q 441 14 425 -24 q 472 84 457 52 l 95 812 q 82 867 79 840 q 100 917 85 895 q 138 952 114 939 q 186 966 161 966 q 227 957 206 966 q 262 925 247 948 l 571 308 q 705 610 637 460 q 840 913 773 761 q 878 956 854 944 q 928 967 902 967 q 973 956 951 967 q 1010 926 996 945 q 1030 882 1025 907 q 1024 829 1035 857 l 528 -292 z "},"f":{"ha":1078,"x_min":73,"x_max":1004,"o":"m 429 510 l 429 94 q 397 21 429 45 q 330 -3 366 -3 q 261 22 293 -3 q 227 94 229 46 q 227 222 227 163 q 228 335 228 282 q 227 425 228 382 q 227 510 227 467 l 170 510 q 96 541 119 510 q 73 609 73 571 q 97 677 73 646 q 168 712 121 709 l 233 712 q 265 892 241 800 q 335 1061 289 985 q 453 1188 381 1138 q 629 1242 525 1238 q 756 1223 693 1242 q 871 1170 819 1204 q 958 1087 922 1135 q 1004 978 993 1039 q 994 930 1004 951 q 970 897 985 910 q 936 876 955 883 q 899 869 917 869 q 836 889 864 869 q 802 944 808 909 q 739 1021 787 998 q 636 1042 692 1043 q 545 1005 582 1040 q 486 920 509 970 q 451 812 463 869 q 434 712 439 755 l 825 712 q 895 681 873 712 q 917 612 917 650 q 910 572 917 591 q 891 537 903 552 q 860 515 879 522 q 817 510 841 507 l 825 510 l 429 510 z "},"j":{"ha":311,"x_min":-266,"x_max":274,"o":"m 61 869 q 92 943 61 920 q 161 967 123 967 q 229 943 198 967 q 263 872 260 920 l 263 806 q 263 731 263 766 q 264 661 263 696 q 267 582 266 621 q 267 503 267 543 l 267 384 q 263 223 267 312 q 245 47 259 134 q 202 -117 231 -41 q 125 -243 174 -194 q 5 -314 77 -290 q -159 -336 -68 -338 q -205 -326 -184 -335 q -239 -302 -225 -316 q -259 -270 -252 -288 q -266 -235 -266 -252 q -238 -165 -266 -197 q -156 -136 -210 -134 q -80 -127 -118 -137 q -18 -94 -42 -118 q 69 416 69 -3 q 68 456 69 435 q 68 498 68 476 l 61 869 m 57 1134 q 66 1175 57 1156 q 90 1210 75 1195 q 124 1234 104 1225 q 165 1242 144 1242 q 208 1234 189 1242 q 243 1210 228 1225 q 266 1175 258 1195 q 274 1134 274 1156 q 243 1057 274 1088 q 165 1025 212 1025 q 124 1034 144 1025 q 90 1057 104 1042 q 66 1091 75 1072 q 57 1134 57 1111 z "},"C":{"ha":1029,"x_min":47,"x_max":983,"o":"m 967 921 q 962 876 971 898 q 937 838 954 854 q 898 810 920 821 q 854 800 876 800 q 800 816 825 800 q 762 868 774 831 q 720 949 746 917 q 663 1001 693 982 q 605 1028 633 1020 q 556 1036 576 1036 q 425 989 481 1034 q 332 878 369 945 q 275 730 294 811 q 256 572 256 650 q 269 454 256 518 q 312 335 282 391 q 390 241 342 279 q 510 202 438 203 q 589 213 549 201 q 662 251 628 225 q 724 315 696 277 q 768 406 751 354 q 807 473 777 450 q 872 496 837 496 q 913 488 892 496 q 951 463 935 479 q 975 424 967 446 q 978 374 983 401 q 884 176 940 250 q 763 62 827 102 q 631 10 699 22 q 505 -1 564 -1 q 305 46 391 0 q 163 169 220 92 q 77 346 106 245 q 47 559 47 446 q 63 720 47 639 q 109 878 79 802 q 182 1020 138 954 q 281 1136 225 1086 q 406 1213 338 1185 q 553 1241 473 1241 q 680 1217 616 1237 q 799 1158 743 1196 q 898 1062 854 1119 q 966 929 941 1005 l 967 921 z "},"b":{"ha":959,"x_min":69,"x_max":911,"o":"m 484 -9 q 376 10 431 -8 q 271 64 321 28 q 239 4 269 24 q 175 -16 210 -16 q 137 -11 156 -16 q 103 5 118 -5 q 79 33 88 16 q 69 71 69 49 l 69 1150 q 104 1222 72 1198 q 172 1246 136 1246 q 240 1223 209 1246 q 271 1150 271 1199 l 271 916 q 368 955 317 943 q 468 968 418 967 q 661 927 578 971 q 800 810 745 883 q 884 645 856 738 q 911 457 911 552 q 884 281 911 366 q 802 130 856 195 q 668 26 747 65 q 484 -9 589 -12 m 271 363 q 313 292 288 324 q 369 238 339 260 q 429 203 399 216 q 486 191 458 191 q 581 214 540 191 q 648 273 621 236 q 689 359 675 311 q 703 460 703 408 q 688 573 703 517 q 644 673 673 629 q 570 742 614 716 q 469 765 526 768 q 359 728 412 762 q 271 621 307 694 l 271 363 z "},"F":{"ha":926,"x_min":53,"x_max":878,"o":"m 264 88 q 229 18 262 41 q 157 -5 195 -5 q 85 18 118 -5 q 53 87 53 42 l 53 1111 q 80 1211 53 1180 q 165 1242 107 1242 l 780 1242 q 854 1207 830 1241 q 876 1133 878 1173 q 850 1061 875 1093 q 780 1031 826 1029 l 264 1031 l 264 758 l 673 758 q 747 723 723 757 q 769 649 770 689 q 743 577 768 609 q 673 547 719 545 l 264 547 l 264 88 l 264 88 z "},"E":{"ha":926,"x_min":47,"x_max":873,"o":"m 178 -1 q 82 22 117 -1 q 47 117 47 46 l 47 1112 q 75 1213 47 1181 q 160 1244 102 1244 l 776 1244 q 850 1208 826 1242 q 872 1135 873 1175 q 846 1063 871 1095 q 776 1032 822 1031 l 260 1032 l 260 760 l 678 760 q 752 724 728 758 q 774 650 776 690 q 749 578 773 610 q 678 548 724 547 l 260 548 l 260 210 l 773 210 q 847 175 823 209 q 869 101 871 141 q 844 29 868 61 q 773 -1 819 -3 l 178 -1 z "},"J":{"ha":867,"x_min":45,"x_max":817,"o":"m 594 1139 q 603 1186 594 1166 q 627 1219 612 1206 q 661 1238 642 1232 q 699 1244 680 1244 q 770 1219 738 1244 q 806 1143 803 1194 q 813 876 810 1005 q 817 617 817 746 q 810 473 817 545 q 788 333 804 400 q 743 207 772 266 q 668 103 713 148 q 557 31 623 58 q 406 0 492 4 q 284 14 338 -3 q 188 66 231 31 q 113 151 145 100 q 57 263 81 201 q 51 325 45 298 q 73 369 57 351 q 113 395 90 387 q 161 401 137 403 q 204 389 184 400 q 233 355 224 377 q 262 294 244 321 q 302 248 281 267 q 348 220 324 229 q 396 210 372 210 q 474 231 441 210 q 530 285 507 252 q 566 360 552 317 q 587 448 579 403 q 597 539 594 494 q 602 621 601 585 q 604 882 608 753 q 594 1139 601 1010 z "},"H":{"ha":1053,"x_min":42,"x_max":1008,"o":"m 742 543 l 304 543 l 304 98 q 272 24 304 46 q 201 1 240 1 q 159 8 180 1 q 123 28 138 15 q 100 60 109 41 q 96 106 92 80 l 95 98 l 95 553 q 55 593 68 567 q 42 647 42 618 q 55 701 42 675 q 95 741 68 726 l 95 1145 q 126 1221 95 1196 q 198 1245 157 1245 q 269 1220 237 1245 q 304 1146 301 1195 l 304 753 l 742 753 l 742 1145 q 774 1221 742 1196 q 846 1245 807 1245 q 918 1220 886 1245 q 952 1146 949 1195 l 952 745 q 994 705 981 732 q 1008 648 1008 678 q 994 590 1008 617 q 952 549 979 563 l 952 98 q 920 24 952 46 q 848 1 887 1 q 806 8 826 1 q 770 28 785 15 q 747 60 755 41 q 743 106 739 80 l 742 98 l 742 543 z "},"I":{"ha":952,"x_min":42,"x_max":902,"o":"m 363 209 l 363 1034 l 144 1034 q 67 1065 92 1034 q 42 1137 42 1097 q 68 1208 42 1176 q 142 1242 94 1240 l 806 1242 q 880 1211 857 1242 q 902 1139 902 1180 q 895 1099 902 1119 q 876 1065 888 1080 q 844 1040 863 1050 q 800 1034 825 1031 l 806 1034 l 576 1034 l 576 209 l 799 209 q 876 177 850 209 q 901 106 901 145 q 875 35 901 66 q 800 0 849 3 l 146 0 q 73 31 95 0 q 50 103 50 62 q 57 143 50 123 q 76 178 64 163 q 106 201 88 193 q 146 209 123 210 l 363 209 z "},"L":{"ha":926,"x_min":52,"x_max":880,"o":"m 182 -1 q 86 22 121 -1 q 52 117 52 46 l 52 1150 q 83 1220 53 1196 q 152 1245 114 1244 q 223 1224 190 1246 q 263 1156 256 1202 l 263 210 l 783 210 q 838 193 817 209 q 870 152 860 176 q 878 100 880 127 q 864 49 876 72 q 829 12 852 26 q 774 0 807 -3 l 783 -1 l 182 -1 z "},"K":{"ha":982,"x_min":57,"x_max":941,"o":"m 60 1149 q 68 1194 60 1175 q 92 1225 77 1213 q 126 1243 107 1237 q 165 1249 145 1249 q 203 1243 184 1249 q 236 1224 221 1237 q 261 1193 251 1211 q 273 1150 271 1175 l 273 788 q 394 892 332 837 q 518 1005 456 948 q 642 1118 581 1062 q 762 1222 703 1173 q 842 1244 803 1252 q 905 1206 882 1236 q 930 1135 929 1177 q 897 1057 930 1093 l 446 654 q 684 418 566 534 q 913 186 803 301 q 938 138 935 164 q 933 87 941 111 q 907 43 925 62 q 865 14 888 23 q 816 7 841 4 q 768 34 791 11 q 562 239 646 156 q 422 376 477 323 q 338 458 368 430 q 294 500 308 487 q 276 515 279 513 q 273 517 273 517 l 273 95 q 239 21 273 43 q 167 -1 206 -1 q 125 5 145 -1 q 89 25 104 12 q 65 56 73 38 q 60 95 57 73 l 60 1149 z "},"G":{"ha":1001,"x_min":39,"x_max":964,"o":"m 834 642 q 899 628 875 642 q 937 593 924 614 q 956 543 951 571 q 960 488 960 515 q 905 241 954 336 q 786 91 856 145 q 637 17 716 37 q 494 -1 559 -3 q 296 47 381 1 q 155 170 212 94 q 68 347 98 247 q 39 559 39 448 q 55 721 39 639 q 100 879 71 803 q 174 1022 130 955 q 273 1139 217 1089 q 397 1216 330 1188 q 545 1244 465 1244 q 671 1219 608 1240 q 791 1160 735 1199 q 890 1065 846 1122 q 958 933 933 1008 q 938 863 964 891 q 874 824 911 834 q 802 825 837 814 q 754 871 766 836 q 710 957 736 924 q 654 1008 684 990 q 597 1033 625 1027 q 548 1039 568 1039 q 417 992 473 1036 q 323 880 361 948 q 267 731 286 812 q 248 572 248 650 q 262 439 248 505 q 308 323 277 374 q 387 238 339 271 q 503 202 435 205 q 584 212 544 201 q 657 249 624 222 q 713 319 690 275 q 745 430 736 363 l 469 430 q 403 464 427 431 q 376 535 378 496 q 396 606 374 574 q 469 642 418 639 l 834 642 z "},"N":{"ha":1000,"x_min":50,"x_max":945,"o":"m 50 1143 q 80 1219 50 1195 q 149 1242 110 1242 q 205 1229 178 1242 q 250 1190 232 1215 l 734 442 l 734 1143 q 743 1188 734 1169 q 766 1219 751 1207 q 800 1238 781 1232 q 840 1244 819 1244 q 910 1219 878 1244 q 945 1145 943 1194 l 945 98 q 915 25 945 49 q 844 1 884 1 q 790 14 817 1 q 746 52 764 27 l 263 798 q 264 630 263 720 q 265 448 264 540 q 267 265 266 355 q 267 98 267 175 q 235 24 267 46 q 163 1 202 1 q 121 8 141 1 q 85 27 100 15 q 61 57 69 39 q 56 98 53 75 l 50 1143 z "},"T":{"ha":943,"x_min":42,"x_max":902,"o":"m 575 1001 l 575 99 q 540 25 574 49 q 466 3 506 1 q 394 28 426 4 q 363 99 362 53 l 363 1001 l 144 1001 q 67 1033 92 1001 q 42 1104 42 1065 q 68 1175 42 1143 q 142 1210 94 1207 l 806 1210 q 880 1179 857 1210 q 902 1107 902 1147 q 895 1066 902 1086 q 875 1031 888 1046 q 842 1007 861 1016 q 796 1002 822 998 l 806 1001 l 575 1001 z "},"U":{"ha":975,"x_min":37,"x_max":939,"o":"m 895 321 q 833 184 873 243 q 741 85 793 125 q 628 23 689 45 q 503 0 567 1 q 371 17 437 -3 q 249 77 305 37 q 149 179 193 118 q 81 321 104 240 q 59 442 68 373 q 45 589 50 511 q 39 745 41 666 q 38 894 38 823 l 38 1134 q 45 1181 37 1160 q 68 1215 53 1202 q 104 1236 84 1229 q 146 1244 125 1244 q 187 1237 167 1244 q 223 1217 208 1230 q 247 1182 239 1203 q 254 1134 255 1161 q 252 1022 254 1090 q 251 860 251 954 q 252 729 251 796 q 257 599 254 662 q 267 480 260 536 q 283 387 273 425 q 366 255 308 298 q 490 213 425 212 q 554 224 522 213 q 613 257 586 236 q 661 311 640 278 q 693 387 682 343 q 709 477 703 425 q 719 591 716 530 q 723 716 722 651 q 724 842 724 781 q 724 986 724 907 q 723 1134 724 1065 q 729 1182 720 1161 q 753 1217 738 1203 q 788 1237 768 1230 q 830 1244 808 1244 q 872 1236 852 1244 q 907 1215 892 1229 q 930 1181 922 1202 q 937 1134 939 1160 l 937 894 q 936 743 937 822 q 930 587 935 663 q 918 441 926 510 q 895 321 909 372 z "},"W":{"ha":1571,"x_min":69,"x_max":1514,"o":"m 792 543 q 726 319 760 430 q 661 95 693 208 q 606 23 640 46 q 536 0 572 0 q 467 20 499 0 q 416 81 434 41 l 83 1104 q 74 1160 69 1134 q 95 1206 79 1187 q 136 1237 111 1226 q 184 1248 160 1248 q 239 1232 213 1248 q 281 1180 266 1215 l 530 384 l 689 929 q 730 989 700 968 q 791 1009 760 1009 q 852 989 825 1009 q 892 929 880 968 l 1054 380 q 1116 576 1085 475 q 1179 781 1147 678 q 1241 985 1210 883 q 1303 1183 1272 1086 q 1345 1234 1318 1218 q 1400 1251 1371 1251 q 1449 1240 1424 1251 q 1489 1210 1473 1229 q 1510 1164 1506 1191 q 1500 1107 1514 1138 l 1501 1112 q 1419 859 1461 989 q 1335 596 1377 728 q 1251 333 1293 464 q 1168 80 1208 202 q 1118 19 1150 39 q 1048 -1 1085 -1 q 978 22 1012 -1 q 924 94 944 45 l 792 543 z "},"X":{"ha":1028,"x_min":39,"x_max":993,"o":"m 382 631 q 220 854 301 742 q 58 1077 140 966 q 41 1135 39 1105 q 57 1188 42 1165 q 96 1226 72 1211 q 148 1241 121 1241 q 193 1230 171 1241 q 231 1196 214 1219 l 514 810 q 656 1003 585 907 q 798 1196 727 1099 q 834 1230 812 1219 q 879 1241 856 1241 q 931 1226 906 1241 q 971 1188 956 1211 q 987 1135 986 1165 q 970 1077 989 1105 l 644 631 q 726 515 684 575 q 812 393 769 454 q 897 271 854 332 q 979 156 940 210 q 993 115 993 138 q 983 70 993 92 q 954 31 972 47 q 911 6 935 14 q 860 5 887 -1 q 806 39 833 12 q 730 144 765 94 q 660 245 694 195 q 590 347 625 296 q 514 454 555 399 q 448 358 479 407 q 386 258 418 309 q 318 152 354 208 q 236 35 282 96 q 164 -6 203 -8 q 95 22 125 -4 q 54 87 65 47 q 66 159 43 127 l 382 631 z "},"D":{"ha":955,"x_min":46,"x_max":920,"o":"m 49 1141 q 81 1216 49 1191 q 153 1241 114 1241 q 198 1232 176 1241 q 236 1206 220 1223 q 423 1242 334 1244 q 626 1180 534 1240 q 783 1024 718 1120 q 884 806 848 928 q 920 559 920 684 q 888 354 920 450 q 795 182 857 258 q 644 58 734 107 q 435 -5 553 8 q 341 2 393 -5 q 237 23 289 9 q 201 -1 222 7 q 156 -8 179 -8 q 114 -1 134 -8 q 78 18 94 5 q 54 51 62 31 q 50 96 46 71 l 49 1141 m 430 199 q 553 237 500 203 q 642 323 606 271 q 695 439 677 374 q 713 570 713 503 q 692 734 713 652 q 633 883 671 817 q 539 991 594 949 q 418 1036 484 1034 q 260 994 345 1040 l 260 232 q 347 205 304 213 q 430 199 391 197 z "},"M":{"ha":1172,"x_min":61,"x_max":1108,"o":"m 690 241 l 690 243 q 646 195 677 212 q 583 178 614 178 q 522 193 551 178 q 479 241 494 209 l 273 732 l 273 92 q 239 18 273 41 q 167 -3 206 -5 q 94 25 127 -1 q 61 100 61 52 l 61 1146 q 92 1217 62 1191 q 160 1248 121 1242 q 239 1238 199 1253 q 300 1187 279 1223 l 585 563 q 726 874 655 719 q 867 1185 798 1029 q 925 1235 886 1219 q 1004 1246 964 1251 q 1074 1217 1043 1242 q 1108 1145 1105 1191 l 1108 94 q 1093 43 1108 64 q 1053 11 1077 22 q 1002 -1 1029 0 q 951 7 975 -3 q 912 39 928 18 q 897 94 897 60 l 897 732 l 690 241 z "},"z":{"ha":907,"x_min":50,"x_max":853,"o":"m 161 9 q 75 46 100 11 q 50 125 50 81 q 59 176 50 152 q 81 214 68 199 l 541 765 l 151 765 q 77 796 100 765 q 54 864 54 827 q 78 932 54 901 q 149 967 102 964 l 753 967 q 823 938 800 967 q 846 867 846 909 q 838 818 846 844 q 811 770 829 792 l 811 772 q 685 621 742 689 q 574 489 628 553 q 463 357 519 425 q 336 206 406 289 q 549 205 444 206 q 761 205 654 205 q 831 175 810 205 q 853 107 853 145 q 846 68 853 87 q 827 34 840 49 q 796 11 815 19 q 753 7 777 3 l 761 5 l 161 9 z "},"Z":{"ha":979,"x_min":28,"x_max":940,"o":"m 191 5 q 73 39 111 5 q 34 132 34 72 q 76 248 34 179 l 639 1036 l 129 1036 q 53 1071 77 1039 q 28 1142 28 1103 q 53 1213 28 1181 q 129 1245 77 1245 l 840 1245 q 914 1217 888 1245 q 940 1143 940 1188 q 903 1043 940 1093 l 316 217 q 577 216 448 217 q 838 216 707 216 q 913 184 890 216 q 936 111 936 152 q 929 71 936 91 q 909 35 922 50 q 876 12 895 20 q 830 7 856 3 l 838 5 l 191 5 z "},"P":{"ha":981,"x_min":45,"x_max":929,"o":"m 156 1253 q 224 1232 194 1253 q 256 1169 254 1211 q 366 1225 309 1206 q 479 1246 423 1245 q 675 1211 590 1249 q 817 1103 760 1172 q 901 942 873 1035 q 928 743 929 849 q 867 526 925 617 q 715 386 810 434 q 502 336 621 338 q 256 391 382 335 l 256 83 q 241 37 256 56 q 204 7 227 18 q 155 -5 182 -4 q 104 2 127 -7 q 64 31 81 11 q 45 81 47 50 l 45 1162 q 80 1230 45 1207 q 156 1253 115 1253 m 481 1036 q 421 1022 453 1035 q 359 985 389 1009 q 301 929 328 962 q 256 856 274 897 l 256 700 q 317 612 277 646 q 406 565 358 579 q 506 556 454 551 q 601 584 557 562 q 674 645 644 606 q 709 738 704 684 q 703 854 715 800 q 661 949 690 909 q 587 1013 632 990 q 481 1036 541 1036 z "},"O":{"ha":1054,"x_min":41,"x_max":1009,"o":"m 529 0 q 321 55 412 0 q 168 197 231 110 q 73 394 106 285 q 41 612 41 503 q 71 837 41 724 q 163 1040 102 949 q 315 1186 224 1130 q 529 1242 407 1242 q 676 1215 609 1242 q 797 1142 743 1188 q 890 1033 850 1096 q 957 897 930 970 q 996 747 983 825 q 1008 593 1009 669 q 976 374 1006 480 q 886 184 945 267 q 736 51 826 102 q 529 0 647 0 m 530 209 q 647 241 597 209 q 730 325 697 273 q 781 445 764 377 q 799 585 798 513 q 783 740 799 661 q 732 884 766 819 q 646 989 697 948 q 526 1029 595 1029 q 408 991 458 1029 q 323 892 357 954 q 272 756 289 831 q 255 608 255 681 q 269 481 255 551 q 316 351 283 411 q 401 250 349 290 q 530 209 454 209 z "},"Q":{"ha":1051,"x_min":49,"x_max":1015,"o":"m 751 56 q 652 14 705 28 q 537 0 598 0 q 326 54 416 0 q 173 196 235 109 q 80 393 111 283 q 49 613 49 503 q 79 838 49 726 q 171 1041 110 951 q 323 1187 232 1131 q 537 1244 415 1244 q 740 1188 652 1244 q 887 1044 827 1133 q 979 845 947 956 q 1015 624 1010 734 q 1007 515 1015 571 q 987 404 1000 458 q 954 298 974 349 q 909 208 935 248 q 935 167 921 187 q 958 127 948 146 q 962 82 968 104 q 939 41 956 60 q 898 10 922 23 q 850 -7 873 -3 q 806 -5 826 -11 q 776 20 785 1 l 751 56 m 538 209 q 593 216 567 209 q 642 233 618 222 q 562 360 602 297 q 483 487 522 423 l 484 486 q 466 545 464 515 q 484 596 468 574 q 524 632 499 618 q 576 646 549 646 q 624 635 601 646 q 662 601 647 625 l 780 412 q 807 608 808 505 q 787 756 804 681 q 734 892 769 831 q 650 992 700 954 q 534 1031 600 1031 q 416 992 467 1031 q 331 892 365 954 q 280 755 297 831 q 263 606 263 680 q 278 480 263 549 q 326 351 293 411 q 410 250 358 290 q 538 209 463 209 z "},"R":{"ha":944,"x_min":45,"x_max":913,"o":"m 155 1249 q 226 1225 195 1249 q 255 1156 256 1202 q 368 1215 311 1194 q 486 1242 426 1236 l 481 1241 q 513 1244 499 1244 q 538 1244 526 1244 q 692 1216 623 1244 q 810 1141 761 1188 q 886 1033 859 1095 q 913 905 913 971 q 873 751 913 829 q 750 610 833 674 q 627 541 699 574 q 487 492 556 509 l 850 190 q 884 117 886 157 q 861 47 883 77 q 802 5 838 18 q 728 18 765 -7 q 600 117 656 71 q 491 210 544 164 q 382 303 438 256 q 255 403 326 350 l 255 100 q 223 24 255 49 q 151 -1 191 -1 q 79 24 111 -1 q 45 99 47 50 l 45 1158 q 54 1198 45 1180 q 79 1226 64 1215 q 115 1243 95 1237 q 155 1249 134 1249 m 255 671 q 467 700 366 671 q 631 780 567 728 l 629 780 q 684 844 666 811 q 701 909 701 876 q 690 958 701 935 q 659 1000 680 982 q 610 1028 639 1017 q 544 1039 581 1039 q 530 1039 537 1039 q 511 1038 522 1039 q 437 1018 475 1032 q 366 980 400 1004 q 304 924 332 956 q 255 852 275 892 l 255 671 z "},"B":{"ha":994,"x_min":45,"x_max":959,"o":"m 153 1241 q 209 1227 183 1241 q 245 1187 235 1214 q 363 1231 304 1217 q 490 1242 422 1245 q 640 1214 571 1240 q 760 1147 709 1188 q 840 1050 811 1105 q 869 933 869 996 q 830 783 869 850 q 735 669 791 715 q 828 612 787 647 q 898 532 869 576 q 942 439 926 488 q 958 342 958 391 q 924 192 959 254 q 830 90 888 130 q 695 31 772 50 q 537 6 618 11 q 375 9 456 1 q 227 31 294 16 q 191 7 212 15 q 149 -1 171 -1 q 80 24 113 -1 q 45 99 47 50 l 45 1150 q 54 1190 45 1172 q 79 1218 64 1207 q 114 1235 95 1229 q 153 1241 133 1241 m 252 236 q 322 217 277 227 q 422 202 368 208 q 534 198 476 197 q 639 212 591 199 q 718 250 686 224 q 751 320 749 275 q 713 450 757 400 q 598 522 670 499 q 435 542 526 544 q 252 518 343 540 l 252 236 m 252 731 q 318 736 278 732 q 402 749 358 741 q 492 772 446 758 q 573 807 537 787 q 633 856 609 827 q 658 922 656 884 q 644 966 658 945 q 607 1004 631 987 q 551 1029 583 1020 q 481 1039 518 1039 q 360 1013 416 1038 q 252 949 304 989 l 252 731 z "},"Y":{"ha":1055,"x_min":30,"x_max":1016,"o":"m 412 495 q 320 652 366 579 q 228 797 274 726 q 136 941 182 868 q 43 1099 90 1015 q 35 1156 30 1130 q 55 1202 39 1183 q 95 1234 71 1222 q 144 1245 119 1245 q 195 1232 171 1245 q 235 1191 220 1219 l 525 743 l 808 1188 q 849 1233 823 1219 q 903 1246 875 1246 q 954 1235 929 1246 q 994 1203 978 1223 q 1013 1155 1009 1183 q 1002 1095 1016 1127 l 624 495 l 624 85 q 591 12 624 34 q 519 -11 559 -11 q 477 -4 498 -11 q 441 15 457 3 q 418 45 426 27 q 412 85 410 62 l 412 495 z "},"S":{"ha":959,"x_min":39,"x_max":921,"o":"m 251 384 q 286 302 263 336 q 337 245 309 267 q 397 211 365 222 q 460 199 429 199 q 553 213 510 199 q 627 250 595 227 q 679 304 659 273 q 703 370 699 335 l 703 369 q 693 453 707 415 q 652 519 680 491 q 585 561 625 547 q 499 574 545 575 q 348 580 426 571 q 205 621 270 589 q 100 712 141 652 q 60 872 60 772 q 92 1007 60 940 q 184 1127 123 1074 q 331 1213 244 1180 q 526 1245 418 1245 q 670 1212 605 1240 q 783 1139 735 1184 q 861 1036 831 1095 q 899 907 891 977 q 892 855 905 878 q 859 819 880 833 q 809 800 837 804 q 756 801 781 795 q 711 825 731 807 q 688 875 692 844 q 663 945 681 914 q 619 997 644 975 q 563 1030 594 1019 q 502 1043 532 1042 q 334 1001 395 1046 q 270 879 274 956 q 297 816 267 836 q 368 788 327 796 q 454 780 410 780 q 528 777 499 780 q 688 742 614 770 q 814 662 761 713 q 894 536 867 610 q 916 363 921 461 q 876 222 911 289 q 780 105 841 156 q 635 25 719 54 q 449 -3 551 -4 q 316 19 381 -3 q 196 85 251 41 q 100 199 141 130 q 39 361 58 267 q 72 449 39 419 q 145 479 104 479 q 213 455 182 479 q 251 384 244 431 z "},"|":{"ha":326,"x_min":61,"x_max":266,"o":"m 64 1152 q 95 1224 64 1200 q 164 1248 126 1248 q 232 1224 201 1248 q 266 1153 263 1200 l 266 94 q 235 23 266 45 q 167 1 203 1 q 126 8 146 1 q 92 27 106 15 q 69 58 77 39 q 65 100 61 76 l 64 94 l 64 1152 z "},"[":{"ha":555,"x_min":83,"x_max":486,"o":"m 208 -225 q 156 -220 179 -225 q 117 -203 133 -216 q 92 -168 100 -190 q 83 -113 83 -146 l 83 1181 q 109 1278 83 1249 q 191 1308 134 1308 l 395 1308 q 464 1276 442 1308 q 486 1208 486 1245 q 479 1168 486 1188 q 460 1134 472 1149 q 429 1112 448 1119 q 387 1107 411 1104 l 395 1105 l 285 1105 l 285 -23 l 392 -23 q 463 -54 441 -23 q 484 -123 484 -85 q 477 -163 484 -144 q 458 -197 471 -183 q 427 -220 446 -212 q 384 -224 408 -228 l 392 -225 l 208 -225 z "},"]":{"ha":559,"x_min":83,"x_max":486,"o":"m 176 -225 l 184 -224 q 141 -220 160 -228 q 110 -197 122 -212 q 91 -163 98 -183 q 84 -123 84 -144 q 106 -54 84 -85 q 176 -23 127 -23 l 283 -23 l 283 1105 l 174 1105 l 182 1107 q 139 1112 157 1104 q 109 1134 121 1119 q 90 1168 96 1149 q 83 1208 83 1188 q 104 1276 83 1245 q 174 1308 126 1308 l 377 1308 q 460 1278 434 1308 q 486 1181 486 1249 l 486 -113 q 477 -168 486 -146 q 452 -203 468 -190 q 412 -220 435 -216 q 361 -225 389 -225 l 176 -225 z "},"\\":{"ha":784,"x_min":27,"x_max":753,"o":"m 41 1095 q 31 1149 27 1123 q 50 1196 35 1176 q 89 1227 65 1215 q 137 1238 113 1238 q 184 1227 161 1238 q 221 1188 206 1215 l 739 136 q 748 81 753 107 q 727 37 743 56 q 686 6 711 18 q 639 -5 662 -5 q 590 8 612 -5 q 557 50 568 22 l 41 1095 z "},"/":{"ha":856,"x_min":39,"x_max":799,"o":"m 237 49 q 205 7 227 20 q 156 -5 183 -5 q 108 6 132 -5 q 67 37 84 18 q 45 81 50 56 q 54 136 39 107 l 605 1198 q 643 1236 620 1225 q 690 1248 666 1248 q 738 1236 715 1248 q 777 1205 761 1225 q 795 1159 792 1185 q 785 1104 799 1133 l 237 49 z "},"!":{"ha":338,"x_min":62,"x_max":278,"o":"m 270 372 q 239 299 270 323 q 170 275 208 275 q 102 299 133 275 q 68 370 71 323 l 68 1161 q 99 1232 68 1210 q 167 1253 130 1253 q 242 1227 209 1253 q 269 1153 275 1202 l 270 1161 l 270 372 m 278 109 q 269 67 278 87 q 246 33 260 47 q 212 9 232 18 q 170 0 191 0 q 94 33 125 0 q 62 109 62 65 q 94 186 62 155 q 170 217 125 217 q 246 186 214 217 q 278 109 278 155 z "},",":{"ha":339,"x_min":47,"x_max":293,"o":"m 232 -94 q 197 -121 217 -114 q 157 -129 176 -129 q 102 -115 129 -129 q 62 -78 76 -100 q 50 -27 47 -56 q 81 30 53 1 q 103 60 103 50 q 97 74 103 64 q 84 99 91 84 q 68 156 66 129 q 83 203 69 183 q 119 235 96 224 q 167 247 142 247 q 214 234 190 247 q 254 194 237 221 q 293 61 293 126 q 232 -94 293 -20 z "},"=":{"ha":905,"x_min":125,"x_max":777,"o":"m 222 359 q 149 391 172 359 q 125 460 125 422 q 149 528 125 496 q 221 562 174 559 l 685 562 q 755 530 734 562 q 777 461 777 499 q 770 421 777 441 q 751 387 764 401 q 720 365 739 373 q 677 361 701 357 l 685 359 l 222 359 m 222 612 q 149 643 172 612 q 125 711 125 674 q 149 779 125 747 q 221 814 174 811 l 685 814 q 755 783 734 814 q 777 713 777 751 q 770 673 777 693 q 751 640 764 654 q 720 617 739 625 q 677 613 701 609 l 685 612 l 222 612 z "},"-":{"ha":776,"x_min":56,"x_max":708,"o":"m 153 476 q 79 507 103 476 q 56 576 56 538 q 80 644 56 613 q 152 678 104 675 l 616 678 q 686 647 665 678 q 708 579 708 616 q 701 539 708 559 q 682 505 694 519 q 651 482 670 490 q 608 477 632 475 l 616 476 l 153 476 z "},";":{"ha":328,"x_min":57,"x_max":302,"o":"m 241 -94 q 206 -121 227 -114 q 167 -129 186 -129 q 112 -115 138 -129 q 71 -78 85 -100 q 60 -27 57 -56 q 91 30 62 1 q 113 60 113 52 q 106 74 113 64 q 92 99 100 84 q 77 156 76 129 q 92 203 79 183 q 128 235 106 224 q 175 247 151 247 q 223 234 199 247 q 263 194 247 221 q 302 61 302 126 q 241 -94 302 -20 m 275 418 q 267 376 275 396 q 243 342 258 357 q 208 318 228 327 q 167 309 189 309 q 124 318 144 309 q 90 342 104 327 q 67 376 76 357 q 58 418 58 396 q 90 495 58 464 q 167 526 122 526 q 208 518 189 526 q 243 495 228 510 q 267 460 258 480 q 275 418 275 441 z "},"+":{"ha":753,"x_min":50,"x_max":703,"o":"m 475 678 l 610 678 q 681 647 659 678 q 703 579 703 616 q 696 539 703 559 q 677 505 689 519 q 646 482 665 490 q 602 477 627 475 l 610 476 l 475 476 l 475 345 q 444 272 475 296 q 376 248 412 248 q 307 272 339 248 q 273 343 275 296 l 273 476 l 148 476 q 74 507 98 476 q 50 576 50 538 q 75 644 50 613 q 146 678 99 675 l 273 678 l 273 808 q 304 878 273 856 q 373 899 335 899 q 413 892 393 899 q 447 873 433 886 q 469 843 461 861 q 473 800 477 825 l 475 808 l 475 678 z "},"×":{"ha":753,"x_min":123,"x_max":625,"o":"m 369 718 l 464 812 q 514 817 481 827 q 574 783 547 807 q 613 727 601 760 q 602 665 625 694 l 511 574 l 604 481 q 609 454 613 472 q 593 418 605 437 q 562 381 581 399 q 525 351 544 363 q 489 333 506 338 q 463 338 472 328 l 369 433 q 324 387 346 410 q 279 343 302 365 q 235 343 264 328 q 180 385 206 358 q 138 441 153 412 q 137 486 123 471 l 227 575 l 136 666 q 132 690 129 673 q 144 728 136 707 q 168 769 153 749 q 201 802 183 789 q 241 817 220 815 q 282 803 262 819 l 369 718 z "},"?":{"ha":894,"x_min":57,"x_max":838,"o":"m 290 552 q 301 616 290 593 q 329 650 312 639 q 369 663 346 661 q 416 667 392 666 q 425 668 420 667 q 434 669 430 669 q 494 688 460 674 q 560 728 529 703 q 613 791 591 754 q 635 880 635 829 q 624 937 635 909 q 591 988 613 966 q 534 1025 568 1010 q 454 1043 500 1040 q 327 1001 377 1046 q 252 882 277 956 l 252 883 q 218 837 241 852 q 165 822 194 822 q 122 831 144 822 q 85 856 100 840 q 64 895 71 872 q 65 947 57 918 q 209 1168 107 1092 q 450 1245 311 1245 q 617 1208 545 1241 q 737 1125 689 1176 q 810 1010 785 1074 q 837 879 836 945 q 823 773 838 834 q 767 652 807 712 q 660 543 727 593 q 491 471 593 494 l 491 395 q 458 327 491 351 q 388 302 426 302 q 319 325 349 302 q 290 395 290 347 l 290 552 m 499 107 q 490 66 499 85 q 467 31 481 46 q 432 7 452 16 q 391 -1 412 -1 q 348 7 368 -1 q 313 31 328 16 q 290 66 298 46 q 282 107 282 85 q 313 184 282 153 q 391 216 345 216 q 432 208 412 216 q 467 184 452 199 q 490 150 481 170 q 499 107 499 130 z "},":":{"ha":373,"x_min":90,"x_max":307,"o":"m 307 407 q 298 366 307 385 q 274 331 289 346 q 239 307 259 316 q 197 298 218 298 q 121 331 152 298 q 90 407 90 363 q 121 484 90 453 q 197 515 152 515 q 274 484 241 515 q 307 407 307 453 m 307 726 q 274 648 307 681 q 197 616 241 616 q 121 648 152 616 q 90 726 90 681 q 121 802 90 770 q 197 833 152 833 q 274 802 241 833 q 307 726 307 770 z "},"<":{"ha":617,"x_min":80,"x_max":532,"o":"m 343 555 q 422 510 382 532 q 502 463 463 488 q 524 430 519 450 q 522 387 528 410 q 501 342 515 363 q 469 305 487 320 q 430 286 450 290 q 392 294 410 282 l 393 294 q 271 367 332 330 q 148 439 209 404 q 98 488 115 458 q 80 549 80 517 q 96 608 80 579 q 144 661 111 637 l 144 659 q 267 744 205 701 q 391 829 330 787 l 389 829 q 435 840 412 844 q 477 821 458 836 q 510 785 496 807 q 528 739 524 762 q 526 695 532 716 q 502 663 521 674 l 343 555 z "},">":{"ha":659,"x_min":127,"x_max":578,"o":"m 156 663 q 128 717 127 681 q 148 785 129 753 q 200 833 167 817 q 269 829 233 850 l 267 829 q 391 744 328 787 q 514 659 453 701 l 514 661 q 562 608 547 637 q 578 549 578 579 q 560 488 578 517 q 510 439 543 458 q 387 367 449 404 q 264 294 326 330 l 266 294 q 228 286 248 282 q 189 305 208 290 q 157 342 171 320 q 136 387 142 363 q 134 430 130 410 q 156 463 138 450 q 235 510 195 488 q 315 555 275 532 l 156 663 z "},"@":{"ha":1402,"x_min":104,"x_max":1268,"o":"m 853 186 q 933 171 905 201 q 962 95 962 141 q 945 35 962 64 q 892 -9 928 5 l 897 -8 q 637 -64 789 -61 q 423 -16 517 -65 q 264 113 330 34 q 159 292 198 193 q 109 491 121 392 q 104 575 104 528 q 141 810 104 692 q 250 1023 178 928 q 427 1179 321 1119 q 670 1241 532 1240 q 918 1189 808 1234 q 1105 1064 1028 1143 q 1225 874 1183 985 q 1267 629 1267 764 q 1243 427 1268 507 q 1177 299 1218 346 q 1084 233 1137 252 q 978 214 1032 214 q 917 228 951 214 q 850 279 883 241 q 756 234 807 251 q 662 217 705 217 q 549 239 602 217 q 454 305 495 262 q 390 412 414 349 q 368 560 366 476 q 389 720 369 650 q 446 840 410 791 q 530 913 481 888 q 637 939 579 939 q 811 883 722 939 q 848 916 826 906 q 897 926 871 926 q 964 901 933 926 q 998 829 996 876 q 992 732 994 774 q 989 654 990 689 q 987 592 987 620 q 986 540 986 564 q 1000 436 986 465 q 1031 418 1015 407 q 1061 476 1047 429 q 1073 602 1074 524 q 1050 789 1073 705 q 978 930 1027 872 q 853 1021 929 989 q 670 1053 777 1053 q 511 1007 579 1053 q 396 891 442 962 q 327 734 350 821 q 304 566 304 647 q 304 540 304 552 q 307 513 304 528 q 338 374 313 444 q 406 250 363 305 q 507 160 448 194 q 642 127 566 126 q 694 132 666 127 q 749 144 722 137 q 800 161 776 152 q 841 180 823 171 l 853 186 m 572 553 q 604 454 572 487 q 675 420 635 420 q 745 446 711 420 q 796 519 779 472 l 796 610 q 728 703 765 673 q 655 734 690 734 q 595 690 620 734 q 572 553 571 647 z "},".":{"ha":316,"x_min":56,"x_max":271,"o":"m 271 111 q 239 35 271 66 q 163 3 208 3 q 87 35 118 3 q 56 111 56 66 q 87 187 56 156 q 163 218 118 218 q 239 187 208 218 q 271 111 271 156 z "},"#":{"ha":947,"x_min":102,"x_max":864,"o":"m 704 587 l 704 552 l 772 552 q 842 521 821 552 q 864 452 864 490 q 857 412 864 431 q 838 378 850 392 q 807 355 826 363 q 764 351 788 347 l 772 350 l 704 350 l 704 285 q 673 212 704 235 q 604 189 642 189 q 536 212 567 189 q 502 283 505 236 l 502 350 l 460 350 l 460 285 q 429 212 460 235 q 359 189 397 189 q 292 212 323 189 q 258 283 260 236 l 258 350 l 199 350 q 125 380 149 350 q 102 449 102 411 q 126 517 102 486 q 198 552 151 549 l 258 552 l 258 587 l 199 587 q 125 618 149 587 q 102 688 102 650 q 126 755 102 724 q 198 789 151 787 l 258 789 l 258 852 q 289 922 258 901 q 358 944 320 944 q 398 937 378 944 q 432 918 418 930 q 454 887 446 906 q 458 844 463 868 l 460 852 l 460 789 l 502 789 l 502 852 q 533 922 502 901 q 602 944 564 944 q 642 937 623 944 q 676 918 662 930 q 699 887 690 906 q 703 844 707 868 l 704 852 l 704 789 l 772 789 q 842 758 821 789 q 864 690 864 727 q 857 650 864 670 q 838 616 850 631 q 807 593 826 601 q 764 589 788 586 l 772 587 l 704 587 m 460 552 l 502 552 l 502 587 l 460 587 l 460 552 z "},"$":{"ha":959,"x_min":68,"x_max":910,"o":"m 488 -54 q 429 -39 457 -54 q 391 4 401 -24 q 284 39 335 14 q 191 106 233 64 q 116 207 148 148 q 68 343 84 266 q 99 428 68 400 q 170 456 130 456 q 233 432 203 456 q 270 365 263 408 q 319 270 288 309 q 387 212 350 231 q 387 304 387 252 q 389 412 388 357 q 390 522 389 467 q 391 623 391 576 q 315 632 351 625 q 245 652 278 639 q 182 690 212 666 q 130 750 153 713 q 88 901 88 821 q 108 1011 88 956 q 167 1114 127 1066 q 264 1196 206 1161 q 400 1248 323 1232 q 437 1297 410 1280 q 495 1313 464 1313 q 552 1297 525 1313 q 590 1249 579 1280 q 695 1209 644 1237 q 787 1141 746 1181 q 854 1048 827 1100 q 888 936 882 996 q 857 848 888 878 q 787 818 826 818 q 724 839 753 818 q 686 905 696 860 l 686 906 q 654 985 677 952 q 595 1039 631 1019 q 595 927 595 983 q 593 804 594 871 q 726 753 666 793 q 827 652 785 713 q 889 511 868 590 q 905 346 910 433 q 876 233 901 286 q 810 134 852 179 q 711 57 769 90 q 583 9 654 24 q 547 -39 574 -24 q 488 -54 519 -54 m 700 351 q 702 420 704 384 q 688 491 700 457 q 654 554 677 525 q 593 602 631 583 q 592 515 593 563 q 591 415 591 467 q 589 311 590 363 q 589 213 589 259 q 665 272 636 235 q 700 353 694 309 l 700 351 m 300 864 q 334 833 309 844 q 392 819 358 823 q 392 873 392 849 q 392 923 392 898 q 393 976 392 948 q 393 1040 393 1004 q 317 980 343 1017 q 292 903 292 943 q 300 864 292 880 z "},"(":{"ha":627,"x_min":37,"x_max":575,"o":"m 458 1274 q 505 1273 483 1280 q 542 1251 526 1265 q 566 1215 557 1236 q 575 1173 575 1194 q 563 1124 575 1146 q 519 1089 551 1101 q 394 1002 448 1062 q 304 865 340 941 q 252 702 269 788 q 237 538 235 616 q 257 387 239 463 q 309 249 275 311 q 391 144 343 187 q 498 94 438 102 q 555 58 537 87 q 574 -3 574 28 q 566 -43 574 -23 q 545 -77 559 -62 q 509 -98 530 -91 q 463 -100 488 -104 q 281 -13 359 -76 q 151 137 203 50 q 70 326 98 224 q 39 532 42 429 q 62 756 37 642 q 140 972 88 871 q 271 1154 193 1074 q 454 1272 350 1233 l 458 1274 z "},")":{"ha":597,"x_min":-12,"x_max":525,"o":"m 109 1272 q 292 1154 213 1233 q 422 972 370 1074 q 500 756 475 871 q 524 532 525 642 q 493 326 521 429 q 412 137 465 224 q 281 -13 359 50 q 100 -100 203 -76 q 54 -98 75 -104 q 18 -77 33 -91 q -3 -43 4 -62 q -11 -3 -11 -23 q 7 58 -11 28 q 65 94 26 87 q 172 144 125 102 q 254 249 220 187 q 306 387 288 311 q 326 538 324 463 q 311 702 327 616 q 258 865 294 788 q 169 1002 222 941 q 43 1089 115 1062 q 0 1124 12 1101 q -12 1173 -12 1146 q -3 1215 -12 1194 q 21 1251 5 1236 q 58 1273 37 1265 q 104 1274 80 1280 l 109 1272 z "},"*":{"ha":755,"x_min":58,"x_max":703,"o":"m 308 587 l 106 570 q 70 587 81 570 q 58 623 58 604 q 71 659 58 642 q 106 675 83 675 l 298 651 l 144 776 q 133 812 127 792 q 153 846 138 831 q 187 863 168 860 q 218 852 206 867 l 347 692 l 324 898 q 342 931 324 921 q 380 940 359 941 q 416 928 400 939 q 430 898 433 917 l 410 688 l 540 848 q 578 862 557 865 q 612 845 598 859 q 628 811 625 831 q 614 773 631 791 l 463 651 l 659 675 q 692 658 682 675 q 701 620 703 640 q 689 583 700 600 q 659 570 678 567 l 452 587 l 609 460 q 623 422 627 442 q 606 388 620 401 q 572 372 593 374 q 534 385 552 369 l 410 540 l 430 345 q 413 309 430 320 q 377 297 396 297 q 341 309 358 297 q 324 345 324 321 l 347 536 l 224 382 q 188 372 208 366 q 154 392 168 377 q 136 426 140 407 q 148 457 133 445 l 308 587 z "},"&":{"ha":945,"x_min":61,"x_max":909,"o":"m 898 126 q 899 77 909 107 q 864 23 888 46 q 804 -5 840 0 q 728 24 769 -9 l 693 80 q 544 4 628 34 q 381 -26 460 -26 q 280 -14 330 -26 q 184 20 231 -3 q 90 117 119 56 q 61 255 61 178 q 76 384 61 312 q 119 530 91 456 q 188 675 148 605 q 279 796 228 745 q 237 919 254 857 q 224 1034 221 981 q 247 1126 225 1086 q 302 1192 269 1165 q 376 1232 335 1218 q 458 1245 418 1245 q 536 1233 499 1245 q 601 1196 574 1221 q 642 1133 628 1171 q 650 1044 655 1095 q 607 905 643 977 q 522 770 571 834 l 688 456 q 724 515 694 496 q 787 534 753 534 q 851 513 821 534 q 890 453 882 492 q 871 347 887 404 q 829 240 854 289 q 864 183 845 213 q 898 126 883 153 m 728 24 q 732 20 731 22 q 728 24 732 18 m 300 182 q 378 163 330 163 q 494 185 435 163 q 587 244 553 208 l 387 624 q 336 547 359 593 q 296 450 313 500 q 269 353 279 400 q 259 271 259 305 q 269 219 259 243 q 300 182 278 195 m 458 1067 q 434 1067 442 1077 q 424 1040 426 1058 q 422 1000 422 1021 q 426 967 423 979 q 452 1010 444 991 q 462 1042 460 1029 q 462 1061 464 1054 q 458 1067 460 1067 z "},"%":{"ha":837,"x_min":56,"x_max":765,"o":"m 254 49 q 221 7 243 20 q 172 -5 199 -5 q 124 6 148 -5 q 83 37 100 18 q 61 81 66 56 q 71 136 56 107 l 571 1196 q 609 1235 586 1223 q 656 1246 632 1246 q 704 1235 681 1246 q 743 1204 727 1223 q 762 1158 758 1184 q 751 1103 765 1131 l 254 49 m 212 1076 q 218 1061 212 1067 q 232 1054 224 1054 q 248 1061 241 1054 q 254 1076 254 1067 q 248 1090 254 1084 q 232 1096 241 1096 q 218 1090 224 1096 q 212 1076 212 1084 m 392 1073 q 379 1011 392 1040 q 345 960 366 982 q 293 926 323 939 q 231 913 263 913 q 169 926 198 913 q 118 960 140 939 q 84 1011 96 982 q 72 1073 72 1040 q 84 1135 72 1107 q 118 1185 96 1164 q 169 1219 140 1207 q 231 1232 198 1232 q 293 1219 263 1232 q 345 1185 323 1207 q 379 1135 366 1164 q 392 1073 392 1107 m 564 178 q 570 163 564 170 q 585 156 576 156 q 600 163 594 156 q 606 178 606 170 q 585 198 606 198 q 570 193 576 198 q 564 178 564 187 m 745 176 q 732 114 745 144 q 697 62 719 84 q 646 28 675 41 q 585 15 617 15 q 522 28 551 15 q 471 62 492 41 q 437 114 449 84 q 425 176 425 144 q 437 238 425 209 q 471 289 449 267 q 522 323 492 311 q 585 335 551 335 q 646 323 617 335 q 697 289 675 311 q 732 238 719 267 q 745 176 745 209 z "},"˚":{"ha":400,"x_min":39,"x_max":358,"o":"m 178 1217 q 184 1202 178 1208 q 199 1196 190 1196 q 214 1202 208 1196 q 220 1217 220 1208 q 214 1232 220 1226 q 199 1238 208 1238 q 178 1217 178 1238 m 358 1215 q 345 1153 358 1183 q 311 1101 332 1123 q 260 1067 289 1080 q 198 1054 231 1054 q 135 1067 164 1054 q 85 1101 106 1080 q 52 1153 64 1123 q 39 1215 39 1183 q 52 1277 39 1248 q 85 1328 64 1306 q 135 1362 106 1350 q 198 1374 164 1374 q 260 1362 231 1374 q 311 1328 289 1350 q 345 1277 332 1306 q 358 1215 358 1248 z "},"ı":{"ha":311,"x_min":53,"x_max":258,"o":"m 56 872 q 87 945 56 921 q 156 968 118 968 q 224 944 193 968 q 258 872 255 920 l 258 94 q 227 23 258 45 q 159 1 195 1 q 118 8 138 1 q 83 27 98 15 q 61 58 69 39 q 57 100 53 76 l 56 94 l 56 872 z "},"'":{"ha":368,"x_min":57,"x_max":302,"o":"m 241 755 q 206 728 227 735 q 167 720 186 720 q 112 734 138 720 q 71 771 85 749 q 60 822 57 793 q 91 879 62 850 q 113 909 113 901 q 106 922 113 911 q 92 948 100 933 q 77 1005 76 978 q 92 1053 79 1032 q 128 1084 106 1073 q 175 1096 151 1096 q 223 1083 199 1096 q 263 1043 247 1070 q 302 910 302 975 q 241 754 302 829 l 241 755 z "},"\"":{"ha":655,"x_min":83,"x_max":586,"o":"m 267 755 q 232 728 252 735 q 193 720 212 720 q 138 734 164 720 q 97 771 111 749 q 85 822 83 793 q 117 879 88 850 q 138 909 138 901 q 132 922 138 911 q 118 948 126 933 q 103 1005 102 978 q 118 1053 104 1032 q 154 1084 132 1073 q 201 1096 176 1096 q 249 1083 225 1096 q 289 1043 273 1070 q 328 910 328 975 q 267 754 328 829 l 267 755 m 525 762 q 490 734 510 742 q 449 727 469 727 q 394 741 420 727 q 353 778 368 755 q 342 829 339 800 q 373 886 345 857 q 395 916 395 906 q 389 929 395 918 q 376 955 384 940 q 361 1012 359 985 q 376 1059 362 1039 q 412 1091 389 1080 q 458 1103 434 1103 q 507 1090 483 1103 q 547 1050 530 1077 q 586 917 586 982 q 525 761 586 836 l 525 762 z "},"”":{"ha":643,"x_min":66,"x_max":582,"o":"m 251 1067 q 298 992 282 1029 q 313 913 313 955 q 273 779 313 845 q 233 739 256 751 q 186 726 209 726 q 139 737 161 726 q 104 769 117 749 q 90 816 91 789 q 104 873 88 842 q 117 897 111 887 q 122 913 122 907 q 100 944 122 922 q 69 1000 72 972 q 81 1050 66 1028 q 121 1087 95 1073 q 176 1101 148 1101 q 216 1094 195 1101 q 251 1066 236 1086 l 251 1067 m 521 1061 q 567 985 552 1023 q 582 906 582 948 q 543 772 582 840 q 503 732 526 745 q 456 719 479 719 q 409 730 431 719 q 374 762 387 742 q 359 809 361 783 q 373 867 357 836 q 386 890 380 880 q 392 906 392 901 q 370 937 392 916 q 339 994 342 966 q 351 1044 336 1021 q 391 1080 365 1066 q 446 1095 418 1095 q 486 1087 465 1095 q 521 1059 506 1080 l 521 1061 z "},"“":{"ha":628,"x_min":66,"x_max":581,"o":"m 397 1066 q 433 1094 412 1086 q 472 1101 453 1101 q 526 1087 500 1101 q 566 1050 552 1073 q 578 1000 581 1028 q 548 944 576 972 q 526 913 526 922 q 532 897 526 907 q 544 873 537 887 q 559 816 560 842 q 545 769 557 789 q 509 737 532 749 q 463 726 487 726 q 416 739 439 726 q 376 779 392 751 q 335 913 335 845 q 351 992 335 955 q 397 1067 366 1029 l 397 1066 m 127 1059 q 163 1087 142 1080 q 202 1095 183 1095 q 256 1080 231 1095 q 296 1044 282 1066 q 309 994 311 1021 q 278 937 307 966 q 256 906 256 916 q 262 890 256 901 q 275 867 269 880 q 290 809 292 836 q 275 762 288 783 q 239 730 262 742 q 193 719 217 719 q 146 732 170 719 q 106 772 122 745 q 66 906 66 840 q 81 985 66 948 q 127 1061 96 1023 l 127 1059 z "},"„":{"ha":662,"x_min":91,"x_max":605,"o":"m 275 -38 q 240 -66 260 -58 q 201 -73 220 -73 q 146 -59 172 -73 q 105 -22 119 -45 q 94 28 91 0 q 125 85 96 57 q 146 115 146 106 q 140 130 146 119 q 126 155 134 140 q 111 212 110 184 q 126 259 113 239 q 163 291 140 279 q 210 302 186 302 q 257 290 233 302 q 297 250 281 277 q 336 117 336 182 q 275 -38 336 35 m 544 -42 q 509 -70 529 -62 q 469 -77 488 -77 q 414 -63 441 -77 q 374 -26 388 -49 q 362 24 359 -4 q 393 81 365 53 q 414 111 414 102 q 408 125 414 115 q 395 151 403 136 q 380 208 378 180 q 395 255 381 235 q 431 287 408 275 q 477 298 453 298 q 526 286 502 298 q 566 245 549 273 q 605 113 605 178 q 544 -42 605 31 z "},"…":{"ha":887,"x_min":53,"x_max":825,"o":"m 269 111 q 237 35 269 66 q 160 3 205 3 q 84 35 115 3 q 53 111 53 66 q 84 187 53 156 q 160 218 115 218 q 237 187 205 218 q 269 111 269 156 m 549 111 q 517 35 549 66 q 439 3 484 3 q 363 35 395 3 q 332 111 332 66 q 363 187 332 156 q 439 218 395 218 q 517 187 484 218 q 549 111 549 156 m 825 111 q 816 68 825 88 q 792 35 807 49 q 758 12 777 20 q 716 3 738 3 q 639 35 670 3 q 608 111 608 66 q 639 187 608 156 q 716 218 670 218 q 792 187 760 218 q 825 111 825 156 z "},"’":{"ha":347,"x_min":42,"x_max":288,"o":"m 227 755 q 191 728 212 735 q 152 720 171 720 q 97 734 123 720 q 56 771 71 749 q 45 822 42 793 q 76 879 47 850 q 98 909 98 901 q 92 922 98 911 q 77 948 85 933 q 62 1005 61 978 q 77 1053 64 1032 q 113 1084 91 1073 q 160 1096 136 1096 q 208 1083 184 1096 q 248 1043 232 1070 q 288 910 288 975 q 227 754 288 829 l 227 755 z "},"‘":{"ha":338,"x_min":47,"x_max":292,"o":"m 109 1059 q 144 1087 123 1080 q 183 1095 164 1095 q 237 1080 212 1095 q 277 1044 263 1066 q 290 994 292 1021 q 259 937 288 966 q 237 906 237 916 q 243 890 237 901 q 256 867 250 880 q 271 809 273 836 q 256 762 269 783 q 220 730 243 742 q 174 719 198 719 q 127 732 151 719 q 87 772 103 745 q 47 906 47 840 q 62 985 47 948 q 109 1061 77 1023 l 109 1059 z "},"‚":{"ha":340,"x_min":43,"x_max":289,"o":"m 228 -42 q 193 -70 213 -62 q 153 -77 172 -77 q 98 -64 125 -77 q 58 -28 72 -50 q 46 23 43 -5 q 77 80 49 52 q 94 100 90 92 q 99 111 99 107 q 93 125 99 114 q 80 149 87 136 q 64 208 62 180 q 79 255 65 235 q 115 287 92 275 q 163 298 138 298 q 210 286 186 298 q 250 245 233 273 q 289 113 289 178 q 228 -43 289 31 l 228 -42 z "},"_":{"ha":753,"x_min":50,"x_max":703,"o":"m 148 -71 q 74 -39 98 -71 q 50 30 50 -8 q 75 98 50 66 q 146 132 99 129 l 610 132 q 681 100 659 132 q 703 31 703 69 q 696 -9 703 11 q 677 -43 689 -28 q 646 -65 665 -57 q 602 -69 627 -73 l 610 -71 l 148 -71 z "},"€":{"ha":1115,"x_min":61,"x_max":1038,"o":"m 381 359 q 461 239 410 285 q 590 193 513 194 q 665 204 628 193 q 735 240 703 216 q 794 301 768 264 q 837 387 821 338 q 874 452 845 430 q 937 473 903 473 q 1007 444 977 473 q 1038 357 1038 415 q 947 168 1001 239 q 832 58 894 96 q 707 9 770 20 q 586 -1 643 -1 q 429 26 499 -1 q 307 103 359 54 q 217 218 254 152 q 161 359 180 283 l 157 359 q 84 391 107 359 q 61 460 61 422 q 82 523 61 494 q 142 559 103 552 l 142 608 q 81 642 100 613 q 61 707 61 671 q 85 774 61 743 q 156 808 109 806 l 174 808 q 239 972 198 891 q 338 1117 281 1054 q 470 1218 396 1180 q 632 1253 544 1256 q 754 1236 693 1251 q 867 1188 815 1221 q 961 1105 920 1156 q 1025 981 1002 1054 q 1021 934 1029 956 q 998 895 1013 911 q 961 867 982 878 q 920 856 940 856 q 867 871 891 856 q 831 921 842 886 q 791 994 817 967 q 738 1036 766 1021 q 682 1053 709 1050 q 635 1057 655 1057 q 553 1032 590 1055 q 485 973 515 1009 q 430 893 454 937 q 389 808 406 849 l 753 808 q 823 778 802 808 q 845 709 845 747 q 838 669 845 689 q 819 635 831 650 q 788 612 807 620 q 745 608 769 605 l 753 608 l 349 608 l 349 562 l 753 562 q 823 530 802 562 q 845 461 845 499 q 838 421 845 441 q 819 387 831 401 q 788 365 807 373 q 745 361 769 357 l 753 359 l 381 359 z "},"^":{"ha":655,"x_min":84,"x_max":590,"o":"m 235 457 q 196 433 217 435 q 155 439 175 430 q 119 465 136 448 q 94 502 103 483 q 85 540 84 521 q 99 570 85 559 l 239 697 q 339 742 289 742 q 392 730 368 742 q 441 697 416 719 l 560 587 q 582 522 590 556 q 550 464 574 488 q 496 431 526 439 q 453 441 467 422 q 394 495 427 464 q 335 549 361 526 l 235 457 z "},"ˆ":{"ha":595,"x_min":54,"x_max":560,"o":"m 205 1082 q 166 1058 187 1061 q 125 1064 145 1055 q 90 1090 106 1073 q 64 1127 73 1108 q 55 1165 54 1146 q 69 1195 56 1184 l 209 1322 q 309 1367 259 1367 q 362 1356 338 1367 q 411 1322 387 1344 l 530 1213 q 552 1147 560 1181 q 520 1089 544 1114 q 467 1056 496 1065 q 423 1066 437 1047 q 364 1120 397 1089 q 305 1175 331 1152 l 205 1082 z "},"ˇ":{"ha":401,"x_min":-26,"x_max":495,"o":"m 345 1359 q 383 1383 362 1379 q 424 1377 404 1386 q 460 1351 444 1369 q 486 1314 476 1333 q 494 1276 495 1295 q 480 1246 494 1257 l 326 1103 q 225 1058 275 1058 q 172 1069 197 1058 q 123 1103 148 1081 l 4 1213 q -18 1278 -26 1244 q 14 1336 -9 1312 q 68 1369 38 1360 q 111 1359 98 1378 q 170 1305 137 1336 q 229 1251 203 1274 l 345 1359 z "},"`":{"ha":350,"x_min":45,"x_max":307,"o":"m 57 1219 q 49 1270 45 1245 q 67 1314 53 1295 q 104 1345 81 1333 q 149 1358 126 1358 q 192 1347 171 1358 q 229 1313 213 1336 l 292 1213 q 303 1163 307 1190 q 286 1115 300 1137 q 248 1079 271 1093 q 202 1065 225 1065 q 159 1075 179 1065 q 125 1111 138 1085 l 127 1108 q 94 1160 111 1134 q 61 1211 77 1185 l 57 1219 z "},"´":{"ha":384,"x_min":58,"x_max":320,"o":"m 241 1107 q 206 1071 227 1081 q 164 1061 186 1061 q 118 1075 141 1061 q 80 1111 95 1089 q 62 1159 65 1133 q 75 1208 58 1185 q 106 1259 90 1233 q 137 1309 122 1284 q 174 1343 153 1332 q 216 1354 194 1354 q 260 1341 239 1354 q 296 1310 282 1329 q 315 1265 311 1290 q 308 1213 320 1240 l 241 1107 z "},"˝":{"ha":623,"x_min":53,"x_max":591,"o":"m 233 1095 l 236 1097 q 201 1061 221 1072 q 159 1051 180 1051 q 113 1065 136 1051 q 75 1101 90 1080 q 56 1149 60 1123 q 69 1199 53 1176 q 100 1249 84 1223 q 132 1299 117 1275 q 168 1333 148 1322 q 210 1344 189 1344 q 255 1332 233 1344 q 291 1300 277 1320 q 310 1255 305 1280 q 302 1203 315 1230 l 233 1095 m 510 1085 l 513 1088 q 478 1052 498 1062 q 435 1042 458 1042 q 389 1056 412 1042 q 352 1093 366 1070 q 334 1141 338 1115 q 346 1191 331 1166 l 346 1190 q 377 1240 361 1214 q 408 1290 393 1265 q 445 1325 425 1314 q 487 1336 465 1336 q 532 1324 510 1336 q 569 1292 555 1312 q 587 1246 583 1272 q 579 1194 591 1221 l 510 1085 z "},"˙":{"ha":313,"x_min":49,"x_max":266,"o":"m 266 1176 q 257 1135 266 1154 q 233 1100 248 1115 q 198 1076 218 1085 q 156 1067 178 1067 q 80 1100 111 1067 q 49 1176 49 1133 q 80 1253 49 1222 q 156 1284 111 1284 q 233 1253 201 1284 q 266 1176 266 1222 z "},"–":{"ha":802,"x_min":122,"x_max":708,"o":"m 220 476 q 146 507 170 476 q 122 576 122 538 q 146 644 122 613 q 218 678 171 675 l 616 678 q 686 647 665 678 q 708 579 708 616 q 701 539 708 559 q 682 505 694 519 q 651 482 670 490 q 608 477 632 475 l 616 476 l 220 476 z "},"—":{"ha":933,"x_min":95,"x_max":810,"o":"m 193 476 q 119 507 142 476 q 95 576 95 538 q 119 644 95 613 q 191 678 144 675 l 718 678 q 788 647 766 678 q 810 579 810 616 q 803 539 810 559 q 784 505 796 519 q 753 482 772 490 q 709 477 734 475 l 718 476 l 193 476 z "},"•":{"ha":351,"x_min":54,"x_max":301,"o":"m 301 608 q 264 519 301 556 q 176 483 228 483 q 90 519 125 483 q 54 608 54 556 q 90 694 54 659 q 176 730 125 730 q 264 694 228 730 q 301 608 301 659 z "},"˛":{"ha":378,"x_min":75,"x_max":315,"o":"m 125 -247 q 86 -178 98 -214 q 75 -104 75 -142 q 91 -16 75 -58 q 134 58 107 27 l 133 58 q 190 90 157 85 q 249 81 222 94 q 289 39 275 68 q 286 -26 302 11 q 270 -64 278 -45 q 262 -100 262 -84 q 271 -119 262 -111 q 310 -175 305 -146 q 300 -227 315 -203 q 257 -266 285 -251 q 198 -281 229 -281 q 159 -273 178 -281 q 126 -248 141 -266 l 125 -247 z "},"˘":{"ha":536,"x_min":47,"x_max":494,"o":"m 225 1268 q 267 1242 241 1242 q 295 1252 282 1242 q 320 1275 308 1261 q 395 1312 358 1314 q 457 1284 433 1310 q 488 1219 481 1259 q 469 1146 494 1180 q 374 1075 426 1097 q 270 1053 321 1053 q 153 1082 206 1053 q 66 1160 99 1111 q 49 1217 47 1190 q 64 1265 50 1244 q 102 1299 79 1286 q 149 1312 125 1312 q 191 1301 171 1312 q 227 1268 212 1291 l 225 1268 m 477 1156 q 469 1146 476 1150 q 477 1156 476 1153 z "},"⁄":{"ha":861,"x_min":58,"x_max":812,"o":"m 256 60 q 224 18 245 31 q 175 5 202 5 q 127 17 151 5 q 86 47 103 28 q 64 92 69 66 q 73 146 58 118 l 618 1176 q 656 1215 633 1203 q 704 1226 680 1226 q 751 1215 728 1226 q 790 1183 774 1203 q 809 1137 806 1164 q 799 1082 812 1111 l 256 60 z "},"¡":{"ha":354,"x_min":75,"x_max":290,"o":"m 83 907 q 114 981 83 958 q 183 1004 145 1004 q 251 980 220 1004 q 285 909 282 956 l 285 94 q 254 23 285 45 q 186 1 222 1 q 145 8 165 1 q 111 27 125 15 q 88 58 96 39 q 84 100 80 76 l 83 94 l 83 907 m 75 1142 q 106 1219 75 1187 q 183 1251 138 1251 q 259 1219 228 1251 q 290 1142 290 1187 q 259 1066 290 1097 q 183 1035 228 1035 q 106 1066 138 1035 q 75 1142 75 1097 z "},"¿":{"ha":894,"x_min":-8,"x_max":773,"o":"m 540 692 q 529 628 540 651 q 501 594 518 605 q 461 581 484 583 q 414 576 438 578 q 405 576 410 576 q 396 575 400 575 q 336 555 370 570 q 270 515 301 541 q 217 452 239 490 q 195 364 195 415 q 206 307 195 335 q 239 256 217 278 q 296 218 262 233 q 376 201 330 204 q 503 243 453 198 q 578 362 553 288 l 578 361 q 612 407 589 392 q 665 422 636 422 q 708 413 686 422 q 745 388 730 404 q 766 349 760 372 q 765 297 773 326 q 621 75 723 152 q 380 -1 519 -1 q 213 35 285 3 q 93 119 141 68 q 20 234 45 170 q -7 365 -5 298 q 8 471 -8 410 q 63 591 23 532 q 170 701 103 651 q 339 773 237 750 l 339 849 q 372 917 339 892 q 442 941 404 941 q 511 919 482 941 q 540 849 540 897 l 540 692 m 331 1137 q 340 1178 331 1158 q 364 1213 349 1198 q 398 1236 378 1227 q 439 1245 418 1245 q 482 1236 463 1245 q 517 1213 502 1227 q 540 1178 532 1198 q 548 1137 548 1158 q 517 1059 548 1091 q 439 1028 486 1028 q 398 1036 418 1028 q 364 1059 378 1044 q 340 1094 349 1074 q 331 1137 331 1114 z "},"−":{"ha":694,"x_min":57,"x_max":643,"o":"m 155 476 q 81 507 104 476 q 57 576 57 538 q 81 644 57 613 q 153 678 106 675 l 551 678 q 621 647 600 678 q 643 579 643 616 q 636 539 643 559 q 617 505 629 519 q 586 482 605 490 q 543 477 567 475 l 551 476 l 155 476 z "},"÷":{"ha":751,"x_min":75,"x_max":659,"o":"m 490 288 q 457 210 490 243 q 380 178 425 178 q 304 210 335 178 q 273 288 273 243 q 304 363 273 332 q 380 395 335 395 q 457 363 425 395 q 490 288 490 332 m 477 865 q 445 789 477 821 q 368 757 412 757 q 292 789 323 757 q 260 865 260 821 q 292 941 260 910 q 368 972 323 972 q 445 941 412 972 q 477 865 477 910 m 171 476 q 98 507 121 476 q 75 576 75 538 q 98 644 75 613 q 170 678 122 675 l 567 678 q 637 647 616 678 q 659 579 659 616 q 652 539 659 559 q 633 505 646 519 q 603 482 621 490 q 560 477 585 475 l 567 476 l 171 476 z "},"¨":{"ha":564,"x_min":49,"x_max":518,"o":"m 266 1177 q 257 1136 266 1156 q 233 1101 248 1116 q 199 1078 218 1086 q 157 1069 179 1069 q 115 1078 134 1069 q 80 1101 95 1086 q 57 1136 65 1116 q 49 1177 49 1156 q 80 1255 49 1223 q 157 1286 111 1286 q 199 1278 179 1286 q 233 1255 218 1270 q 257 1220 248 1240 q 266 1177 266 1200 m 518 1177 q 509 1136 518 1156 q 486 1101 500 1116 q 451 1078 471 1086 q 410 1069 431 1069 q 367 1078 387 1069 q 332 1101 347 1086 q 309 1136 317 1116 q 301 1177 301 1156 q 332 1255 301 1223 q 410 1286 363 1286 q 451 1278 431 1286 q 486 1255 471 1270 q 509 1220 500 1240 q 518 1177 518 1200 z "},"~":{"ha":798,"x_min":121,"x_max":708,"o":"m 311 476 q 277 426 301 442 q 224 410 252 410 q 184 418 203 410 q 151 442 165 427 q 128 477 136 457 q 125 521 121 498 q 153 597 134 563 q 199 653 172 631 q 256 687 225 675 q 323 697 288 699 q 376 687 353 696 q 420 666 400 678 q 455 640 439 654 q 484 612 471 625 q 501 593 492 602 q 513 583 510 583 q 513 616 509 590 q 545 675 519 655 q 604 694 570 694 q 644 687 624 694 q 680 664 665 680 q 701 626 694 648 q 703 575 708 604 q 682 510 694 540 q 648 456 669 480 q 596 418 627 433 q 525 403 566 404 l 526 403 q 465 409 491 401 q 418 429 438 416 q 382 457 397 441 q 353 488 366 473 q 334 508 342 499 q 319 514 326 517 q 312 477 321 514 l 311 476 z "},"˜":{"ha":643,"x_min":49,"x_max":636,"o":"m 239 1135 q 205 1085 229 1101 q 152 1069 180 1069 q 113 1078 132 1069 q 79 1101 94 1086 q 56 1137 64 1116 q 53 1180 49 1157 q 81 1256 62 1222 q 127 1312 100 1290 q 184 1346 153 1335 q 251 1356 216 1358 q 304 1346 281 1355 q 348 1325 328 1337 q 383 1299 368 1313 q 412 1271 399 1284 q 429 1252 420 1261 q 441 1242 438 1242 q 441 1275 437 1249 q 473 1334 448 1314 q 532 1354 498 1354 q 572 1346 552 1354 q 608 1323 593 1339 q 629 1285 623 1308 q 631 1234 636 1263 q 610 1169 623 1199 q 576 1116 597 1139 q 524 1078 555 1092 q 453 1062 494 1063 l 454 1062 q 393 1068 419 1061 q 346 1088 366 1076 q 310 1116 326 1100 q 281 1147 294 1133 q 262 1167 270 1158 q 247 1173 254 1176 q 240 1137 250 1173 l 239 1135 z "},"{":{"ha":557,"x_min":56,"x_max":510,"o":"m 359 663 q 360 606 363 631 q 324 557 357 582 q 358 519 349 538 q 368 476 368 499 q 361 438 368 454 q 349 410 355 422 q 325 340 334 381 q 316 254 316 298 q 323 176 316 214 q 344 107 330 138 q 380 54 358 76 q 435 27 403 33 q 492 -8 475 20 q 510 -68 510 -37 q 502 -109 510 -88 q 479 -143 494 -129 q 444 -164 464 -157 q 397 -165 423 -171 q 273 -105 324 -146 q 189 -8 221 -64 q 142 113 157 47 q 127 244 127 178 q 133 339 127 293 q 149 429 138 385 q 135 437 142 433 q 121 446 127 442 q 71 498 85 469 q 56 559 56 528 q 73 620 56 590 q 122 669 90 650 l 121 669 q 133 676 129 674 q 139 680 137 678 q 145 683 141 681 q 157 690 149 685 q 145 792 151 742 q 140 886 140 842 q 151 1000 140 945 q 189 1101 161 1054 q 264 1186 217 1147 q 384 1253 311 1225 q 433 1254 410 1260 q 473 1233 456 1248 q 499 1197 490 1218 q 509 1156 509 1176 q 496 1107 509 1130 q 454 1073 483 1084 q 357 994 381 1042 q 332 887 332 945 q 337 813 332 852 q 349 735 342 774 q 354 707 351 722 q 358 677 357 692 q 359 670 358 674 q 359 663 359 666 z "},"}":{"ha":583,"x_min":56,"x_max":510,"o":"m 206 663 q 207 670 206 666 q 208 677 208 674 q 212 707 209 692 q 217 735 214 722 q 229 813 224 774 q 233 887 233 852 q 209 994 233 945 q 111 1073 184 1042 q 70 1107 83 1084 q 57 1156 57 1130 q 66 1197 57 1176 q 93 1233 76 1218 q 132 1254 110 1248 q 182 1253 155 1260 q 302 1186 255 1225 q 376 1101 349 1147 q 415 1000 404 1054 q 426 886 426 945 q 420 792 426 842 q 408 690 415 742 q 420 683 416 685 q 427 680 425 681 q 433 676 429 678 q 445 669 437 674 l 444 669 q 493 620 476 650 q 510 559 510 590 q 495 498 510 528 q 445 446 480 469 q 431 437 438 442 q 416 429 423 433 q 433 339 427 385 q 438 244 438 293 q 423 113 438 178 q 376 -8 408 47 q 293 -105 345 -64 q 168 -165 241 -146 q 122 -164 142 -171 q 87 -143 102 -157 q 64 -109 72 -129 q 56 -68 56 -88 q 73 -8 56 -37 q 130 27 91 20 q 185 54 163 33 q 222 107 208 76 q 243 176 236 138 q 250 254 250 214 q 241 340 250 298 q 217 410 232 381 q 204 438 210 422 q 198 476 198 454 q 208 519 198 499 q 241 557 217 538 q 205 606 209 582 q 206 663 202 631 z "},"ß":{"ha":968,"x_min":73,"x_max":914,"o":"m 274 -3 q 239 -68 270 -46 q 174 -91 209 -91 q 109 -67 137 -91 q 77 4 80 -43 q 77 200 77 91 q 75 422 76 309 q 74 644 75 534 q 73 840 73 753 q 106 1008 73 936 q 193 1128 138 1080 q 317 1202 247 1176 q 465 1232 388 1227 q 608 1208 541 1232 q 724 1144 674 1184 q 802 1051 773 1104 q 830 940 830 998 q 798 812 830 876 q 693 688 765 747 q 802 608 760 651 q 870 519 845 566 q 905 423 895 472 q 914 326 914 374 q 897 227 914 275 q 844 138 879 179 q 758 66 810 98 q 637 19 707 35 q 575 7 605 12 q 515 1 545 3 q 451 1 484 -1 q 378 11 418 4 q 326 48 342 20 q 309 109 309 76 q 315 148 309 129 q 334 180 321 167 q 363 201 346 194 q 400 205 380 208 q 488 195 448 198 q 585 205 529 193 q 685 254 652 222 q 719 319 718 285 q 693 441 720 391 q 618 519 666 491 q 509 555 571 548 q 378 547 446 562 q 342 551 358 543 q 313 574 326 559 q 295 609 301 589 q 289 650 289 629 q 309 716 289 686 q 370 749 330 746 q 433 757 407 751 q 482 772 460 762 q 525 798 505 783 q 571 833 545 812 q 629 928 629 882 q 616 971 629 951 q 581 1006 604 991 q 528 1030 559 1021 q 463 1038 498 1039 q 393 1025 427 1036 q 331 991 358 1015 q 288 932 304 968 q 271 844 271 897 l 274 -3 z "},"Þ":{"ha":981,"x_min":43,"x_max":926,"o":"m 255 -115 q 226 -188 256 -163 q 153 -213 195 -213 q 113 -207 133 -213 q 78 -190 94 -201 q 53 -162 62 -179 q 43 -122 43 -145 l 43 1107 q 79 1181 46 1156 q 151 1207 111 1207 q 222 1182 190 1207 q 255 1105 255 1157 l 255 960 q 356 1001 302 987 q 461 1015 410 1015 q 664 973 576 1019 q 810 852 751 928 q 897 679 868 776 q 926 481 926 582 q 897 297 926 387 q 811 138 868 208 q 671 28 754 69 q 477 -9 587 -12 q 365 9 422 -9 q 255 65 308 28 l 255 -115 m 481 199 q 581 223 538 199 q 650 286 623 247 q 692 376 678 326 q 707 480 707 426 q 692 600 707 541 q 646 705 677 659 q 569 779 614 751 q 463 802 524 806 q 347 764 403 799 q 255 652 292 730 l 255 381 q 299 307 273 340 q 357 250 326 273 q 420 213 388 227 q 481 199 453 199 z "},"þ":{"ha":970,"x_min":71,"x_max":911,"o":"m 271 -54 q 244 -125 274 -102 q 175 -148 214 -148 q 138 -142 156 -148 q 104 -126 119 -137 q 80 -99 90 -115 q 71 -61 71 -83 l 71 1141 q 104 1212 73 1188 q 172 1236 136 1236 q 241 1213 210 1236 q 271 1139 271 1190 l 271 989 q 369 1027 319 1016 q 468 1040 419 1039 q 661 1000 578 1043 q 800 885 745 958 q 884 720 856 812 q 911 533 911 628 q 884 356 911 442 q 803 204 857 270 q 669 100 749 138 q 484 64 590 61 q 378 82 433 64 q 271 136 323 100 l 271 -54 m 271 435 q 313 364 288 396 q 369 310 339 332 q 429 275 399 288 q 487 263 460 263 q 581 285 541 263 q 648 344 621 307 q 688 429 674 381 q 703 529 701 477 q 690 644 704 587 q 646 744 675 700 q 572 814 616 788 q 469 837 528 840 q 360 801 414 834 q 271 694 307 768 l 271 435 z "},"±":{"ha":876,"x_min":119,"x_max":773,"o":"m 544 724 l 680 724 q 750 693 728 724 q 772 624 772 662 q 765 584 772 604 q 746 550 758 564 q 715 528 734 536 q 671 524 696 519 l 680 522 l 544 522 l 544 391 q 513 317 544 340 q 445 294 481 294 q 376 318 408 294 q 342 389 345 342 l 342 522 l 217 522 q 143 553 167 522 q 119 621 119 585 q 144 690 119 658 q 216 724 168 722 l 342 724 l 342 853 q 373 924 342 902 q 442 945 404 945 q 482 939 463 945 q 516 920 502 932 q 538 888 530 907 q 543 845 547 869 l 544 853 l 544 724 m 218 189 q 146 220 170 189 q 122 288 122 251 q 146 356 122 324 q 217 391 170 388 l 682 391 q 751 359 730 391 q 773 290 773 328 q 766 250 773 270 q 747 216 760 231 q 717 194 735 202 q 674 190 699 186 l 682 189 l 218 189 z "},"¸":{"ha":438,"x_min":88,"x_max":377,"o":"m 163 -381 q 110 -347 129 -376 q 91 -288 91 -319 q 111 -225 91 -251 q 179 -203 132 -199 q 136 -183 153 -198 q 108 -148 118 -168 q 93 -104 98 -127 q 88 -58 88 -81 q 89 -33 88 -45 q 91 -15 90 -22 q 124 52 94 31 q 186 73 155 73 q 251 48 222 73 q 275 -22 279 23 l 275 -43 q 351 -111 326 -65 q 377 -209 377 -157 q 366 -273 377 -241 q 334 -330 355 -305 q 281 -370 313 -355 q 205 -385 248 -385 q 182 -385 194 -385 q 160 -381 171 -384 l 163 -381 z "},"°":{"ha":431,"x_min":62,"x_max":382,"o":"m 202 963 q 208 948 202 955 q 222 941 214 941 q 238 948 232 941 q 244 963 244 955 q 222 983 244 983 q 208 978 214 983 q 202 963 202 972 m 382 962 q 370 899 382 929 q 335 848 357 869 q 283 813 313 826 q 221 800 254 800 q 159 813 189 800 q 109 848 130 826 q 75 899 87 869 q 62 962 62 929 q 75 1023 62 994 q 109 1074 87 1053 q 159 1108 130 1096 q 221 1120 189 1120 q 283 1108 254 1120 q 335 1074 313 1096 q 370 1023 357 1053 q 382 962 382 994 z "},"¢":{"ha":926,"x_min":61,"x_max":878,"o":"m 377 77 q 235 138 296 94 q 136 247 175 183 q 79 387 98 311 q 62 545 61 464 q 83 701 64 624 q 142 842 103 777 q 241 956 182 907 q 377 1028 300 1005 q 408 1099 377 1076 q 476 1122 439 1122 q 541 1100 511 1122 q 578 1035 571 1078 q 672 995 628 1023 q 750 927 716 967 q 806 837 784 887 q 836 728 827 787 q 804 643 836 671 q 734 614 773 614 q 671 636 701 614 q 633 701 642 658 q 612 764 627 734 q 579 812 597 793 l 579 293 q 635 347 610 312 q 675 438 661 382 q 713 505 684 483 q 777 526 742 526 q 847 498 817 526 q 878 414 878 471 q 833 283 863 340 q 765 185 804 227 q 677 117 726 144 q 579 79 629 91 l 579 60 q 548 -9 579 12 q 479 -31 517 -31 q 439 -24 458 -31 q 404 -5 419 -18 q 382 25 389 7 q 377 68 374 43 l 377 60 l 377 77 m 271 538 q 298 399 273 465 q 377 298 324 334 l 377 802 q 332 751 353 781 q 298 686 312 722 q 278 613 285 651 q 271 538 271 575 z "},"£":{"ha":1078,"x_min":72,"x_max":1002,"o":"m 340 -1 q 300 1 320 -1 q 264 12 281 3 q 237 41 248 22 q 225 92 227 60 q 224 176 224 133 q 224 254 224 218 l 224 480 q 225 541 225 509 q 225 602 225 572 l 168 602 q 95 633 118 602 q 72 701 72 663 q 96 770 72 738 q 167 804 119 802 l 232 804 q 264 970 240 892 q 334 1108 288 1048 q 452 1204 380 1168 q 628 1244 524 1240 q 755 1225 692 1244 q 869 1171 818 1206 q 956 1088 921 1137 q 1002 979 991 1040 q 993 932 1002 952 q 968 898 983 911 q 935 878 954 884 q 898 871 916 871 q 835 890 863 871 q 800 945 807 910 q 738 1022 785 1000 q 635 1043 690 1044 q 544 1021 581 1042 q 484 966 507 1000 q 450 890 461 933 q 433 804 438 848 l 823 804 q 894 773 872 804 q 916 704 916 742 q 909 664 916 684 q 890 629 902 644 q 859 607 878 614 q 815 602 840 600 l 823 602 l 427 602 l 427 201 l 906 201 q 977 170 955 201 q 998 100 998 138 q 991 60 998 80 q 972 26 985 41 q 941 4 960 12 q 898 0 922 -4 l 906 -1 l 340 -1 z "},"¯":{"ha":696,"x_min":64,"x_max":650,"o":"m 160 1055 q 87 1086 110 1055 q 64 1154 64 1116 q 87 1223 64 1191 q 159 1257 111 1255 l 557 1257 q 627 1226 605 1257 q 650 1157 650 1195 q 643 1117 650 1137 q 624 1083 636 1097 q 593 1061 612 1069 q 549 1057 574 1053 l 557 1055 l 160 1055 z "},"¥":{"ha":1055,"x_min":56,"x_max":998,"o":"m 623 117 l 623 75 q 591 4 623 26 q 522 -18 560 -18 q 482 -11 502 -18 q 448 8 463 -4 q 426 39 434 20 q 422 83 418 58 l 420 75 l 420 117 l 300 117 q 227 147 251 117 q 203 216 203 178 q 227 284 203 252 q 298 319 251 316 l 420 319 l 420 346 l 300 346 q 227 376 251 346 q 203 445 203 407 q 227 513 203 481 q 298 548 251 545 l 373 548 q 220 823 296 686 q 69 1100 145 960 q 60 1156 56 1130 q 79 1200 64 1181 q 117 1229 95 1218 q 164 1240 140 1240 q 214 1227 191 1240 q 250 1188 236 1215 q 320 1065 288 1123 q 385 951 353 1008 q 451 836 418 895 q 522 709 484 777 q 663 950 593 830 q 802 1191 732 1070 l 798 1185 q 836 1229 811 1215 q 888 1242 861 1242 q 936 1232 913 1242 q 974 1202 959 1221 q 994 1158 989 1183 q 985 1103 998 1133 l 671 548 l 764 548 q 833 517 811 548 q 854 448 854 486 q 848 408 854 427 q 829 373 841 388 q 798 351 817 358 q 755 346 780 343 l 764 346 l 623 346 l 623 319 l 764 319 q 833 288 811 319 q 854 218 854 256 q 848 178 854 198 q 829 144 841 159 q 798 121 817 129 q 755 117 780 114 l 764 117 l 623 117 z "},"¬":{"ha":945,"x_min":80,"x_max":875,"o":"m 875 279 q 844 206 875 229 q 774 183 812 183 q 707 207 738 183 q 673 278 675 231 l 673 476 l 178 476 q 104 507 127 476 q 80 576 80 538 q 104 644 80 613 q 176 678 129 675 l 751 678 q 846 645 818 678 q 875 525 875 612 l 875 279 z "},"©":{"ha":1126,"x_min":62,"x_max":1072,"o":"m 799 709 q 790 674 799 690 q 767 647 781 658 q 736 630 753 636 q 704 624 720 624 q 659 636 678 624 q 632 678 639 648 q 609 729 625 708 q 572 750 593 750 q 534 736 551 750 q 507 702 518 723 q 491 654 496 681 q 486 600 486 628 q 490 547 486 572 q 505 503 495 522 q 531 471 515 483 q 567 460 547 460 q 617 478 590 460 q 655 540 644 496 q 679 585 659 571 q 726 598 699 598 q 758 591 741 598 q 789 572 774 585 q 812 542 803 559 q 822 505 822 525 q 784 412 811 452 q 722 345 757 372 q 648 303 688 317 q 575 289 609 289 q 460 315 509 289 q 379 383 411 340 q 332 481 347 426 q 316 597 316 537 q 333 718 316 658 q 383 823 350 777 q 465 896 416 868 q 575 922 513 924 q 651 904 613 921 q 720 859 689 887 q 772 793 751 830 q 799 715 793 755 l 799 709 m 572 0 q 379 46 468 0 q 224 168 290 92 q 116 338 157 243 q 65 533 75 434 l 65 532 q 63 565 64 548 q 62 601 62 582 q 98 818 62 709 q 199 1013 133 926 q 360 1153 266 1099 q 571 1207 454 1207 q 779 1152 686 1207 q 936 1008 871 1097 q 1036 810 1001 920 q 1070 590 1072 700 q 1033 378 1069 483 q 932 189 997 273 q 775 52 867 104 q 572 0 684 0 m 570 189 q 690 225 635 189 q 785 319 745 262 q 848 448 825 377 q 871 587 871 518 q 848 743 871 666 q 786 880 826 819 q 690 977 746 940 q 570 1015 635 1015 q 446 977 502 1015 q 347 879 389 939 q 282 745 305 819 q 259 601 259 671 q 259 581 259 590 q 260 562 259 571 q 294 432 267 498 q 362 312 321 366 q 456 223 403 258 q 570 189 510 189 z "},"·":{"ha":311,"x_min":46,"x_max":263,"o":"m 263 521 q 254 478 263 498 q 231 444 245 458 q 196 421 216 430 q 155 412 176 412 q 77 444 109 412 q 46 521 46 476 q 77 597 46 566 q 155 628 109 628 q 231 597 198 628 q 263 521 263 566 z "},"Á":{"ha":1154,"x_min":35,"x_max":1116,"o":"m 435 1150 q 484 1221 450 1198 q 557 1244 518 1244 q 629 1221 595 1244 q 681 1158 662 1199 l 1104 140 q 1111 83 1116 110 q 1090 37 1105 57 q 1051 6 1074 18 q 1004 -5 1028 -5 q 950 9 975 -5 q 910 54 925 24 q 851 195 879 130 q 791 338 823 260 l 355 338 q 298 195 327 266 q 243 53 270 123 q 204 7 229 22 q 151 -8 179 -8 q 102 3 126 -8 q 62 33 79 14 q 41 77 46 52 q 47 133 35 103 l 435 1150 m 435 549 l 701 549 q 667 634 682 594 q 637 716 652 674 q 604 804 621 758 q 563 907 587 850 l 435 549 m 617 1326 q 582 1291 602 1301 q 540 1280 562 1280 q 494 1295 517 1280 q 456 1331 471 1309 q 437 1379 441 1352 q 450 1428 434 1405 q 481 1478 465 1453 q 513 1529 498 1504 q 549 1563 529 1552 q 591 1573 570 1573 q 636 1561 614 1573 q 672 1529 658 1549 q 691 1485 686 1510 q 684 1432 696 1459 l 617 1326 z "},"Ă":{"ha":1154,"x_min":35,"x_max":1116,"o":"m 435 1150 q 484 1221 450 1198 q 557 1244 518 1244 q 629 1221 595 1244 q 681 1158 662 1199 l 1104 140 q 1111 83 1116 110 q 1090 37 1105 57 q 1051 6 1074 18 q 1004 -5 1028 -5 q 950 9 975 -5 q 910 54 925 24 q 851 195 879 130 q 791 338 823 260 l 355 338 q 298 195 327 266 q 243 53 270 123 q 204 7 229 22 q 151 -8 179 -8 q 102 3 126 -8 q 62 33 79 14 q 41 77 46 52 q 47 133 35 103 l 435 1150 m 435 549 l 701 549 q 667 634 682 594 q 637 716 652 674 q 604 804 621 758 q 563 907 587 850 l 435 549 m 530 1496 q 572 1470 547 1470 q 600 1480 587 1470 q 625 1503 613 1489 q 701 1540 663 1542 q 762 1512 738 1538 q 793 1447 787 1487 q 774 1374 799 1408 q 679 1303 731 1325 q 575 1280 627 1280 q 458 1310 511 1280 q 372 1388 404 1339 q 354 1444 353 1417 q 370 1493 355 1472 q 407 1527 384 1514 q 454 1539 430 1539 q 496 1529 476 1539 q 532 1496 517 1519 l 530 1496 m 783 1383 q 774 1374 781 1378 q 783 1383 781 1381 z "},"Â":{"ha":1154,"x_min":35,"x_max":1116,"o":"m 435 1150 q 484 1221 450 1198 q 557 1244 518 1244 q 629 1221 595 1244 q 681 1158 662 1199 l 1104 140 q 1111 83 1116 110 q 1090 37 1105 57 q 1051 6 1074 18 q 1004 -5 1028 -5 q 950 9 975 -5 q 910 54 925 24 q 851 195 879 130 q 791 338 823 260 l 355 338 q 298 195 327 266 q 243 53 270 123 q 204 7 229 22 q 151 -8 179 -8 q 102 3 126 -8 q 62 33 79 14 q 41 77 46 52 q 47 133 35 103 l 435 1150 m 435 549 l 701 549 q 667 634 682 594 q 637 716 652 674 q 604 804 621 758 q 563 907 587 850 l 435 549 m 454 1283 q 416 1259 437 1261 q 375 1265 395 1256 q 339 1291 355 1274 q 313 1328 323 1309 q 304 1366 304 1347 q 319 1396 305 1385 l 458 1523 q 559 1568 509 1568 q 612 1556 587 1568 q 661 1523 636 1545 l 780 1413 q 802 1348 810 1382 q 770 1290 793 1314 q 716 1257 746 1265 q 673 1267 686 1248 q 614 1321 647 1290 q 555 1375 581 1352 l 454 1283 z "},"À":{"ha":1154,"x_min":35,"x_max":1116,"o":"m 435 1150 q 484 1221 450 1198 q 557 1244 518 1244 q 629 1221 595 1244 q 681 1158 662 1199 l 1104 140 q 1111 83 1116 110 q 1090 37 1105 57 q 1051 6 1074 18 q 1004 -5 1028 -5 q 950 9 975 -5 q 910 54 925 24 q 851 195 879 130 q 791 338 823 260 l 355 338 q 298 195 327 266 q 243 53 270 123 q 204 7 229 22 q 151 -8 179 -8 q 102 3 126 -8 q 62 33 79 14 q 41 77 46 52 q 47 133 35 103 l 435 1150 m 435 549 l 701 549 q 667 634 682 594 q 637 716 652 674 q 604 804 621 758 q 563 907 587 850 l 435 549 m 460 1444 q 452 1495 448 1470 q 470 1539 456 1520 q 507 1571 484 1558 q 552 1583 529 1583 q 595 1572 574 1583 q 632 1538 616 1561 l 694 1438 q 706 1388 709 1415 q 688 1340 703 1362 q 651 1304 674 1318 q 605 1290 628 1290 q 562 1300 582 1290 q 528 1336 541 1310 l 530 1333 q 497 1385 514 1359 q 464 1436 480 1411 l 460 1444 z "},"Ä":{"ha":1154,"x_min":35,"x_max":1116,"o":"m 435 1150 q 484 1221 450 1198 q 557 1244 518 1244 q 629 1221 595 1244 q 681 1158 662 1199 l 1104 140 q 1111 83 1116 110 q 1090 37 1105 57 q 1051 6 1074 18 q 1004 -5 1028 -5 q 950 9 975 -5 q 910 54 925 24 q 851 195 879 130 q 791 338 823 260 l 355 338 q 298 195 327 266 q 243 53 270 123 q 204 7 229 22 q 151 -8 179 -8 q 102 3 126 -8 q 62 33 79 14 q 41 77 46 52 q 47 133 35 103 l 435 1150 m 435 549 l 701 549 q 667 634 682 594 q 637 716 652 674 q 604 804 621 758 q 563 907 587 850 l 435 549 m 562 1388 q 553 1346 562 1366 q 529 1312 544 1326 q 494 1288 514 1297 q 453 1279 475 1279 q 410 1288 430 1279 q 376 1312 391 1297 q 353 1346 361 1326 q 345 1388 345 1366 q 376 1465 345 1434 q 453 1496 407 1496 q 494 1488 475 1496 q 529 1465 514 1480 q 553 1430 544 1450 q 562 1388 562 1411 m 814 1388 q 805 1346 814 1366 q 781 1312 796 1326 q 747 1288 766 1297 q 705 1279 727 1279 q 663 1288 682 1279 q 628 1312 643 1297 q 605 1346 613 1326 q 597 1388 597 1366 q 628 1465 597 1434 q 705 1496 659 1496 q 747 1488 727 1496 q 781 1465 766 1480 q 805 1430 796 1450 q 814 1388 814 1411 z "},"Ā":{"ha":1154,"x_min":35,"x_max":1116,"o":"m 435 1150 q 484 1221 450 1198 q 557 1244 518 1244 q 629 1221 595 1244 q 681 1158 662 1199 l 1104 140 q 1111 83 1116 110 q 1090 37 1105 57 q 1051 6 1074 18 q 1004 -5 1028 -5 q 950 9 975 -5 q 910 54 925 24 q 851 195 879 130 q 791 338 823 260 l 355 338 q 298 195 327 266 q 243 53 270 123 q 204 7 229 22 q 151 -8 179 -8 q 102 3 126 -8 q 62 33 79 14 q 41 77 46 52 q 47 133 35 103 l 435 1150 m 435 549 l 701 549 q 667 634 682 594 q 637 716 652 674 q 604 804 621 758 q 563 907 587 850 l 435 549 m 342 1283 q 269 1314 292 1283 q 245 1382 245 1344 q 269 1451 245 1419 q 340 1485 293 1482 l 739 1485 q 809 1454 787 1485 q 831 1385 831 1423 q 825 1345 831 1364 q 806 1311 818 1325 q 774 1289 793 1297 q 731 1284 755 1280 l 739 1283 l 342 1283 z "},"Ą":{"ha":1154,"x_min":35,"x_max":1120,"o":"m 907 -184 q 869 -116 880 -152 q 857 -42 857 -80 q 867 28 857 -7 q 895 91 878 62 q 844 212 868 155 q 791 338 819 269 l 355 338 q 298 195 327 266 q 243 53 270 123 q 204 7 229 22 q 151 -8 179 -8 q 102 3 126 -8 q 62 33 79 14 q 41 77 46 52 q 47 133 35 103 l 435 1150 q 484 1221 450 1198 q 557 1244 518 1244 q 629 1221 595 1244 q 681 1158 662 1199 l 1104 140 q 1104 62 1120 96 q 1057 8 1088 27 q 1048 -15 1051 -3 q 1044 -38 1044 -27 q 1054 -57 1044 -49 q 1093 -113 1088 -84 q 1082 -165 1097 -141 q 1040 -203 1067 -189 q 981 -218 1012 -218 q 942 -211 960 -218 q 909 -186 924 -203 l 907 -184 m 435 549 l 701 549 q 667 634 682 594 q 637 716 652 674 q 604 804 621 758 q 563 907 587 850 l 435 549 z "},"Å":{"ha":1154,"x_min":35,"x_max":1116,"o":"m 435 1150 q 484 1221 450 1198 q 557 1244 518 1244 q 629 1221 595 1244 q 681 1158 662 1199 l 1104 140 q 1111 83 1116 110 q 1090 37 1105 57 q 1051 6 1074 18 q 1004 -5 1028 -5 q 950 9 975 -5 q 910 54 925 24 q 851 195 879 130 q 791 338 823 260 l 355 338 q 298 195 327 266 q 243 53 270 123 q 204 7 229 22 q 151 -8 179 -8 q 102 3 126 -8 q 62 33 79 14 q 41 77 46 52 q 47 133 35 103 l 435 1150 m 435 549 l 701 549 q 667 634 682 594 q 637 716 652 674 q 604 804 621 758 q 563 907 587 850 l 435 549 m 553 1454 q 559 1440 553 1446 q 575 1434 566 1434 q 589 1440 583 1434 q 595 1454 595 1446 q 589 1470 595 1463 q 575 1476 583 1476 q 553 1454 553 1476 m 734 1453 q 721 1390 734 1420 q 686 1339 708 1360 q 635 1304 665 1317 q 574 1291 606 1291 q 511 1304 540 1291 q 460 1339 481 1317 q 427 1390 439 1360 q 415 1453 415 1420 q 427 1514 415 1485 q 460 1565 439 1544 q 511 1599 481 1587 q 574 1611 540 1611 q 635 1599 606 1611 q 686 1565 665 1587 q 721 1514 708 1544 q 734 1453 734 1485 z "},"Ã":{"ha":1154,"x_min":35,"x_max":1116,"o":"m 435 1150 q 484 1221 450 1198 q 557 1244 518 1244 q 629 1221 595 1244 q 681 1158 662 1199 l 1104 140 q 1111 83 1116 110 q 1090 37 1105 57 q 1051 6 1074 18 q 1004 -5 1028 -5 q 950 9 975 -5 q 910 54 925 24 q 851 195 879 130 q 791 338 823 260 l 355 338 q 298 195 327 266 q 243 53 270 123 q 204 7 229 22 q 151 -8 179 -8 q 102 3 126 -8 q 62 33 79 14 q 41 77 46 52 q 47 133 35 103 l 435 1150 m 435 549 l 701 549 q 667 634 682 594 q 637 716 652 674 q 604 804 621 758 q 563 907 587 850 l 435 549 m 491 1360 q 457 1310 481 1326 q 404 1294 433 1294 q 365 1303 384 1294 q 331 1326 346 1312 q 309 1362 316 1341 q 305 1405 301 1382 q 334 1481 315 1447 q 379 1537 353 1515 q 437 1571 406 1560 q 503 1581 468 1583 q 557 1571 533 1580 q 600 1550 581 1563 q 635 1524 620 1538 q 665 1496 651 1510 q 682 1477 673 1487 q 693 1468 690 1468 q 693 1500 689 1474 q 725 1559 700 1539 q 784 1579 750 1579 q 825 1571 804 1579 q 860 1548 845 1564 q 882 1510 875 1533 q 883 1459 888 1488 q 862 1394 875 1424 q 828 1341 849 1364 q 777 1303 807 1317 q 705 1287 746 1289 l 707 1287 q 645 1293 671 1286 q 598 1313 618 1301 q 562 1341 578 1325 q 533 1373 547 1358 q 514 1392 522 1383 q 499 1398 506 1401 q 492 1362 502 1398 l 491 1360 z "},"Æ":{"ha":1600,"x_min":75,"x_max":1529,"o":"m 802 -1 q 706 22 741 -1 q 671 117 671 46 l 671 339 q 557 340 610 340 q 435 340 503 339 q 354 193 395 266 q 271 47 313 121 q 228 7 252 19 q 179 -4 203 -4 q 129 7 152 -4 q 92 39 106 19 q 76 87 77 60 q 92 146 75 115 q 230 395 159 264 q 372 657 301 525 q 515 920 444 789 q 654 1169 586 1051 l 651 1165 q 703 1225 670 1200 q 784 1249 735 1249 l 1432 1249 q 1506 1217 1484 1249 q 1529 1145 1529 1184 q 1522 1103 1529 1123 q 1501 1067 1515 1082 q 1469 1043 1488 1051 q 1424 1039 1450 1035 l 1432 1038 l 884 1038 l 884 726 l 1335 726 q 1409 693 1386 726 q 1431 621 1431 661 q 1424 579 1431 600 q 1404 543 1417 559 q 1371 519 1390 528 q 1326 515 1352 511 l 1335 514 l 884 514 l 884 210 l 1430 210 q 1503 178 1481 210 q 1526 106 1526 145 q 1519 64 1526 84 q 1499 28 1512 43 q 1466 4 1485 12 q 1421 0 1447 -4 l 1430 -1 l 802 -1 m 671 549 l 671 793 l 556 552 l 671 549 z "},"Ǽ":{"ha":1600,"x_min":75,"x_max":1529,"o":"m 802 -1 q 706 22 741 -1 q 671 117 671 46 l 671 339 q 557 340 610 340 q 435 340 503 339 q 354 193 395 266 q 271 47 313 121 q 228 7 252 19 q 179 -4 203 -4 q 129 7 152 -4 q 92 39 106 19 q 76 87 77 60 q 92 146 75 115 q 230 395 159 264 q 372 657 301 525 q 515 920 444 789 q 654 1169 586 1051 l 651 1165 q 703 1225 670 1200 q 784 1249 735 1249 l 1432 1249 q 1506 1217 1484 1249 q 1529 1145 1529 1184 q 1522 1103 1529 1123 q 1501 1067 1515 1082 q 1469 1043 1488 1051 q 1424 1039 1450 1035 l 1432 1038 l 884 1038 l 884 726 l 1335 726 q 1409 693 1386 726 q 1431 621 1431 661 q 1424 579 1431 600 q 1404 543 1417 559 q 1371 519 1390 528 q 1326 515 1352 511 l 1335 514 l 884 514 l 884 210 l 1430 210 q 1503 178 1481 210 q 1526 106 1526 145 q 1519 64 1526 84 q 1499 28 1512 43 q 1466 4 1485 12 q 1421 0 1447 -4 l 1430 -1 l 802 -1 m 671 549 l 671 793 l 556 552 l 671 549 m 1043 1359 q 1008 1323 1028 1333 q 966 1313 987 1313 q 920 1327 943 1313 q 882 1363 897 1341 q 863 1411 867 1385 q 876 1461 860 1438 q 907 1511 891 1485 q 939 1561 924 1537 q 975 1595 955 1584 q 1017 1606 996 1606 q 1062 1594 1040 1606 q 1098 1562 1084 1581 q 1117 1517 1112 1542 q 1109 1465 1122 1492 l 1043 1359 z "},"Ć":{"ha":1008,"x_min":47,"x_max":983,"o":"m 967 921 q 962 876 971 898 q 937 838 954 854 q 898 810 920 821 q 854 800 876 800 q 800 816 825 800 q 762 868 774 831 q 720 949 746 917 q 663 1001 693 982 q 605 1028 633 1020 q 556 1036 576 1036 q 425 989 481 1034 q 332 878 369 945 q 275 730 294 811 q 256 572 256 650 q 269 454 256 518 q 312 335 282 391 q 390 241 342 279 q 510 202 438 203 q 589 213 549 201 q 662 251 628 225 q 724 315 696 277 q 768 406 751 354 q 807 473 777 450 q 872 496 837 496 q 913 488 892 496 q 951 463 935 479 q 975 424 967 446 q 978 374 983 401 q 884 176 940 250 q 763 62 827 102 q 631 10 699 22 q 505 -1 564 -1 q 305 46 391 0 q 163 169 220 92 q 77 346 106 245 q 47 559 47 446 q 63 720 47 639 q 109 878 79 802 q 182 1020 138 954 q 281 1136 225 1086 q 406 1213 338 1185 q 553 1241 473 1241 q 680 1217 616 1237 q 799 1158 743 1196 q 898 1062 854 1119 q 966 929 941 1005 l 967 921 m 604 1332 q 568 1296 589 1306 q 526 1286 548 1286 q 480 1300 503 1286 q 442 1336 457 1314 q 424 1384 427 1358 q 437 1434 420 1411 q 468 1484 452 1458 q 499 1534 484 1510 q 536 1568 515 1557 q 578 1579 556 1579 q 623 1567 601 1579 q 659 1535 644 1554 q 677 1490 673 1515 q 670 1438 682 1465 l 604 1332 z "},"Č":{"ha":1008,"x_min":47,"x_max":983,"o":"m 967 921 q 962 876 971 898 q 937 838 954 854 q 898 810 920 821 q 854 800 876 800 q 800 816 825 800 q 762 868 774 831 q 720 949 746 917 q 663 1001 693 982 q 605 1028 633 1020 q 556 1036 576 1036 q 425 989 481 1034 q 332 878 369 945 q 275 730 294 811 q 256 572 256 650 q 269 454 256 518 q 312 335 282 391 q 390 241 342 279 q 510 202 438 203 q 589 213 549 201 q 662 251 628 225 q 724 315 696 277 q 768 406 751 354 q 807 473 777 450 q 872 496 837 496 q 913 488 892 496 q 951 463 935 479 q 975 424 967 446 q 978 374 983 401 q 884 176 940 250 q 763 62 827 102 q 631 10 699 22 q 505 -1 564 -1 q 305 46 391 0 q 163 169 220 92 q 77 346 106 245 q 47 559 47 446 q 63 720 47 639 q 109 878 79 802 q 182 1020 138 954 q 281 1136 225 1086 q 406 1213 338 1185 q 553 1241 473 1241 q 680 1217 616 1237 q 799 1158 743 1196 q 898 1062 854 1119 q 966 929 941 1005 l 967 921 m 642 1584 q 680 1608 659 1605 q 721 1603 701 1611 q 757 1576 741 1594 q 783 1539 773 1558 q 791 1501 792 1520 q 777 1472 791 1482 l 623 1328 q 522 1283 572 1283 q 469 1295 494 1283 q 420 1328 445 1306 l 301 1438 q 279 1503 271 1469 q 311 1561 288 1537 q 365 1594 335 1586 q 408 1584 395 1603 q 467 1530 434 1561 q 526 1476 500 1499 l 642 1584 z "},"Ç":{"ha":1008,"x_min":47,"x_max":983,"o":"m 487 -381 q 434 -347 453 -376 q 415 -288 415 -319 q 435 -225 415 -251 q 503 -203 456 -199 q 460 -183 477 -198 q 432 -148 442 -168 q 417 -104 422 -127 q 412 -58 412 -81 q 413 -33 412 -45 q 415 -15 414 -22 q 419 7 415 -4 q 257 75 327 24 q 140 200 187 126 q 71 366 94 274 q 47 559 47 458 q 63 720 47 639 q 109 878 79 802 q 182 1020 138 954 q 281 1136 225 1086 q 406 1213 338 1185 q 553 1241 473 1241 q 680 1217 616 1237 q 799 1158 743 1196 q 898 1062 854 1119 q 966 929 941 1005 l 967 921 q 962 876 971 898 q 937 838 954 854 q 898 810 920 821 q 854 800 876 800 q 800 816 825 800 q 762 868 774 831 q 720 949 746 917 q 663 1001 693 982 q 605 1028 633 1020 q 556 1036 576 1036 q 425 989 481 1034 q 332 878 369 945 q 275 730 294 811 q 256 572 256 650 q 269 454 256 518 q 312 335 282 391 q 390 241 342 279 q 510 202 438 203 q 589 213 549 201 q 662 251 628 225 q 724 315 696 277 q 768 406 751 354 q 807 473 777 450 q 872 496 837 496 q 913 488 892 496 q 951 463 935 479 q 975 424 967 446 q 978 374 983 401 q 903 205 947 273 q 810 96 860 138 q 705 33 760 53 q 598 4 651 12 q 600 -9 600 -3 q 600 -22 600 -15 l 600 -43 q 675 -111 650 -65 q 701 -209 701 -157 q 690 -273 701 -241 q 659 -330 680 -305 q 605 -370 637 -355 q 529 -385 572 -385 q 507 -385 518 -385 q 484 -381 495 -384 l 487 -381 z "},"Ĉ":{"ha":1008,"x_min":47,"x_max":983,"o":"m 967 921 q 962 876 971 898 q 937 838 954 854 q 898 810 920 821 q 854 800 876 800 q 800 816 825 800 q 762 868 774 831 q 720 949 746 917 q 663 1001 693 982 q 605 1028 633 1020 q 556 1036 576 1036 q 425 989 481 1034 q 332 878 369 945 q 275 730 294 811 q 256 572 256 650 q 269 454 256 518 q 312 335 282 391 q 390 241 342 279 q 510 202 438 203 q 589 213 549 201 q 662 251 628 225 q 724 315 696 277 q 768 406 751 354 q 807 473 777 450 q 872 496 837 496 q 913 488 892 496 q 951 463 935 479 q 975 424 967 446 q 978 374 983 401 q 884 176 940 250 q 763 62 827 102 q 631 10 699 22 q 505 -1 564 -1 q 305 46 391 0 q 163 169 220 92 q 77 346 106 245 q 47 559 47 446 q 63 720 47 639 q 109 878 79 802 q 182 1020 138 954 q 281 1136 225 1086 q 406 1213 338 1185 q 553 1241 473 1241 q 680 1217 616 1237 q 799 1158 743 1196 q 898 1062 854 1119 q 966 929 941 1005 l 967 921 m 427 1290 q 389 1265 410 1268 q 348 1272 368 1263 q 312 1298 328 1280 q 286 1335 296 1316 q 277 1373 277 1354 q 292 1402 278 1392 l 431 1530 q 532 1575 481 1575 q 585 1563 560 1575 q 633 1530 609 1552 l 753 1420 q 774 1355 783 1389 q 743 1297 766 1321 q 689 1263 719 1272 q 646 1274 659 1255 q 587 1328 620 1297 q 528 1382 553 1359 l 427 1290 z "},"Ċ":{"ha":1008,"x_min":47,"x_max":983,"o":"m 967 921 q 962 876 971 898 q 937 838 954 854 q 898 810 920 821 q 854 800 876 800 q 800 816 825 800 q 762 868 774 831 q 720 949 746 917 q 663 1001 693 982 q 605 1028 633 1020 q 556 1036 576 1036 q 425 989 481 1034 q 332 878 369 945 q 275 730 294 811 q 256 572 256 650 q 269 454 256 518 q 312 335 282 391 q 390 241 342 279 q 510 202 438 203 q 589 213 549 201 q 662 251 628 225 q 724 315 696 277 q 768 406 751 354 q 807 473 777 450 q 872 496 837 496 q 913 488 892 496 q 951 463 935 479 q 975 424 967 446 q 978 374 983 401 q 884 176 940 250 q 763 62 827 102 q 631 10 699 22 q 505 -1 564 -1 q 305 46 391 0 q 163 169 220 92 q 77 346 106 245 q 47 559 47 446 q 63 720 47 639 q 109 878 79 802 q 182 1020 138 954 q 281 1136 225 1086 q 406 1213 338 1185 q 553 1241 473 1241 q 680 1217 616 1237 q 799 1158 743 1196 q 898 1062 854 1119 q 966 929 941 1005 l 967 921 m 661 1401 q 652 1360 661 1379 q 628 1325 643 1340 q 593 1301 613 1310 q 551 1293 572 1293 q 475 1325 506 1293 q 444 1401 444 1358 q 475 1478 444 1447 q 551 1510 506 1510 q 628 1478 595 1510 q 661 1401 661 1447 z "},"Ď":{"ha":955,"x_min":46,"x_max":920,"o":"m 49 1141 q 81 1216 49 1191 q 153 1241 114 1241 q 198 1232 176 1241 q 236 1206 220 1223 q 423 1242 334 1244 q 626 1180 534 1240 q 783 1024 718 1120 q 884 806 848 928 q 920 559 920 684 q 888 354 920 450 q 795 182 857 258 q 644 58 734 107 q 435 -5 553 8 q 341 2 393 -5 q 237 23 289 9 q 201 -1 222 7 q 156 -8 179 -8 q 114 -1 134 -8 q 78 18 94 5 q 54 51 62 31 q 50 96 46 71 l 49 1141 m 430 199 q 553 237 500 203 q 642 323 606 271 q 695 439 677 374 q 713 570 713 503 q 692 734 713 652 q 633 883 671 817 q 539 991 594 949 q 418 1036 484 1034 q 260 994 345 1040 l 260 232 q 347 205 304 213 q 430 199 391 197 m 545 1596 q 584 1620 563 1617 q 625 1615 605 1624 q 661 1588 644 1606 q 686 1552 677 1571 q 695 1514 696 1533 q 681 1484 694 1495 l 526 1340 q 426 1295 476 1295 q 373 1307 397 1295 q 324 1340 349 1318 l 205 1450 q 183 1515 175 1481 q 215 1573 191 1549 q 269 1607 239 1598 q 312 1596 298 1615 q 371 1542 338 1573 q 430 1488 404 1511 l 545 1596 z "},"Đ":{"ha":1066,"x_min":24,"x_max":1031,"o":"m 160 506 l 121 506 q 47 536 71 506 q 24 605 24 567 q 48 673 24 642 q 119 708 72 705 l 160 708 l 160 1141 q 193 1216 160 1191 q 264 1241 225 1241 q 309 1232 288 1241 q 347 1206 331 1223 q 534 1242 445 1244 q 737 1180 646 1240 q 894 1024 829 1120 q 995 806 959 928 q 1031 559 1031 684 q 1000 354 1031 450 q 907 182 968 258 q 755 58 845 107 q 547 -5 665 8 q 452 2 505 -5 q 349 23 400 9 q 312 -1 334 7 q 267 -8 290 -8 q 225 -1 245 -8 q 189 18 205 5 q 165 51 174 31 q 161 96 157 71 l 160 506 m 372 506 l 372 232 q 458 205 415 213 q 541 199 502 197 q 665 237 612 203 q 753 323 718 271 q 806 439 788 374 q 825 570 825 503 q 804 734 825 652 q 744 883 783 817 q 650 991 705 949 q 529 1036 595 1034 q 372 994 456 1040 l 372 708 l 518 708 q 588 677 566 708 q 610 608 610 646 q 604 568 610 587 q 585 534 597 548 q 553 511 572 519 q 510 507 534 503 l 518 506 l 372 506 z "},"É":{"ha":926,"x_min":47,"x_max":873,"o":"m 178 -1 q 82 22 117 -1 q 47 117 47 46 l 47 1112 q 75 1213 47 1181 q 160 1244 102 1244 l 776 1244 q 850 1208 826 1242 q 872 1135 873 1175 q 846 1063 871 1095 q 776 1032 822 1031 l 260 1032 l 260 760 l 678 760 q 752 724 728 758 q 774 650 776 690 q 749 578 773 610 q 678 548 724 547 l 260 548 l 260 210 l 773 210 q 847 175 823 209 q 869 101 871 141 q 844 29 868 61 q 773 -1 819 -3 l 178 -1 m 563 1332 q 528 1296 548 1306 q 486 1286 507 1286 q 439 1300 463 1286 q 401 1336 416 1314 q 383 1384 387 1358 q 396 1434 380 1411 q 427 1484 411 1458 q 458 1534 444 1510 q 495 1568 475 1557 q 537 1579 515 1579 q 582 1567 560 1579 q 618 1535 604 1554 q 637 1490 632 1515 q 629 1438 642 1465 l 563 1332 z "},"Ĕ":{"ha":926,"x_min":47,"x_max":873,"o":"m 178 -1 q 82 22 117 -1 q 47 117 47 46 l 47 1112 q 75 1213 47 1181 q 160 1244 102 1244 l 776 1244 q 850 1208 826 1242 q 872 1135 873 1175 q 846 1063 871 1095 q 776 1032 822 1031 l 260 1032 l 260 760 l 678 760 q 752 724 728 758 q 774 650 776 690 q 749 578 773 610 q 678 548 724 547 l 260 548 l 260 210 l 773 210 q 847 175 823 209 q 869 101 871 141 q 844 29 868 61 q 773 -1 819 -3 l 178 -1 m 449 1493 q 491 1468 465 1468 q 519 1477 506 1468 q 544 1500 532 1487 q 619 1537 582 1539 q 681 1510 656 1535 q 711 1444 705 1484 q 693 1371 718 1405 q 597 1300 650 1322 q 494 1278 545 1278 q 376 1307 430 1278 q 290 1385 323 1336 q 273 1442 271 1415 q 288 1490 274 1469 q 326 1524 302 1511 q 373 1537 349 1537 q 415 1527 395 1537 q 450 1493 435 1516 l 449 1493 m 701 1381 q 693 1371 700 1375 q 701 1381 700 1378 z "},"Ě":{"ha":926,"x_min":47,"x_max":873,"o":"m 178 -1 q 82 22 117 -1 q 47 117 47 46 l 47 1112 q 75 1213 47 1181 q 160 1244 102 1244 l 776 1244 q 850 1208 826 1242 q 872 1135 873 1175 q 846 1063 871 1095 q 776 1032 822 1031 l 260 1032 l 260 760 l 678 760 q 752 724 728 758 q 774 650 776 690 q 749 578 773 610 q 678 548 724 547 l 260 548 l 260 210 l 773 210 q 847 175 823 209 q 869 101 871 141 q 844 29 868 61 q 773 -1 819 -3 l 178 -1 m 601 1584 q 640 1608 618 1605 q 680 1603 661 1611 q 716 1576 700 1594 q 742 1539 732 1558 q 751 1501 751 1520 q 736 1472 750 1482 l 582 1328 q 481 1283 532 1283 q 429 1295 453 1283 q 380 1328 404 1306 l 260 1438 q 239 1503 231 1469 q 271 1561 247 1537 q 324 1594 294 1586 q 368 1584 354 1603 q 427 1530 393 1561 q 486 1476 460 1499 l 601 1584 z "},"Ê":{"ha":926,"x_min":47,"x_max":873,"o":"m 178 -1 q 82 22 117 -1 q 47 117 47 46 l 47 1112 q 75 1213 47 1181 q 160 1244 102 1244 l 776 1244 q 850 1208 826 1242 q 872 1135 873 1175 q 846 1063 871 1095 q 776 1032 822 1031 l 260 1032 l 260 760 l 678 760 q 752 724 728 758 q 774 650 776 690 q 749 578 773 610 q 678 548 724 547 l 260 548 l 260 210 l 773 210 q 847 175 823 209 q 869 101 871 141 q 844 29 868 61 q 773 -1 819 -3 l 178 -1 m 365 1325 q 326 1301 347 1303 q 286 1307 305 1298 q 250 1333 266 1316 q 224 1370 233 1351 q 215 1408 214 1389 q 229 1438 216 1427 l 369 1565 q 469 1610 419 1610 q 522 1598 498 1610 q 571 1565 547 1587 l 690 1455 q 712 1390 720 1424 q 680 1332 704 1356 q 627 1299 656 1308 q 583 1309 597 1290 q 524 1363 557 1332 q 465 1417 491 1394 l 365 1325 z "},"Ë":{"ha":926,"x_min":47,"x_max":873,"o":"m 178 -1 q 82 22 117 -1 q 47 117 47 46 l 47 1112 q 75 1213 47 1181 q 160 1244 102 1244 l 776 1244 q 850 1208 826 1242 q 872 1135 873 1175 q 846 1063 871 1095 q 776 1032 822 1031 l 260 1032 l 260 760 l 678 760 q 752 724 728 758 q 774 650 776 690 q 749 578 773 610 q 678 548 724 547 l 260 548 l 260 210 l 773 210 q 847 175 823 209 q 869 101 871 141 q 844 29 868 61 q 773 -1 819 -3 l 178 -1 m 448 1402 q 439 1361 448 1381 q 415 1326 430 1341 q 380 1303 400 1312 q 339 1294 361 1294 q 296 1303 316 1294 q 262 1326 277 1312 q 239 1361 247 1341 q 231 1402 231 1381 q 262 1480 231 1449 q 339 1511 293 1511 q 380 1503 361 1511 q 415 1480 400 1495 q 439 1445 430 1465 q 448 1402 448 1426 m 700 1402 q 691 1361 700 1381 q 667 1326 682 1341 q 633 1303 652 1312 q 591 1294 613 1294 q 549 1303 568 1294 q 514 1326 529 1312 q 491 1361 499 1341 q 483 1402 483 1381 q 514 1480 483 1449 q 591 1511 545 1511 q 633 1503 613 1511 q 667 1480 652 1495 q 691 1445 682 1465 q 700 1402 700 1426 z "},"Ė":{"ha":926,"x_min":47,"x_max":873,"o":"m 178 -1 q 82 22 117 -1 q 47 117 47 46 l 47 1112 q 75 1213 47 1181 q 160 1244 102 1244 l 776 1244 q 850 1208 826 1242 q 872 1135 873 1175 q 846 1063 871 1095 q 776 1032 822 1031 l 260 1032 l 260 760 l 678 760 q 752 724 728 758 q 774 650 776 690 q 749 578 773 610 q 678 548 724 547 l 260 548 l 260 210 l 773 210 q 847 175 823 209 q 869 101 871 141 q 844 29 868 61 q 773 -1 819 -3 l 178 -1 m 620 1401 q 611 1360 620 1379 q 587 1325 602 1340 q 552 1301 572 1310 q 510 1293 532 1293 q 434 1325 465 1293 q 403 1401 403 1358 q 434 1478 403 1447 q 510 1510 465 1510 q 587 1478 555 1510 q 620 1401 620 1447 z "},"È":{"ha":926,"x_min":47,"x_max":873,"o":"m 178 -1 q 82 22 117 -1 q 47 117 47 46 l 47 1112 q 75 1213 47 1181 q 160 1244 102 1244 l 776 1244 q 850 1208 826 1242 q 872 1135 873 1175 q 846 1063 871 1095 q 776 1032 822 1031 l 260 1032 l 260 760 l 678 760 q 752 724 728 758 q 774 650 776 690 q 749 578 773 610 q 678 548 724 547 l 260 548 l 260 210 l 773 210 q 847 175 823 209 q 869 101 871 141 q 844 29 868 61 q 773 -1 819 -3 l 178 -1 m 346 1444 q 338 1495 334 1470 q 356 1539 342 1520 q 393 1571 370 1558 q 438 1583 415 1583 q 481 1572 460 1583 q 518 1538 502 1561 l 581 1438 q 592 1388 595 1415 q 574 1340 589 1362 q 537 1304 560 1318 q 491 1290 514 1290 q 448 1300 468 1290 q 414 1336 427 1310 l 416 1333 q 383 1385 400 1359 q 350 1436 366 1411 l 346 1444 z "},"Ē":{"ha":926,"x_min":47,"x_max":873,"o":"m 178 -1 q 82 22 117 -1 q 47 117 47 46 l 47 1112 q 75 1213 47 1181 q 160 1244 102 1244 l 776 1244 q 850 1208 826 1242 q 872 1135 873 1175 q 846 1063 871 1095 q 776 1032 822 1031 l 260 1032 l 260 760 l 678 760 q 752 724 728 758 q 774 650 776 690 q 749 578 773 610 q 678 548 724 547 l 260 548 l 260 210 l 773 210 q 847 175 823 209 q 869 101 871 141 q 844 29 868 61 q 773 -1 819 -3 l 178 -1 m 264 1280 q 191 1311 214 1280 q 168 1379 168 1341 q 192 1448 168 1416 q 263 1482 216 1480 l 662 1482 q 732 1451 709 1482 q 754 1382 754 1420 q 747 1342 754 1362 q 728 1308 741 1322 q 697 1286 716 1294 q 654 1282 678 1278 l 662 1280 l 264 1280 z "},"Ę":{"ha":926,"x_min":47,"x_max":873,"o":"m 656 -214 q 618 -146 629 -182 q 606 -72 606 -110 q 608 -35 606 -53 q 616 -1 610 -18 l 178 -1 q 82 22 117 -1 q 47 117 47 46 l 47 1112 q 75 1213 47 1181 q 160 1244 102 1244 l 776 1244 q 850 1208 826 1242 q 872 1135 873 1175 q 846 1063 871 1095 q 776 1032 822 1031 l 260 1032 l 260 760 l 678 760 q 752 724 728 758 q 774 650 776 690 q 749 578 773 610 q 678 548 724 547 l 260 548 l 260 210 l 773 210 q 839 183 815 209 q 867 123 863 157 q 859 57 872 90 q 818 8 846 24 l 818 7 q 802 -32 810 -12 q 793 -68 793 -52 q 803 -87 793 -79 q 842 -142 837 -114 q 831 -195 846 -171 q 789 -233 817 -218 q 730 -248 761 -248 q 691 -241 709 -248 q 658 -216 673 -233 l 656 -214 z "},"Ğ":{"ha":1001,"x_min":39,"x_max":964,"o":"m 834 642 q 899 628 875 642 q 937 593 924 614 q 956 543 951 571 q 960 488 960 515 q 905 241 954 336 q 786 91 856 145 q 637 17 716 37 q 494 -1 559 -3 q 296 47 381 1 q 155 170 212 94 q 68 347 98 247 q 39 559 39 448 q 55 721 39 639 q 100 879 71 803 q 174 1022 130 955 q 273 1139 217 1089 q 397 1216 330 1188 q 545 1244 465 1244 q 671 1219 608 1240 q 791 1160 735 1199 q 890 1065 846 1122 q 958 933 933 1008 q 938 863 964 891 q 874 824 911 834 q 802 825 837 814 q 754 871 766 836 q 710 957 736 924 q 654 1008 684 990 q 597 1033 625 1027 q 548 1039 568 1039 q 417 992 473 1036 q 323 880 361 948 q 267 731 286 812 q 248 572 248 650 q 262 439 248 505 q 308 323 277 374 q 387 238 339 271 q 503 202 435 205 q 584 212 544 201 q 657 249 624 222 q 713 319 690 275 q 745 430 736 363 l 469 430 q 403 464 427 431 q 376 535 378 496 q 396 606 374 574 q 469 642 418 639 l 834 642 m 486 1493 q 528 1468 502 1468 q 555 1477 543 1468 q 581 1500 568 1487 q 656 1537 618 1539 q 718 1510 693 1535 q 748 1444 742 1484 q 730 1371 754 1405 q 634 1300 686 1322 q 530 1278 582 1278 q 413 1307 467 1278 q 327 1385 359 1336 q 309 1442 308 1415 q 325 1490 311 1469 q 362 1524 339 1511 q 410 1537 385 1537 q 452 1527 431 1537 q 487 1493 472 1516 l 486 1493 m 738 1381 q 730 1371 736 1375 q 738 1381 736 1378 z "},"Ĝ":{"ha":1001,"x_min":39,"x_max":964,"o":"m 834 642 q 899 628 875 642 q 937 593 924 614 q 956 543 951 571 q 960 488 960 515 q 905 241 954 336 q 786 91 856 145 q 637 17 716 37 q 494 -1 559 -3 q 296 47 381 1 q 155 170 212 94 q 68 347 98 247 q 39 559 39 448 q 55 721 39 639 q 100 879 71 803 q 174 1022 130 955 q 273 1139 217 1089 q 397 1216 330 1188 q 545 1244 465 1244 q 671 1219 608 1240 q 791 1160 735 1199 q 890 1065 846 1122 q 958 933 933 1008 q 938 863 964 891 q 874 824 911 834 q 802 825 837 814 q 754 871 766 836 q 710 957 736 924 q 654 1008 684 990 q 597 1033 625 1027 q 548 1039 568 1039 q 417 992 473 1036 q 323 880 361 948 q 267 731 286 812 q 248 572 248 650 q 262 439 248 505 q 308 323 277 374 q 387 238 339 271 q 503 202 435 205 q 584 212 544 201 q 657 249 624 222 q 713 319 690 275 q 745 430 736 363 l 469 430 q 403 464 427 431 q 376 535 378 496 q 396 606 374 574 q 469 642 418 639 l 834 642 m 431 1310 q 393 1286 414 1289 q 352 1292 372 1283 q 316 1318 332 1301 q 290 1355 300 1336 q 281 1393 281 1374 q 296 1423 282 1412 l 435 1550 q 536 1595 486 1595 q 589 1584 564 1595 q 637 1550 613 1572 l 757 1440 q 779 1375 787 1409 q 747 1317 770 1341 q 693 1284 723 1293 q 650 1294 663 1275 q 591 1348 624 1317 q 532 1402 557 1379 l 431 1310 z "},"Ģ":{"ha":1001,"x_min":39,"x_max":964,"o":"m 834 642 q 899 628 875 642 q 937 593 924 614 q 956 543 951 571 q 960 488 960 515 q 905 241 954 336 q 786 91 856 145 q 637 17 716 37 q 494 -1 559 -3 q 296 47 381 1 q 155 170 212 94 q 68 347 98 247 q 39 559 39 448 q 55 721 39 639 q 100 879 71 803 q 174 1022 130 955 q 273 1139 217 1089 q 397 1216 330 1188 q 545 1244 465 1244 q 671 1219 608 1240 q 791 1160 735 1199 q 890 1065 846 1122 q 958 933 933 1008 q 938 863 964 891 q 874 824 911 834 q 802 825 837 814 q 754 871 766 836 q 710 957 736 924 q 654 1008 684 990 q 597 1033 625 1027 q 548 1039 568 1039 q 417 992 473 1036 q 323 880 361 948 q 267 731 286 812 q 248 572 248 650 q 262 439 248 505 q 308 323 277 374 q 387 238 339 271 q 503 202 435 205 q 584 212 544 201 q 657 249 624 222 q 713 319 690 275 q 745 430 736 363 l 469 430 q 403 464 427 431 q 376 535 378 496 q 396 606 374 574 q 469 642 418 639 l 834 642 m 563 -397 q 528 -425 548 -418 q 488 -433 507 -433 q 433 -418 460 -433 q 393 -382 407 -404 q 381 -331 378 -359 q 412 -274 384 -302 q 433 -244 433 -254 q 427 -230 433 -240 q 414 -205 422 -220 q 399 -148 397 -175 q 414 -100 400 -121 q 450 -68 427 -80 q 496 -57 472 -57 q 545 -70 521 -57 q 585 -110 568 -83 q 624 -243 624 -178 q 563 -399 624 -324 l 563 -397 z "},"Ġ":{"ha":1001,"x_min":39,"x_max":964,"o":"m 834 642 q 899 628 875 642 q 937 593 924 614 q 956 543 951 571 q 960 488 960 515 q 905 241 954 336 q 786 91 856 145 q 637 17 716 37 q 494 -1 559 -3 q 296 47 381 1 q 155 170 212 94 q 68 347 98 247 q 39 559 39 448 q 55 721 39 639 q 100 879 71 803 q 174 1022 130 955 q 273 1139 217 1089 q 397 1216 330 1188 q 545 1244 465 1244 q 671 1219 608 1240 q 791 1160 735 1199 q 890 1065 846 1122 q 958 933 933 1008 q 938 863 964 891 q 874 824 911 834 q 802 825 837 814 q 754 871 766 836 q 710 957 736 924 q 654 1008 684 990 q 597 1033 625 1027 q 548 1039 568 1039 q 417 992 473 1036 q 323 880 361 948 q 267 731 286 812 q 248 572 248 650 q 262 439 248 505 q 308 323 277 374 q 387 238 339 271 q 503 202 435 205 q 584 212 544 201 q 657 249 624 222 q 713 319 690 275 q 745 430 736 363 l 469 430 q 403 464 427 431 q 376 535 378 496 q 396 606 374 574 q 469 642 418 639 l 834 642 m 613 1408 q 604 1367 613 1386 q 581 1332 595 1347 q 545 1308 566 1317 q 503 1299 525 1299 q 427 1332 458 1299 q 396 1408 396 1364 q 427 1485 396 1454 q 503 1516 458 1516 q 581 1485 548 1516 q 613 1408 613 1454 z "},"Ħ":{"ha":1053,"x_min":31,"x_max":1006,"o":"m 741 477 l 302 477 l 302 98 q 271 24 302 46 q 199 1 239 1 q 158 8 179 1 q 122 28 137 15 q 99 60 107 41 q 95 106 91 80 l 94 98 l 94 488 q 54 528 66 502 q 41 582 41 553 q 54 635 41 609 q 94 675 66 661 l 94 770 q 47 810 62 781 q 31 869 31 838 q 47 926 31 898 q 94 966 62 954 l 94 1143 q 125 1219 94 1195 q 197 1244 156 1244 q 268 1219 236 1244 q 302 1145 300 1194 l 302 977 l 741 977 l 741 1143 q 773 1219 741 1195 q 845 1244 806 1244 q 916 1219 884 1244 q 951 1145 948 1194 l 951 967 q 993 928 979 955 q 1006 871 1006 901 q 992 812 1006 840 q 951 772 978 784 l 951 680 q 993 640 979 667 q 1006 583 1006 613 q 992 524 1006 552 q 951 484 978 496 l 951 98 q 918 24 951 46 q 846 1 886 1 q 804 8 825 1 q 769 28 784 15 q 746 60 754 41 q 742 106 738 80 l 741 98 l 741 477 m 741 688 l 741 764 l 302 764 l 302 688 l 741 688 z "},"Ĥ":{"ha":1053,"x_min":42,"x_max":1008,"o":"m 742 543 l 304 543 l 304 98 q 272 24 304 46 q 201 1 240 1 q 159 8 180 1 q 123 28 138 15 q 100 60 109 41 q 96 106 92 80 l 95 98 l 95 553 q 55 593 68 567 q 42 647 42 618 q 55 701 42 675 q 95 741 68 726 l 95 1145 q 126 1221 95 1196 q 198 1245 157 1245 q 269 1220 237 1245 q 304 1146 301 1195 l 304 753 l 742 753 l 742 1145 q 774 1221 742 1196 q 846 1245 807 1245 q 918 1220 886 1245 q 952 1146 949 1195 l 952 745 q 994 705 981 732 q 1008 648 1008 678 q 994 590 1008 617 q 952 549 979 563 l 952 98 q 920 24 952 46 q 848 1 887 1 q 806 8 826 1 q 770 28 785 15 q 747 60 755 41 q 743 106 739 80 l 742 98 l 742 543 m 427 1308 q 389 1283 410 1286 q 348 1289 368 1280 q 312 1316 328 1298 q 286 1352 296 1333 q 277 1390 277 1371 q 292 1420 278 1409 l 431 1548 q 532 1592 481 1592 q 585 1581 560 1592 q 633 1548 609 1569 l 753 1438 q 774 1373 783 1407 q 743 1314 766 1339 q 689 1281 719 1290 q 646 1291 659 1272 q 587 1345 620 1314 q 528 1400 553 1377 l 427 1308 z "},"Í":{"ha":944,"x_min":35,"x_max":895,"o":"m 357 209 l 357 1034 l 137 1034 q 60 1065 85 1034 q 35 1137 35 1097 q 61 1208 35 1176 q 136 1242 87 1240 l 799 1242 q 873 1211 850 1242 q 895 1139 895 1180 q 888 1099 895 1119 q 869 1065 882 1080 q 837 1040 856 1050 q 793 1034 818 1031 l 799 1034 l 570 1034 l 570 209 l 792 209 q 869 177 844 209 q 894 106 894 145 q 868 35 894 66 q 793 0 842 3 l 140 0 q 66 31 88 0 q 43 103 43 62 q 50 143 43 123 q 69 178 57 163 q 99 201 81 193 q 140 209 117 210 l 357 209 m 511 1333 q 476 1297 496 1308 q 434 1287 456 1287 q 388 1301 411 1287 q 350 1337 365 1316 q 332 1385 335 1359 q 345 1435 328 1412 q 376 1485 359 1459 q 407 1535 392 1511 q 444 1569 423 1558 q 486 1580 464 1580 q 530 1568 509 1580 q 566 1536 552 1556 q 585 1491 581 1516 q 578 1439 590 1466 l 511 1333 z "},"Ĭ":{"ha":939,"x_min":37,"x_max":897,"o":"m 358 209 l 358 1034 l 138 1034 q 62 1065 87 1034 q 37 1137 37 1097 q 62 1208 37 1176 q 137 1242 88 1240 l 800 1242 q 874 1211 852 1242 q 897 1139 897 1180 q 890 1099 897 1119 q 870 1065 883 1080 q 838 1040 857 1050 q 795 1034 819 1031 l 800 1034 l 571 1034 l 571 209 l 793 209 q 870 177 845 209 q 895 106 895 145 q 869 35 895 66 q 795 0 844 3 l 141 0 q 67 31 90 0 q 45 103 45 62 q 52 143 45 123 q 71 178 58 163 q 100 201 83 193 q 141 209 118 210 l 358 209 m 439 1511 q 481 1485 456 1485 q 509 1495 496 1485 q 534 1518 522 1504 q 610 1555 572 1557 q 671 1527 647 1553 q 702 1462 696 1501 q 684 1389 708 1423 q 588 1318 640 1340 q 484 1295 536 1295 q 367 1324 420 1295 q 281 1402 313 1354 q 263 1459 262 1432 q 279 1508 264 1487 q 316 1541 293 1529 q 363 1554 339 1554 q 406 1544 385 1554 q 441 1511 426 1534 l 439 1511 m 692 1398 q 684 1389 690 1393 q 692 1398 690 1396 z "},"Î":{"ha":955,"x_min":43,"x_max":903,"o":"m 365 209 l 365 1034 l 145 1034 q 68 1065 94 1034 q 43 1137 43 1097 q 69 1208 43 1176 q 144 1242 95 1240 l 807 1242 q 881 1211 859 1242 q 903 1139 903 1180 q 897 1099 903 1119 q 877 1065 890 1080 q 845 1040 864 1050 q 802 1034 826 1031 l 807 1034 l 578 1034 l 578 209 l 800 209 q 877 177 852 209 q 902 106 902 145 q 876 35 902 66 q 802 0 850 3 l 148 0 q 74 31 96 0 q 52 103 52 62 q 58 143 52 123 q 77 178 65 163 q 107 201 90 193 q 148 209 125 210 l 365 209 m 414 1303 q 375 1279 396 1282 q 334 1285 354 1276 q 298 1312 315 1294 q 273 1348 282 1329 q 264 1386 263 1367 q 278 1416 264 1405 l 418 1544 q 518 1588 468 1588 q 571 1577 547 1588 q 620 1544 595 1565 l 739 1434 q 761 1369 769 1402 q 729 1310 753 1335 q 675 1277 705 1286 q 632 1287 646 1268 q 573 1341 606 1310 q 514 1396 540 1373 l 414 1303 z "},"Ï":{"ha":933,"x_min":31,"x_max":891,"o":"m 353 209 l 353 1034 l 133 1034 q 56 1065 81 1034 q 31 1137 31 1097 q 57 1208 31 1176 q 132 1242 83 1240 l 795 1242 q 869 1211 846 1242 q 891 1139 891 1180 q 884 1099 891 1119 q 865 1065 878 1080 q 833 1040 852 1050 q 789 1034 814 1031 l 795 1034 l 566 1034 l 566 209 l 788 209 q 865 177 840 209 q 890 106 890 145 q 864 35 890 66 q 789 0 838 3 l 136 0 q 62 31 84 0 q 39 103 39 62 q 46 143 39 123 q 65 178 53 163 q 95 201 77 193 q 136 209 113 210 l 353 209 m 427 1390 q 418 1349 427 1369 q 395 1314 410 1329 q 360 1291 380 1299 q 319 1282 340 1282 q 276 1291 296 1282 q 241 1314 256 1299 q 218 1349 227 1329 q 210 1390 210 1369 q 241 1468 210 1436 q 319 1499 273 1499 q 360 1491 340 1499 q 395 1468 380 1482 q 418 1433 410 1453 q 427 1390 427 1413 m 680 1390 q 671 1349 680 1369 q 647 1314 662 1329 q 612 1291 632 1299 q 571 1282 593 1282 q 528 1291 548 1282 q 494 1314 509 1299 q 471 1349 479 1329 q 463 1390 463 1369 q 494 1468 463 1436 q 571 1499 525 1499 q 612 1491 593 1499 q 647 1468 632 1482 q 671 1433 662 1453 q 680 1390 680 1413 z "},"İ":{"ha":933,"x_min":22,"x_max":882,"o":"m 343 209 l 343 1034 l 123 1034 q 47 1065 72 1034 q 22 1137 22 1097 q 47 1208 22 1176 q 122 1242 73 1240 l 785 1242 q 859 1211 837 1242 q 882 1139 882 1180 q 875 1099 882 1119 q 855 1065 868 1080 q 823 1040 842 1050 q 780 1034 804 1031 l 785 1034 l 556 1034 l 556 209 l 779 209 q 855 177 830 209 q 880 106 880 145 q 854 35 880 66 q 780 0 829 3 l 126 0 q 52 31 75 0 q 30 103 30 62 q 37 143 30 123 q 56 178 43 163 q 85 201 68 193 q 126 209 103 210 l 343 209 m 606 1404 q 597 1362 606 1382 q 574 1328 589 1343 q 538 1304 559 1313 q 496 1295 518 1295 q 420 1328 452 1295 q 389 1404 389 1360 q 420 1481 389 1450 q 496 1512 452 1512 q 574 1481 541 1512 q 606 1404 606 1450 z "},"Ì":{"ha":941,"x_min":35,"x_max":895,"o":"m 357 209 l 357 1034 l 137 1034 q 60 1065 85 1034 q 35 1137 35 1097 q 61 1208 35 1176 q 136 1242 87 1240 l 799 1242 q 873 1211 850 1242 q 895 1139 895 1180 q 888 1099 895 1119 q 869 1065 882 1080 q 837 1040 856 1050 q 793 1034 818 1031 l 799 1034 l 570 1034 l 570 209 l 792 209 q 869 177 844 209 q 894 106 894 145 q 868 35 894 66 q 793 0 842 3 l 140 0 q 66 31 88 0 q 43 103 43 62 q 50 143 43 123 q 69 178 57 163 q 99 201 81 193 q 140 209 117 210 l 357 209 m 385 1438 q 377 1489 373 1463 q 395 1533 381 1514 q 432 1564 410 1552 q 477 1576 454 1576 q 520 1565 499 1576 q 557 1531 541 1554 l 620 1431 q 631 1381 635 1408 q 614 1333 628 1355 q 576 1297 600 1312 q 530 1283 553 1283 q 487 1293 507 1283 q 453 1329 467 1303 l 456 1326 q 422 1378 439 1352 q 389 1430 406 1404 l 385 1438 z "},"Ī":{"ha":939,"x_min":42,"x_max":902,"o":"m 363 209 l 363 1034 l 144 1034 q 67 1065 92 1034 q 42 1137 42 1097 q 68 1208 42 1176 q 142 1242 94 1240 l 806 1242 q 880 1211 857 1242 q 902 1139 902 1180 q 895 1099 902 1119 q 876 1065 888 1080 q 844 1040 863 1050 q 800 1034 825 1031 l 806 1034 l 576 1034 l 576 209 l 799 209 q 876 177 850 209 q 901 106 901 145 q 875 35 901 66 q 800 0 849 3 l 146 0 q 73 31 95 0 q 50 103 50 62 q 57 143 50 123 q 76 178 64 163 q 106 201 88 193 q 146 209 123 210 l 363 209 m 270 1298 q 197 1329 220 1298 q 174 1397 174 1359 q 197 1466 174 1434 q 269 1500 221 1497 l 667 1500 q 737 1469 715 1500 q 760 1400 760 1438 q 753 1360 760 1379 q 734 1326 746 1340 q 703 1303 722 1312 q 659 1299 684 1295 l 667 1298 l 270 1298 z "},"Į":{"ha":949,"x_min":35,"x_max":895,"o":"m 640 -224 q 602 -155 613 -191 q 590 -81 590 -119 q 604 0 590 -37 l 140 0 q 66 31 88 0 q 43 103 43 62 q 50 143 43 123 q 69 178 57 163 q 99 201 81 193 q 140 209 117 210 l 357 209 l 357 1034 l 137 1034 q 60 1065 85 1034 q 35 1137 35 1097 q 61 1208 35 1176 q 136 1242 87 1240 l 799 1242 q 873 1211 850 1242 q 895 1139 895 1180 q 888 1099 895 1119 q 869 1065 882 1080 q 837 1040 856 1050 q 793 1034 818 1031 l 570 1034 l 570 209 l 792 209 q 869 177 844 209 q 894 106 894 145 q 870 37 894 68 q 803 0 846 5 q 802 -3 802 0 q 785 -41 793 -22 q 777 -77 777 -61 q 787 -96 777 -88 q 825 -152 821 -123 q 815 -204 830 -180 q 772 -243 800 -228 q 713 -258 745 -258 q 675 -250 693 -258 q 642 -225 656 -243 l 640 -224 z "},"Ĩ":{"ha":929,"x_min":30,"x_max":890,"o":"m 351 209 l 351 1034 l 132 1034 q 55 1065 80 1034 q 30 1137 30 1097 q 56 1208 30 1176 q 130 1242 81 1240 l 793 1242 q 867 1211 845 1242 q 890 1139 890 1180 q 883 1099 890 1119 q 863 1065 876 1080 q 831 1040 850 1050 q 788 1034 812 1031 l 793 1034 l 564 1034 l 564 209 l 787 209 q 863 177 838 209 q 888 106 888 145 q 863 35 888 66 q 788 0 837 3 l 134 0 q 60 31 83 0 q 38 103 38 62 q 45 143 38 123 q 64 178 52 163 q 94 201 76 193 q 134 209 111 210 l 351 209 m 358 1351 q 324 1301 349 1317 q 271 1284 300 1284 q 232 1293 251 1284 q 198 1317 213 1302 q 176 1352 183 1332 q 172 1396 168 1373 q 201 1472 182 1438 q 246 1528 220 1506 q 304 1562 273 1550 q 370 1572 335 1573 q 424 1562 400 1571 q 467 1541 448 1553 q 503 1514 487 1529 q 532 1487 518 1500 q 549 1468 540 1477 q 560 1458 557 1458 q 560 1491 556 1465 q 592 1550 567 1530 q 651 1569 617 1569 q 692 1562 671 1569 q 727 1539 712 1554 q 749 1501 742 1523 q 750 1450 755 1478 q 729 1385 742 1415 q 695 1331 716 1355 q 644 1293 674 1308 q 572 1278 613 1279 l 574 1278 q 512 1284 538 1276 q 465 1303 486 1291 q 429 1332 445 1316 q 400 1363 414 1348 q 381 1383 389 1374 q 366 1389 373 1392 q 359 1352 369 1389 l 358 1351 z "},"Ĵ":{"ha":882,"x_min":39,"x_max":917,"o":"m 589 1139 q 597 1186 589 1166 q 621 1219 606 1206 q 655 1238 636 1232 q 693 1244 674 1244 q 765 1219 732 1244 q 800 1143 798 1194 q 808 876 804 1005 q 811 617 811 746 q 805 473 811 545 q 783 333 799 400 q 737 207 766 266 q 663 103 708 148 q 552 31 617 58 q 400 0 487 4 q 279 14 332 -3 q 182 66 225 31 q 108 151 140 100 q 52 263 76 201 q 45 325 39 298 q 68 369 52 351 q 108 395 84 387 q 155 401 132 403 q 199 389 179 400 q 228 355 218 377 q 257 294 239 321 q 297 248 275 267 q 342 220 319 229 q 391 210 366 210 q 469 231 435 210 q 524 285 502 252 q 560 360 547 317 q 581 448 574 403 q 592 539 589 494 q 597 621 595 585 q 599 882 602 753 q 589 1139 595 1010 m 562 1328 q 523 1303 544 1306 q 482 1310 502 1301 q 446 1336 463 1318 q 420 1373 430 1354 q 412 1411 411 1392 q 426 1440 412 1430 l 566 1568 q 666 1613 616 1613 q 719 1601 694 1613 q 768 1568 743 1590 l 887 1458 q 909 1393 917 1427 q 877 1335 901 1359 q 823 1301 853 1310 q 780 1312 793 1293 q 721 1366 754 1335 q 662 1420 688 1397 l 562 1328 z "},"Ķ":{"ha":982,"x_min":57,"x_max":941,"o":"m 60 1149 q 68 1194 60 1175 q 92 1225 77 1213 q 126 1243 107 1237 q 165 1249 145 1249 q 203 1243 184 1249 q 236 1224 221 1237 q 261 1193 251 1211 q 273 1150 271 1175 l 273 788 q 394 892 332 837 q 518 1005 456 948 q 642 1118 581 1062 q 762 1222 703 1173 q 842 1244 803 1252 q 905 1206 882 1236 q 930 1135 929 1177 q 897 1057 930 1093 l 446 654 q 684 418 566 534 q 913 186 803 301 q 938 138 935 164 q 933 87 941 111 q 907 43 925 62 q 865 14 888 23 q 816 7 841 4 q 768 34 791 11 q 562 239 646 156 q 422 376 477 323 q 338 458 368 430 q 294 500 308 487 q 276 515 279 513 q 273 517 273 517 l 273 95 q 239 21 273 43 q 167 -1 206 -1 q 125 5 145 -1 q 89 25 104 12 q 65 56 73 38 q 60 95 57 73 l 60 1149 m 452 -288 q 416 -315 437 -308 q 377 -323 396 -323 q 322 -309 349 -323 q 281 -272 296 -294 q 270 -221 267 -250 q 301 -164 273 -193 q 321 -134 321 -144 q 316 -120 321 -130 q 302 -95 311 -110 q 288 -38 286 -65 q 302 9 289 -11 q 338 41 316 30 q 385 53 361 53 q 433 40 410 53 q 473 0 457 27 q 513 -133 513 -68 q 452 -289 513 -214 l 452 -288 z "},"Ĺ":{"ha":926,"x_min":52,"x_max":880,"o":"m 182 -1 q 86 22 121 -1 q 52 117 52 46 l 52 1150 q 83 1220 53 1196 q 152 1245 114 1244 q 223 1224 190 1246 q 263 1156 256 1202 l 263 210 l 783 210 q 838 193 817 209 q 870 152 860 176 q 878 100 880 127 q 864 49 876 72 q 829 12 852 26 q 774 0 807 -3 l 783 -1 l 182 -1 m 563 1332 q 528 1296 548 1306 q 486 1286 507 1286 q 439 1300 463 1286 q 401 1336 416 1314 q 383 1384 387 1358 q 396 1434 380 1411 q 427 1484 411 1458 q 458 1534 444 1510 q 495 1568 475 1557 q 537 1579 515 1579 q 582 1567 560 1579 q 618 1535 604 1554 q 637 1490 632 1515 q 629 1438 642 1465 l 563 1332 z "},"Ľ":{"ha":926,"x_min":52,"x_max":880,"o":"m 182 -1 q 86 22 121 -1 q 52 117 52 46 l 52 1150 q 83 1220 53 1196 q 152 1245 114 1244 q 223 1224 190 1246 q 263 1156 256 1202 l 263 210 l 783 210 q 838 193 817 209 q 870 152 860 176 q 878 100 880 127 q 864 49 876 72 q 829 12 852 26 q 774 0 807 -3 l 783 -1 l 182 -1 m 609 749 q 574 721 594 728 q 534 713 553 713 q 479 728 506 713 q 439 764 453 742 q 427 815 425 787 q 458 872 430 844 q 480 902 480 894 q 474 916 480 905 q 460 941 468 926 q 445 998 444 971 q 460 1046 446 1025 q 496 1078 473 1066 q 543 1089 518 1089 q 591 1076 567 1089 q 631 1036 614 1063 q 670 903 670 968 q 609 747 670 822 l 609 749 z "},"Ļ":{"ha":926,"x_min":52,"x_max":880,"o":"m 182 -1 q 86 22 121 -1 q 52 117 52 46 l 52 1150 q 83 1220 53 1196 q 152 1245 114 1244 q 223 1224 190 1246 q 263 1156 256 1202 l 263 210 l 783 210 q 838 193 817 209 q 870 152 860 176 q 878 100 880 127 q 864 49 876 72 q 829 12 852 26 q 774 0 807 -3 l 783 -1 l 182 -1 m 487 -420 q 452 -448 472 -441 q 412 -456 431 -456 q 357 -441 384 -456 q 317 -405 331 -427 q 305 -354 302 -382 q 336 -297 308 -326 q 357 -267 357 -277 q 351 -253 357 -263 q 338 -228 346 -243 q 323 -171 321 -198 q 338 -123 324 -144 q 374 -92 351 -103 q 420 -80 396 -80 q 469 -93 445 -80 q 509 -133 492 -106 q 548 -266 548 -201 q 487 -422 548 -347 l 487 -420 z "},"Ŀ":{"ha":926,"x_min":52,"x_max":880,"o":"m 182 -1 q 86 22 121 -1 q 52 117 52 46 l 52 1150 q 83 1220 53 1196 q 152 1245 114 1244 q 223 1224 190 1246 q 263 1156 256 1202 l 263 210 l 783 210 q 838 193 817 209 q 870 152 860 176 q 878 100 880 127 q 864 49 876 72 q 829 12 852 26 q 774 0 807 -3 l 783 -1 l 182 -1 m 632 719 q 623 676 632 696 q 600 642 614 656 q 565 619 585 628 q 524 610 545 610 q 446 642 477 610 q 415 719 415 674 q 446 795 415 764 q 524 826 477 826 q 600 795 567 826 q 632 719 632 764 z "},"Ł":{"ha":1046,"x_min":26,"x_max":993,"o":"m 269 -1 q 173 22 208 -1 q 138 117 138 46 l 138 452 q 94 458 114 449 q 58 483 73 467 q 34 520 42 499 q 26 563 26 541 q 41 616 26 590 q 88 655 56 642 q 103 661 98 659 q 113 665 109 663 q 122 669 117 667 q 138 675 127 671 l 138 1150 q 170 1223 138 1200 q 243 1246 202 1246 q 313 1224 279 1246 q 350 1156 346 1202 l 350 764 q 444 802 397 783 q 536 841 490 822 q 591 847 566 853 q 636 824 617 841 q 665 783 655 807 q 675 734 675 758 q 659 678 675 704 q 608 643 642 652 q 541 615 571 628 q 479 590 510 602 q 418 564 449 578 q 350 536 387 551 l 350 210 l 897 210 q 970 178 948 210 q 993 106 993 145 q 986 64 993 84 q 966 28 979 43 q 933 4 952 12 q 888 0 914 -4 l 897 -1 l 269 -1 z "},"Ń":{"ha":977,"x_min":28,"x_max":924,"o":"m 28 1143 q 58 1219 28 1195 q 127 1242 88 1242 q 183 1229 156 1242 q 228 1190 210 1215 l 712 442 l 712 1143 q 721 1188 712 1169 q 745 1219 730 1207 q 779 1238 760 1232 q 818 1244 798 1244 q 888 1219 856 1244 q 924 1145 921 1194 l 924 98 q 893 25 924 49 q 822 1 863 1 q 768 14 795 1 q 724 52 742 27 l 241 798 q 242 630 241 720 q 243 448 243 540 q 245 265 244 355 q 245 98 245 175 q 213 24 245 46 q 141 1 180 1 q 99 8 119 1 q 63 27 79 15 q 39 57 47 39 q 34 98 31 75 l 28 1143 m 589 1332 q 553 1296 574 1306 q 511 1286 533 1286 q 465 1300 488 1286 q 427 1336 442 1314 q 409 1384 412 1358 q 422 1434 406 1411 q 453 1484 437 1458 q 484 1534 469 1510 q 521 1568 500 1557 q 563 1579 541 1579 q 608 1567 586 1579 q 644 1535 629 1554 q 663 1490 658 1515 q 655 1438 667 1465 l 589 1332 z "},"Ň":{"ha":977,"x_min":28,"x_max":924,"o":"m 28 1143 q 58 1219 28 1195 q 127 1242 88 1242 q 183 1229 156 1242 q 228 1190 210 1215 l 712 442 l 712 1143 q 721 1188 712 1169 q 745 1219 730 1207 q 779 1238 760 1232 q 818 1244 798 1244 q 888 1219 856 1244 q 924 1145 921 1194 l 924 98 q 893 25 924 49 q 822 1 863 1 q 768 14 795 1 q 724 52 742 27 l 241 798 q 242 630 241 720 q 243 448 243 540 q 245 265 244 355 q 245 98 245 175 q 213 24 245 46 q 141 1 180 1 q 99 8 119 1 q 63 27 79 15 q 39 57 47 39 q 34 98 31 75 l 28 1143 m 625 1584 q 664 1608 643 1605 q 705 1603 685 1611 q 741 1576 724 1594 q 766 1539 757 1558 q 775 1501 776 1520 q 761 1472 774 1482 l 606 1328 q 506 1283 556 1283 q 453 1295 477 1283 q 404 1328 429 1306 l 285 1438 q 263 1503 255 1469 q 295 1561 271 1537 q 349 1594 319 1586 q 392 1584 378 1603 q 451 1530 418 1561 q 510 1476 484 1499 l 625 1584 z "},"Ņ":{"ha":977,"x_min":28,"x_max":924,"o":"m 28 1143 q 58 1219 28 1195 q 127 1242 88 1242 q 183 1229 156 1242 q 228 1190 210 1215 l 712 442 l 712 1143 q 721 1188 712 1169 q 745 1219 730 1207 q 779 1238 760 1232 q 818 1244 798 1244 q 888 1219 856 1244 q 924 1145 921 1194 l 924 98 q 893 25 924 49 q 822 1 863 1 q 768 14 795 1 q 724 52 742 27 l 241 798 q 242 630 241 720 q 243 448 243 540 q 245 265 244 355 q 245 98 245 175 q 213 24 245 46 q 141 1 180 1 q 99 8 119 1 q 63 27 79 15 q 39 57 47 39 q 34 98 31 75 l 28 1143 m 519 -296 q 484 -323 505 -316 q 445 -331 464 -331 q 390 -317 416 -331 q 349 -280 363 -302 q 338 -229 335 -258 q 369 -172 340 -201 q 389 -142 389 -152 q 384 -128 389 -138 q 370 -103 378 -118 q 355 -46 354 -73 q 370 1 357 -19 q 406 33 384 22 q 453 45 429 45 q 501 32 477 45 q 541 -8 525 19 q 581 -141 581 -76 q 519 -297 581 -222 l 519 -296 z "},"Ñ":{"ha":977,"x_min":28,"x_max":924,"o":"m 28 1143 q 58 1219 28 1195 q 127 1242 88 1242 q 183 1229 156 1242 q 228 1190 210 1215 l 712 442 l 712 1143 q 721 1188 712 1169 q 745 1219 730 1207 q 779 1238 760 1232 q 818 1244 798 1244 q 888 1219 856 1244 q 924 1145 921 1194 l 924 98 q 893 25 924 49 q 822 1 863 1 q 768 14 795 1 q 724 52 742 27 l 241 798 q 242 630 241 720 q 243 448 243 540 q 245 265 244 355 q 245 98 245 175 q 213 24 245 46 q 141 1 180 1 q 99 8 119 1 q 63 27 79 15 q 39 57 47 39 q 34 98 31 75 l 28 1143 m 403 1360 q 369 1310 393 1326 q 316 1294 345 1294 q 277 1303 296 1294 q 243 1326 258 1312 q 220 1362 228 1341 q 217 1405 213 1382 q 245 1481 227 1447 q 291 1537 264 1515 q 349 1571 317 1560 q 415 1581 380 1583 q 469 1571 445 1580 q 512 1550 492 1563 q 547 1524 532 1538 q 576 1496 563 1510 q 593 1477 585 1487 q 605 1468 602 1468 q 605 1500 601 1474 q 637 1559 612 1539 q 696 1579 662 1579 q 736 1571 716 1579 q 772 1548 757 1564 q 793 1510 787 1533 q 795 1459 800 1488 q 774 1394 787 1424 q 740 1341 761 1364 q 688 1303 719 1317 q 617 1287 658 1289 l 618 1287 q 557 1293 583 1286 q 510 1313 530 1301 q 474 1341 490 1325 q 445 1373 458 1358 q 426 1392 434 1383 q 411 1398 418 1401 q 404 1362 414 1398 l 403 1360 z "},"Ó":{"ha":1054,"x_min":41,"x_max":1009,"o":"m 529 0 q 321 55 412 0 q 168 197 231 110 q 73 394 106 285 q 41 612 41 503 q 71 837 41 724 q 163 1040 102 949 q 315 1186 224 1130 q 529 1242 407 1242 q 676 1215 609 1242 q 797 1142 743 1188 q 890 1033 850 1096 q 957 897 930 970 q 996 747 983 825 q 1008 593 1009 669 q 976 374 1006 480 q 886 184 945 267 q 736 51 826 102 q 529 0 647 0 m 530 209 q 647 241 597 209 q 730 325 697 273 q 781 445 764 377 q 799 585 798 513 q 783 740 799 661 q 732 884 766 819 q 646 989 697 948 q 526 1029 595 1029 q 408 991 458 1029 q 323 892 357 954 q 272 756 289 831 q 255 608 255 681 q 269 481 255 551 q 316 351 283 411 q 401 250 349 290 q 530 209 454 209 m 637 1344 q 602 1308 623 1318 q 560 1298 582 1298 q 514 1312 537 1298 q 476 1348 491 1326 q 458 1396 461 1370 q 471 1446 454 1423 q 502 1496 486 1470 q 533 1546 518 1522 q 570 1580 549 1569 q 612 1591 590 1591 q 656 1579 635 1591 q 692 1547 678 1567 q 711 1502 707 1527 q 704 1450 716 1477 l 637 1344 z "},"Ŏ":{"ha":1054,"x_min":41,"x_max":1009,"o":"m 529 0 q 321 55 412 0 q 168 197 231 110 q 73 394 106 285 q 41 612 41 503 q 71 837 41 724 q 163 1040 102 949 q 315 1186 224 1130 q 529 1242 407 1242 q 676 1215 609 1242 q 797 1142 743 1188 q 890 1033 850 1096 q 957 897 930 970 q 996 747 983 825 q 1008 593 1009 669 q 976 374 1006 480 q 886 184 945 267 q 736 51 826 102 q 529 0 647 0 m 530 209 q 647 241 597 209 q 730 325 697 273 q 781 445 764 377 q 799 585 798 513 q 783 740 799 661 q 732 884 766 819 q 646 989 697 948 q 526 1029 595 1029 q 408 991 458 1029 q 323 892 357 954 q 272 756 289 831 q 255 608 255 681 q 269 481 255 551 q 316 351 283 411 q 401 250 349 290 q 530 209 454 209 m 513 1493 q 555 1468 529 1468 q 583 1477 570 1468 q 608 1500 595 1487 q 683 1537 646 1539 q 745 1510 720 1535 q 775 1444 769 1484 q 757 1371 781 1405 q 661 1300 713 1322 q 557 1278 609 1278 q 440 1307 494 1278 q 354 1385 387 1336 q 336 1442 335 1415 q 352 1490 338 1469 q 389 1524 366 1511 q 437 1537 412 1537 q 479 1527 458 1537 q 514 1493 499 1516 l 513 1493 m 765 1381 q 757 1371 764 1375 q 765 1381 764 1378 z "},"Ô":{"ha":1054,"x_min":41,"x_max":1009,"o":"m 529 0 q 321 55 412 0 q 168 197 231 110 q 73 394 106 285 q 41 612 41 503 q 71 837 41 724 q 163 1040 102 949 q 315 1186 224 1130 q 529 1242 407 1242 q 676 1215 609 1242 q 797 1142 743 1188 q 890 1033 850 1096 q 957 897 930 970 q 996 747 983 825 q 1008 593 1009 669 q 976 374 1006 480 q 886 184 945 267 q 736 51 826 102 q 529 0 647 0 m 530 209 q 647 241 597 209 q 730 325 697 273 q 781 445 764 377 q 799 585 798 513 q 783 740 799 661 q 732 884 766 819 q 646 989 697 948 q 526 1029 595 1029 q 408 991 458 1029 q 323 892 357 954 q 272 756 289 831 q 255 608 255 681 q 269 481 255 551 q 316 351 283 411 q 401 250 349 290 q 530 209 454 209 m 420 1312 q 382 1287 403 1290 q 341 1293 361 1284 q 305 1320 321 1302 q 279 1356 289 1337 q 271 1394 270 1375 q 285 1424 271 1413 l 425 1552 q 525 1596 475 1596 q 578 1585 553 1596 q 627 1552 602 1573 l 746 1442 q 768 1377 776 1411 q 736 1318 760 1343 q 682 1285 712 1294 q 639 1295 652 1276 q 580 1350 613 1318 q 521 1404 547 1381 l 420 1312 z "},"Ö":{"ha":1054,"x_min":41,"x_max":1009,"o":"m 529 0 q 321 55 412 0 q 168 197 231 110 q 73 394 106 285 q 41 612 41 503 q 71 837 41 724 q 163 1040 102 949 q 315 1186 224 1130 q 529 1242 407 1242 q 676 1215 609 1242 q 797 1142 743 1188 q 890 1033 850 1096 q 957 897 930 970 q 996 747 983 825 q 1008 593 1009 669 q 976 374 1006 480 q 886 184 945 267 q 736 51 826 102 q 529 0 647 0 m 530 209 q 647 241 597 209 q 730 325 697 273 q 781 445 764 377 q 799 585 798 513 q 783 740 799 661 q 732 884 766 819 q 646 989 697 948 q 526 1029 595 1029 q 408 991 458 1029 q 323 892 357 954 q 272 756 289 831 q 255 608 255 681 q 269 481 255 551 q 316 351 283 411 q 401 250 349 290 q 530 209 454 209 m 511 1402 q 503 1361 511 1381 q 479 1326 494 1341 q 444 1303 464 1312 q 403 1294 425 1294 q 360 1303 380 1294 q 326 1326 340 1312 q 302 1361 311 1341 q 294 1402 294 1381 q 326 1480 294 1449 q 403 1511 357 1511 q 444 1503 425 1511 q 479 1480 464 1495 q 503 1445 494 1465 q 511 1402 511 1426 m 764 1402 q 755 1361 764 1381 q 731 1326 746 1341 q 696 1303 716 1312 q 655 1294 677 1294 q 612 1303 632 1294 q 578 1326 593 1312 q 555 1361 563 1341 q 547 1402 547 1381 q 578 1480 547 1449 q 655 1511 609 1511 q 696 1503 677 1511 q 731 1480 716 1495 q 755 1445 746 1465 q 764 1402 764 1426 z "},"Ò":{"ha":1054,"x_min":41,"x_max":1009,"o":"m 529 0 q 321 55 412 0 q 168 197 231 110 q 73 394 106 285 q 41 612 41 503 q 71 837 41 724 q 163 1040 102 949 q 315 1186 224 1130 q 529 1242 407 1242 q 676 1215 609 1242 q 797 1142 743 1188 q 890 1033 850 1096 q 957 897 930 970 q 996 747 983 825 q 1008 593 1009 669 q 976 374 1006 480 q 886 184 945 267 q 736 51 826 102 q 529 0 647 0 m 530 209 q 647 241 597 209 q 730 325 697 273 q 781 445 764 377 q 799 585 798 513 q 783 740 799 661 q 732 884 766 819 q 646 989 697 948 q 526 1029 595 1029 q 408 991 458 1029 q 323 892 357 954 q 272 756 289 831 q 255 608 255 681 q 269 481 255 551 q 316 351 283 411 q 401 250 349 290 q 530 209 454 209 m 415 1453 q 407 1503 403 1478 q 425 1548 411 1529 q 462 1579 439 1567 q 507 1591 484 1591 q 550 1580 529 1591 q 587 1546 571 1569 l 650 1446 q 661 1396 665 1423 q 644 1348 658 1370 q 606 1312 629 1326 q 560 1298 583 1298 q 517 1308 537 1298 q 483 1344 496 1318 l 486 1341 q 452 1393 469 1367 q 419 1444 435 1419 l 415 1453 z "},"Ő":{"ha":1054,"x_min":41,"x_max":1009,"o":"m 529 0 q 321 55 412 0 q 168 197 231 110 q 73 394 106 285 q 41 612 41 503 q 71 837 41 724 q 163 1040 102 949 q 315 1186 224 1130 q 529 1242 407 1242 q 676 1215 609 1242 q 797 1142 743 1188 q 890 1033 850 1096 q 957 897 930 970 q 996 747 983 825 q 1008 593 1009 669 q 976 374 1006 480 q 886 184 945 267 q 736 51 826 102 q 529 0 647 0 m 530 209 q 647 241 597 209 q 730 325 697 273 q 781 445 764 377 q 799 585 798 513 q 783 740 799 661 q 732 884 766 819 q 646 989 697 948 q 526 1029 595 1029 q 408 991 458 1029 q 323 892 357 954 q 272 756 289 831 q 255 608 255 681 q 269 481 255 551 q 316 351 283 411 q 401 250 349 290 q 530 209 454 209 m 456 1352 l 458 1355 q 423 1319 444 1329 q 381 1309 403 1309 q 335 1323 358 1309 q 297 1359 312 1337 q 279 1407 282 1381 q 292 1457 275 1434 q 323 1507 307 1481 q 354 1557 339 1533 q 391 1591 370 1580 q 433 1602 411 1602 q 477 1590 456 1602 q 513 1558 499 1577 q 532 1513 528 1538 q 525 1461 537 1488 l 456 1352 m 732 1343 l 735 1345 q 701 1310 720 1320 q 658 1299 681 1299 q 612 1314 635 1299 q 574 1350 589 1328 q 557 1398 560 1373 q 568 1449 553 1424 l 568 1447 q 600 1497 583 1472 q 631 1548 616 1523 q 667 1583 647 1572 q 709 1594 688 1594 q 755 1581 732 1594 q 791 1550 777 1569 q 810 1504 806 1530 q 802 1451 814 1478 l 732 1343 z "},"Ō":{"ha":1054,"x_min":41,"x_max":1009,"o":"m 529 0 q 321 55 412 0 q 168 197 231 110 q 73 394 106 285 q 41 612 41 503 q 71 837 41 724 q 163 1040 102 949 q 315 1186 224 1130 q 529 1242 407 1242 q 676 1215 609 1242 q 797 1142 743 1188 q 890 1033 850 1096 q 957 897 930 970 q 996 747 983 825 q 1008 593 1009 669 q 976 374 1006 480 q 886 184 945 267 q 736 51 826 102 q 529 0 647 0 m 530 209 q 647 241 597 209 q 730 325 697 273 q 781 445 764 377 q 799 585 798 513 q 783 740 799 661 q 732 884 766 819 q 646 989 697 948 q 526 1029 595 1029 q 408 991 458 1029 q 323 892 357 954 q 272 756 289 831 q 255 608 255 681 q 269 481 255 551 q 316 351 283 411 q 401 250 349 290 q 530 209 454 209 m 328 1280 q 255 1311 278 1280 q 232 1379 232 1341 q 256 1448 232 1416 q 327 1482 279 1480 l 726 1482 q 795 1451 773 1482 q 818 1382 818 1420 q 811 1342 818 1362 q 792 1308 804 1322 q 761 1286 780 1294 q 718 1282 742 1278 l 726 1280 l 328 1280 z "},"Ø":{"ha":1054,"x_min":41,"x_max":1008,"o":"m 856 1080 q 923 975 894 1032 q 971 854 952 917 q 999 724 990 791 q 1008 593 1008 658 q 976 374 1006 480 q 886 184 945 267 q 736 51 826 102 q 529 0 647 0 q 419 14 471 0 q 323 53 368 27 l 321 50 q 289 9 311 22 q 240 -4 267 -4 q 192 7 216 -4 q 151 38 168 19 q 129 83 134 57 q 138 137 123 109 l 168 195 q 73 393 104 283 q 41 612 41 502 q 71 837 41 724 q 163 1040 102 949 q 315 1186 224 1130 q 529 1242 407 1242 q 694 1207 620 1242 q 730 1239 709 1229 q 774 1249 751 1249 q 822 1238 799 1249 q 861 1206 845 1226 q 880 1160 876 1187 q 869 1105 883 1134 l 856 1080 m 530 209 q 647 241 597 209 q 730 325 697 273 q 781 445 764 377 q 799 585 798 513 q 785 727 799 655 q 742 861 770 799 l 419 237 q 470 216 442 224 q 530 209 498 209 m 255 608 q 262 517 255 566 q 286 422 270 469 l 594 1017 q 526 1029 563 1029 q 408 991 458 1029 q 323 892 357 954 q 272 756 289 831 q 255 608 255 681 z "},"Ǿ":{"ha":1054,"x_min":41,"x_max":1009,"o":"m 849 1089 q 970 859 930 991 q 1008 593 1009 727 q 976 374 1006 480 q 886 184 945 267 q 736 51 826 102 q 529 0 647 0 q 414 16 468 0 q 315 58 361 31 l 309 49 q 277 7 298 20 q 228 -5 255 -5 q 180 6 203 -5 q 139 37 156 18 q 117 81 122 56 q 126 136 111 107 l 163 205 q 71 399 102 293 q 41 612 41 506 q 71 837 41 724 q 163 1040 102 949 q 315 1186 224 1130 q 529 1242 407 1242 q 686 1211 613 1242 q 721 1239 701 1230 q 762 1248 741 1248 q 810 1236 787 1248 q 848 1205 833 1225 q 867 1159 864 1185 q 857 1104 871 1133 l 849 1089 m 530 209 q 647 241 597 209 q 730 325 697 273 q 781 445 764 377 q 799 585 798 513 q 783 733 799 658 q 736 872 768 808 l 410 243 q 530 209 463 209 m 255 608 q 261 524 255 568 q 281 435 267 479 l 585 1020 q 526 1029 560 1029 q 408 991 458 1029 q 323 892 357 954 q 272 756 289 831 q 255 608 255 681 m 627 1332 q 591 1296 612 1306 q 549 1286 571 1286 q 503 1300 526 1286 q 465 1336 480 1314 q 447 1384 450 1358 q 460 1434 444 1411 q 491 1484 475 1458 q 522 1534 507 1510 q 559 1568 538 1557 q 601 1579 579 1579 q 646 1567 624 1579 q 682 1535 667 1554 q 701 1490 696 1515 q 693 1438 705 1465 l 627 1332 z "},"Õ":{"ha":1054,"x_min":41,"x_max":1009,"o":"m 529 0 q 321 55 412 0 q 168 197 231 110 q 73 394 106 285 q 41 612 41 503 q 71 837 41 724 q 163 1040 102 949 q 315 1186 224 1130 q 529 1242 407 1242 q 676 1215 609 1242 q 797 1142 743 1188 q 890 1033 850 1096 q 957 897 930 970 q 996 747 983 825 q 1008 593 1009 669 q 976 374 1006 480 q 886 184 945 267 q 736 51 826 102 q 529 0 647 0 m 530 209 q 647 241 597 209 q 730 325 697 273 q 781 445 764 377 q 799 585 798 513 q 783 740 799 661 q 732 884 766 819 q 646 989 697 948 q 526 1029 595 1029 q 408 991 458 1029 q 323 892 357 954 q 272 756 289 831 q 255 608 255 681 q 269 481 255 551 q 316 351 283 411 q 401 250 349 290 q 530 209 454 209 m 441 1360 q 407 1310 431 1326 q 354 1294 382 1294 q 315 1303 334 1294 q 281 1326 296 1312 q 258 1362 266 1341 q 255 1405 251 1382 q 283 1481 264 1447 q 329 1537 302 1515 q 387 1571 355 1560 q 453 1581 418 1583 q 507 1571 483 1580 q 550 1550 530 1563 q 585 1524 570 1538 q 614 1496 601 1510 q 631 1477 623 1487 q 643 1468 640 1468 q 643 1500 639 1474 q 675 1559 650 1539 q 734 1579 700 1579 q 774 1571 754 1579 q 810 1548 795 1564 q 831 1510 825 1533 q 833 1459 838 1488 q 812 1394 825 1424 q 778 1341 799 1364 q 726 1303 757 1317 q 655 1287 696 1289 l 656 1287 q 595 1293 621 1286 q 548 1313 568 1301 q 512 1341 528 1325 q 483 1373 496 1358 q 464 1392 472 1383 q 449 1398 456 1401 q 442 1362 452 1398 l 441 1360 z "},"Œ":{"ha":1389,"x_min":85,"x_max":1328,"o":"m 1229 -1 q 962 -1 1072 -1 q 778 -1 852 -1 q 661 0 704 0 q 595 1 617 0 q 564 2 572 1 q 553 4 556 3 q 370 54 450 8 q 230 172 289 100 q 136 337 171 244 q 88 528 100 430 q 86 564 87 544 q 85 606 85 585 q 115 827 85 716 q 202 1029 144 939 q 348 1178 260 1119 q 553 1241 435 1237 l 548 1240 q 597 1242 562 1241 q 709 1245 632 1244 q 911 1246 785 1246 q 1232 1246 1036 1246 q 1305 1214 1283 1246 q 1328 1142 1328 1181 q 1321 1100 1328 1120 q 1301 1064 1314 1080 q 1268 1040 1287 1048 q 1223 1036 1249 1032 l 1232 1035 l 684 1035 l 684 726 l 1134 726 q 1208 693 1185 726 q 1230 621 1230 661 q 1223 579 1230 600 q 1203 543 1217 559 q 1171 519 1190 528 q 1126 515 1152 511 l 1134 514 l 684 514 l 684 210 l 1229 210 q 1303 178 1280 210 q 1325 106 1325 145 q 1318 64 1325 84 q 1298 28 1312 43 q 1265 4 1284 12 q 1221 0 1246 -4 l 1229 -1 m 300 602 q 300 576 300 589 q 301 552 300 564 q 318 450 305 499 q 352 359 331 401 q 403 286 373 317 q 471 235 433 254 l 471 1005 q 397 939 429 983 q 343 840 365 895 q 311 722 321 784 q 300 602 300 661 z "},"Ŕ":{"ha":944,"x_min":45,"x_max":913,"o":"m 155 1249 q 226 1225 195 1249 q 255 1156 256 1202 q 368 1215 311 1194 q 486 1242 426 1236 l 481 1241 q 513 1244 499 1244 q 538 1244 526 1244 q 692 1216 623 1244 q 810 1141 761 1188 q 886 1033 859 1095 q 913 905 913 971 q 873 751 913 829 q 750 610 833 674 q 627 541 699 574 q 487 492 556 509 l 850 190 q 884 117 886 157 q 861 47 883 77 q 802 5 838 18 q 728 18 765 -7 q 600 117 656 71 q 491 210 544 164 q 382 303 438 256 q 255 403 326 350 l 255 100 q 223 24 255 49 q 151 -1 191 -1 q 79 24 111 -1 q 45 99 47 50 l 45 1158 q 54 1198 45 1180 q 79 1226 64 1215 q 115 1243 95 1237 q 155 1249 134 1249 m 255 671 q 467 700 366 671 q 631 780 567 728 l 629 780 q 684 844 666 811 q 701 909 701 876 q 690 958 701 935 q 659 1000 680 982 q 610 1028 639 1017 q 544 1039 581 1039 q 530 1039 537 1039 q 511 1038 522 1039 q 437 1018 475 1032 q 366 980 400 1004 q 304 924 332 956 q 255 852 275 892 l 255 671 m 572 1332 q 537 1296 557 1306 q 495 1286 517 1286 q 449 1300 472 1286 q 411 1336 426 1314 q 393 1384 396 1358 q 406 1434 389 1411 q 437 1484 420 1458 q 468 1534 453 1510 q 505 1568 484 1557 q 547 1579 525 1579 q 591 1567 570 1579 q 627 1535 613 1554 q 646 1490 642 1515 q 639 1438 651 1465 l 572 1332 z "},"Ř":{"ha":944,"x_min":45,"x_max":913,"o":"m 155 1249 q 226 1225 195 1249 q 255 1156 256 1202 q 368 1215 311 1194 q 486 1242 426 1236 l 481 1241 q 513 1244 499 1244 q 538 1244 526 1244 q 692 1216 623 1244 q 810 1141 761 1188 q 886 1033 859 1095 q 913 905 913 971 q 873 751 913 829 q 750 610 833 674 q 627 541 699 574 q 487 492 556 509 l 850 190 q 884 117 886 157 q 861 47 883 77 q 802 5 838 18 q 728 18 765 -7 q 600 117 656 71 q 491 210 544 164 q 382 303 438 256 q 255 403 326 350 l 255 100 q 223 24 255 49 q 151 -1 191 -1 q 79 24 111 -1 q 45 99 47 50 l 45 1158 q 54 1198 45 1180 q 79 1226 64 1215 q 115 1243 95 1237 q 155 1249 134 1249 m 255 671 q 467 700 366 671 q 631 780 567 728 l 629 780 q 684 844 666 811 q 701 909 701 876 q 690 958 701 935 q 659 1000 680 982 q 610 1028 639 1017 q 544 1039 581 1039 q 530 1039 537 1039 q 511 1038 522 1039 q 437 1018 475 1032 q 366 980 400 1004 q 304 924 332 956 q 255 852 275 892 l 255 671 m 609 1584 q 648 1608 627 1605 q 688 1603 669 1611 q 724 1576 708 1594 q 750 1539 741 1558 q 759 1501 760 1520 q 745 1472 758 1482 l 590 1328 q 490 1283 540 1283 q 437 1295 461 1283 q 388 1328 412 1306 l 269 1438 q 247 1503 239 1469 q 279 1561 255 1537 q 332 1594 302 1586 q 376 1584 362 1603 q 435 1530 401 1561 q 494 1476 468 1499 l 609 1584 z "},"Ŗ":{"ha":944,"x_min":45,"x_max":913,"o":"m 155 1249 q 226 1225 195 1249 q 255 1156 256 1202 q 368 1215 311 1194 q 486 1242 426 1236 l 481 1241 q 513 1244 499 1244 q 538 1244 526 1244 q 692 1216 623 1244 q 810 1141 761 1188 q 886 1033 859 1095 q 913 905 913 971 q 873 751 913 829 q 750 610 833 674 q 627 541 699 574 q 487 492 556 509 l 850 190 q 884 117 886 157 q 861 47 883 77 q 802 5 838 18 q 728 18 765 -7 q 600 117 656 71 q 491 210 544 164 q 382 303 438 256 q 255 403 326 350 l 255 100 q 223 24 255 49 q 151 -1 191 -1 q 79 24 111 -1 q 45 99 47 50 l 45 1158 q 54 1198 45 1180 q 79 1226 64 1215 q 115 1243 95 1237 q 155 1249 134 1249 m 255 671 q 467 700 366 671 q 631 780 567 728 l 629 780 q 684 844 666 811 q 701 909 701 876 q 690 958 701 935 q 659 1000 680 982 q 610 1028 639 1017 q 544 1039 581 1039 q 530 1039 537 1039 q 511 1038 522 1039 q 437 1018 475 1032 q 366 980 400 1004 q 304 924 332 956 q 255 852 275 892 l 255 671 m 522 -298 q 487 -326 507 -319 q 448 -334 467 -334 q 393 -319 419 -334 q 352 -283 366 -305 q 340 -232 338 -260 q 372 -175 343 -203 q 392 -145 392 -155 q 387 -131 392 -141 q 373 -106 381 -121 q 358 -49 357 -76 q 373 -1 359 -22 q 409 31 387 19 q 456 42 431 42 q 504 29 480 42 q 544 -11 528 16 q 583 -144 583 -79 q 522 -300 583 -225 l 522 -298 z "},"Ś":{"ha":959,"x_min":39,"x_max":921,"o":"m 251 384 q 286 302 263 336 q 337 245 309 267 q 397 211 365 222 q 460 199 429 199 q 553 213 510 199 q 627 250 595 227 q 679 304 659 273 q 703 370 699 335 l 703 369 q 693 453 707 415 q 652 519 680 491 q 585 561 625 547 q 499 574 545 575 q 348 580 426 571 q 205 621 270 589 q 100 712 141 652 q 60 872 60 772 q 92 1007 60 940 q 184 1127 123 1074 q 331 1213 244 1180 q 526 1245 418 1245 q 670 1212 605 1240 q 783 1139 735 1184 q 861 1036 831 1095 q 899 907 891 977 q 892 855 905 878 q 859 819 880 833 q 809 800 837 804 q 756 801 781 795 q 711 825 731 807 q 688 875 692 844 q 663 945 681 914 q 619 997 644 975 q 563 1030 594 1019 q 502 1043 532 1042 q 334 1001 395 1046 q 270 879 274 956 q 297 816 267 836 q 368 788 327 796 q 454 780 410 780 q 528 777 499 780 q 688 742 614 770 q 814 662 761 713 q 894 536 867 610 q 916 363 921 461 q 876 222 911 289 q 780 105 841 156 q 635 25 719 54 q 449 -3 551 -4 q 316 19 381 -3 q 196 85 251 41 q 100 199 141 130 q 39 361 58 267 q 72 449 39 419 q 145 479 104 479 q 213 455 182 479 q 251 384 244 431 m 595 1352 q 560 1316 581 1326 q 518 1306 540 1306 q 472 1320 495 1306 q 434 1356 449 1335 q 416 1404 419 1378 q 429 1454 412 1431 q 460 1504 444 1478 q 491 1554 476 1530 q 528 1588 507 1577 q 570 1599 548 1599 q 614 1587 593 1599 q 650 1555 636 1575 q 669 1510 665 1535 q 662 1458 674 1485 l 595 1352 z "},"Š":{"ha":959,"x_min":39,"x_max":921,"o":"m 251 384 q 286 302 263 336 q 337 245 309 267 q 397 211 365 222 q 460 199 429 199 q 553 213 510 199 q 627 250 595 227 q 679 304 659 273 q 703 370 699 335 l 703 369 q 693 453 707 415 q 652 519 680 491 q 585 561 625 547 q 499 574 545 575 q 348 580 426 571 q 205 621 270 589 q 100 712 141 652 q 60 872 60 772 q 92 1007 60 940 q 184 1127 123 1074 q 331 1213 244 1180 q 526 1245 418 1245 q 670 1212 605 1240 q 783 1139 735 1184 q 861 1036 831 1095 q 899 907 891 977 q 892 855 905 878 q 859 819 880 833 q 809 800 837 804 q 756 801 781 795 q 711 825 731 807 q 688 875 692 844 q 663 945 681 914 q 619 997 644 975 q 563 1030 594 1019 q 502 1043 532 1042 q 334 1001 395 1046 q 270 879 274 956 q 297 816 267 836 q 368 788 327 796 q 454 780 410 780 q 528 777 499 780 q 688 742 614 770 q 814 662 761 713 q 894 536 867 610 q 916 363 921 461 q 876 222 911 289 q 780 105 841 156 q 635 25 719 54 q 449 -3 551 -4 q 316 19 381 -3 q 196 85 251 41 q 100 199 141 130 q 39 361 58 267 q 72 449 39 419 q 145 479 104 479 q 213 455 182 479 q 251 384 244 431 m 629 1603 q 668 1627 647 1624 q 709 1622 689 1630 q 745 1595 728 1613 q 770 1558 761 1577 q 779 1520 780 1539 q 765 1491 779 1501 l 610 1347 q 510 1302 560 1302 q 457 1314 481 1302 q 408 1347 433 1325 l 289 1457 q 267 1522 259 1488 q 299 1580 275 1556 q 353 1613 323 1605 q 396 1603 382 1622 q 455 1549 422 1580 q 514 1495 488 1518 l 629 1603 z "},"Ş":{"ha":959,"x_min":39,"x_max":921,"o":"m 401 -359 q 349 -326 368 -354 q 330 -266 330 -297 q 350 -203 330 -229 q 418 -182 370 -178 q 374 -161 392 -176 q 347 -126 357 -146 q 332 -83 336 -106 q 327 -37 327 -60 q 328 -12 327 -23 q 330 7 328 0 l 330 15 q 233 59 279 30 q 149 131 187 88 q 83 231 111 174 q 39 361 54 288 q 72 449 39 419 q 145 479 104 479 q 213 455 182 479 q 251 384 244 431 q 286 302 263 336 q 337 245 309 267 q 397 211 365 222 q 460 199 429 199 q 553 213 510 199 q 627 250 595 227 q 679 304 659 273 q 703 370 699 335 l 703 369 q 693 453 707 415 q 652 519 680 491 q 585 561 625 547 q 499 574 545 575 q 348 580 426 571 q 205 621 270 589 q 100 712 141 652 q 60 872 60 772 q 92 1007 60 940 q 184 1127 123 1074 q 331 1213 244 1180 q 526 1245 418 1245 q 670 1212 605 1240 q 783 1139 735 1184 q 861 1036 831 1095 q 899 907 891 977 q 892 855 905 878 q 859 819 880 833 q 809 800 837 804 q 756 801 781 795 q 711 825 731 807 q 688 875 692 844 q 663 945 681 914 q 619 997 644 975 q 563 1030 594 1019 q 502 1043 532 1042 q 334 1001 395 1046 q 270 879 274 956 q 297 816 267 836 q 368 788 327 796 q 454 780 410 780 q 528 777 499 780 q 688 742 614 770 q 814 662 761 713 q 894 536 867 610 q 916 363 921 461 q 881 233 911 296 q 799 122 850 171 q 675 41 747 73 q 514 0 602 8 l 514 -22 q 590 -90 564 -43 q 616 -187 616 -136 q 605 -252 616 -220 q 573 -309 594 -283 q 519 -349 552 -334 q 444 -363 487 -363 q 421 -363 433 -363 q 399 -359 410 -362 l 401 -359 z "},"Ŝ":{"ha":959,"x_min":39,"x_max":921,"o":"m 251 384 q 286 302 263 336 q 337 245 309 267 q 397 211 365 222 q 460 199 429 199 q 553 213 510 199 q 627 250 595 227 q 679 304 659 273 q 703 370 699 335 l 703 369 q 693 453 707 415 q 652 519 680 491 q 585 561 625 547 q 499 574 545 575 q 348 580 426 571 q 205 621 270 589 q 100 712 141 652 q 60 872 60 772 q 92 1007 60 940 q 184 1127 123 1074 q 331 1213 244 1180 q 526 1245 418 1245 q 670 1212 605 1240 q 783 1139 735 1184 q 861 1036 831 1095 q 899 907 891 977 q 892 855 905 878 q 859 819 880 833 q 809 800 837 804 q 756 801 781 795 q 711 825 731 807 q 688 875 692 844 q 663 945 681 914 q 619 997 644 975 q 563 1030 594 1019 q 502 1043 532 1042 q 334 1001 395 1046 q 270 879 274 956 q 297 816 267 836 q 368 788 327 796 q 454 780 410 780 q 528 777 499 780 q 688 742 614 770 q 814 662 761 713 q 894 536 867 610 q 916 363 921 461 q 876 222 911 289 q 780 105 841 156 q 635 25 719 54 q 449 -3 551 -4 q 316 19 381 -3 q 196 85 251 41 q 100 199 141 130 q 39 361 58 267 q 72 449 39 419 q 145 479 104 479 q 213 455 182 479 q 251 384 244 431 m 378 1302 q 340 1278 361 1280 q 299 1284 319 1275 q 263 1310 279 1293 q 237 1347 247 1328 q 229 1385 228 1366 q 243 1415 229 1404 l 382 1542 q 483 1587 433 1587 q 536 1575 511 1587 q 585 1542 560 1564 l 704 1432 q 726 1367 734 1401 q 694 1309 718 1333 q 640 1276 670 1284 q 597 1286 610 1267 q 538 1340 571 1309 q 479 1394 505 1371 l 378 1302 z "},"Ș":{"ha":959,"x_min":39,"x_max":921,"o":"m 251 384 q 286 302 263 336 q 337 245 309 267 q 397 211 365 222 q 460 199 429 199 q 553 213 510 199 q 627 250 595 227 q 679 304 659 273 q 703 370 699 335 l 703 369 q 693 453 707 415 q 652 519 680 491 q 585 561 625 547 q 499 574 545 575 q 348 580 426 571 q 205 621 270 589 q 100 712 141 652 q 60 872 60 772 q 92 1007 60 940 q 184 1127 123 1074 q 331 1213 244 1180 q 526 1245 418 1245 q 670 1212 605 1240 q 783 1139 735 1184 q 861 1036 831 1095 q 899 907 891 977 q 892 855 905 878 q 859 819 880 833 q 809 800 837 804 q 756 801 781 795 q 711 825 731 807 q 688 875 692 844 q 663 945 681 914 q 619 997 644 975 q 563 1030 594 1019 q 502 1043 532 1042 q 334 1001 395 1046 q 270 879 274 956 q 297 816 267 836 q 368 788 327 796 q 454 780 410 780 q 528 777 499 780 q 688 742 614 770 q 814 662 761 713 q 894 536 867 610 q 916 363 921 461 q 876 222 911 289 q 780 105 841 156 q 635 25 719 54 q 449 -3 551 -4 q 316 19 381 -3 q 196 85 251 41 q 100 199 141 130 q 39 361 58 267 q 72 449 39 419 q 145 479 104 479 q 213 455 182 479 q 251 384 244 431 m 522 -399 q 487 -427 507 -419 q 448 -434 467 -434 q 393 -420 419 -434 q 352 -383 366 -406 q 340 -332 338 -361 q 372 -275 343 -304 q 392 -245 392 -255 q 387 -231 392 -241 q 373 -206 381 -221 q 358 -149 357 -176 q 373 -102 359 -122 q 409 -70 387 -81 q 456 -58 431 -58 q 504 -71 480 -58 q 544 -111 528 -84 q 583 -244 583 -179 q 522 -400 583 -326 l 522 -399 z "},"Ŧ":{"ha":918,"x_min":18,"x_max":878,"o":"m 551 572 l 551 99 q 515 25 549 49 q 441 3 481 1 q 370 28 401 4 q 339 99 338 53 l 339 572 l 245 572 q 172 603 195 572 q 149 671 149 633 q 173 740 149 708 q 244 774 197 772 l 339 774 l 339 1001 l 119 1001 q 43 1033 68 1001 q 18 1104 18 1065 q 43 1175 18 1143 q 118 1210 69 1207 l 781 1210 q 855 1179 833 1210 q 878 1107 878 1147 q 871 1067 878 1086 q 851 1032 864 1047 q 819 1008 838 1017 q 776 1001 800 998 l 781 1001 l 551 1001 l 551 774 l 643 774 q 713 743 690 774 q 735 674 735 712 q 728 634 735 654 q 709 600 722 614 q 678 578 697 586 q 635 574 659 570 l 643 572 l 551 572 z "},"Ť":{"ha":918,"x_min":19,"x_max":879,"o":"m 552 1001 l 552 99 q 517 25 551 49 q 443 3 483 1 q 371 28 403 4 q 340 99 339 53 l 340 1001 l 121 1001 q 44 1033 69 1001 q 19 1104 19 1065 q 45 1175 19 1143 q 119 1210 71 1207 l 783 1210 q 857 1179 834 1210 q 879 1107 879 1147 q 872 1066 879 1086 q 852 1031 865 1046 q 819 1007 838 1016 q 773 1002 799 998 l 783 1001 l 552 1001 m 597 1584 q 635 1608 614 1605 q 676 1603 656 1611 q 712 1576 696 1594 q 738 1539 728 1558 q 747 1501 747 1520 q 732 1472 746 1482 l 578 1328 q 477 1283 528 1283 q 425 1295 449 1283 q 376 1328 400 1306 l 256 1438 q 235 1503 227 1469 q 267 1561 243 1537 q 320 1594 290 1586 q 363 1584 350 1603 q 422 1530 389 1561 q 481 1476 456 1499 l 597 1584 z "},"Ţ":{"ha":918,"x_min":19,"x_max":879,"o":"m 552 1001 l 552 99 q 517 25 551 49 q 443 3 483 1 q 371 28 403 4 q 340 99 339 53 l 340 1001 l 121 1001 q 44 1033 69 1001 q 19 1104 19 1065 q 45 1175 19 1143 q 119 1210 71 1207 l 783 1210 q 857 1179 834 1210 q 879 1107 879 1147 q 872 1066 879 1086 q 852 1031 865 1046 q 819 1007 838 1016 q 773 1002 799 998 l 783 1001 l 552 1001 m 499 -407 q 464 -435 484 -427 q 425 -442 444 -442 q 370 -428 396 -442 q 329 -391 343 -414 q 317 -340 315 -369 q 349 -283 320 -312 q 369 -254 369 -263 q 363 -239 369 -250 q 350 -214 358 -229 q 335 -157 334 -184 q 350 -110 336 -130 q 386 -78 363 -90 q 433 -66 408 -66 q 481 -79 457 -66 q 521 -119 505 -92 q 560 -252 560 -187 q 499 -408 560 -334 l 499 -407 z "},"Ú":{"ha":975,"x_min":37,"x_max":939,"o":"m 895 321 q 833 184 873 243 q 741 85 793 125 q 628 23 689 45 q 503 0 567 1 q 371 17 437 -3 q 249 77 305 37 q 149 179 193 118 q 81 321 104 240 q 59 442 68 373 q 45 589 50 511 q 39 745 41 666 q 38 894 38 823 l 38 1134 q 45 1181 37 1160 q 68 1215 53 1202 q 104 1236 84 1229 q 146 1244 125 1244 q 187 1237 167 1244 q 223 1217 208 1230 q 247 1182 239 1203 q 254 1134 255 1161 q 252 1022 254 1090 q 251 860 251 954 q 252 729 251 796 q 257 599 254 662 q 267 480 260 536 q 283 387 273 425 q 366 255 308 298 q 490 213 425 212 q 554 224 522 213 q 613 257 586 236 q 661 311 640 278 q 693 387 682 343 q 709 477 703 425 q 719 591 716 530 q 723 716 722 651 q 724 842 724 781 q 724 986 724 907 q 723 1134 724 1065 q 729 1182 720 1161 q 753 1217 738 1203 q 788 1237 768 1230 q 830 1244 808 1244 q 872 1236 852 1244 q 907 1215 892 1229 q 930 1181 922 1202 q 937 1134 939 1160 l 937 894 q 936 743 937 822 q 930 587 935 663 q 918 441 926 510 q 895 321 909 372 m 587 1332 q 552 1296 572 1306 q 510 1286 532 1286 q 464 1300 487 1286 q 426 1336 441 1314 q 408 1384 411 1358 q 420 1434 404 1411 q 452 1484 435 1458 q 483 1534 468 1510 q 519 1568 499 1557 q 562 1579 540 1579 q 606 1567 585 1579 q 642 1535 628 1554 q 661 1490 656 1515 q 654 1438 666 1465 l 587 1332 z "},"Ŭ":{"ha":975,"x_min":37,"x_max":939,"o":"m 895 321 q 833 184 873 243 q 741 85 793 125 q 628 23 689 45 q 503 0 567 1 q 371 17 437 -3 q 249 77 305 37 q 149 179 193 118 q 81 321 104 240 q 59 442 68 373 q 45 589 50 511 q 39 745 41 666 q 38 894 38 823 l 38 1134 q 45 1181 37 1160 q 68 1215 53 1202 q 104 1236 84 1229 q 146 1244 125 1244 q 187 1237 167 1244 q 223 1217 208 1230 q 247 1182 239 1203 q 254 1134 255 1161 q 252 1022 254 1090 q 251 860 251 954 q 252 729 251 796 q 257 599 254 662 q 267 480 260 536 q 283 387 273 425 q 366 255 308 298 q 490 213 425 212 q 554 224 522 213 q 613 257 586 236 q 661 311 640 278 q 693 387 682 343 q 709 477 703 425 q 719 591 716 530 q 723 716 722 651 q 724 842 724 781 q 724 986 724 907 q 723 1134 724 1065 q 729 1182 720 1161 q 753 1217 738 1203 q 788 1237 768 1230 q 830 1244 808 1244 q 872 1236 852 1244 q 907 1215 892 1229 q 930 1181 922 1202 q 937 1134 939 1160 l 937 894 q 936 743 937 822 q 930 587 935 663 q 918 441 926 510 q 895 321 909 372 m 473 1493 q 515 1468 490 1468 q 543 1477 530 1468 q 568 1500 556 1487 q 644 1537 606 1539 q 705 1510 681 1535 q 736 1444 730 1484 q 718 1371 742 1405 q 622 1300 674 1322 q 518 1278 570 1278 q 401 1307 454 1278 q 315 1385 347 1336 q 297 1442 296 1415 q 313 1490 298 1469 q 350 1524 327 1511 q 397 1537 373 1537 q 439 1527 419 1537 q 475 1493 460 1516 l 473 1493 m 726 1381 q 718 1371 724 1375 q 726 1381 724 1378 z "},"Ü":{"ha":975,"x_min":37,"x_max":939,"o":"m 895 321 q 833 184 873 243 q 741 85 793 125 q 628 23 689 45 q 503 0 567 1 q 371 17 437 -3 q 249 77 305 37 q 149 179 193 118 q 81 321 104 240 q 59 442 68 373 q 45 589 50 511 q 39 745 41 666 q 38 894 38 823 l 38 1134 q 45 1181 37 1160 q 68 1215 53 1202 q 104 1236 84 1229 q 146 1244 125 1244 q 187 1237 167 1244 q 223 1217 208 1230 q 247 1182 239 1203 q 254 1134 255 1161 q 252 1022 254 1090 q 251 860 251 954 q 252 729 251 796 q 257 599 254 662 q 267 480 260 536 q 283 387 273 425 q 366 255 308 298 q 490 213 425 212 q 554 224 522 213 q 613 257 586 236 q 661 311 640 278 q 693 387 682 343 q 709 477 703 425 q 719 591 716 530 q 723 716 722 651 q 724 842 724 781 q 724 986 724 907 q 723 1134 724 1065 q 729 1182 720 1161 q 753 1217 738 1203 q 788 1237 768 1230 q 830 1244 808 1244 q 872 1236 852 1244 q 907 1215 892 1229 q 930 1181 922 1202 q 937 1134 939 1160 l 937 894 q 936 743 937 822 q 930 587 935 663 q 918 441 926 510 q 895 321 909 372 m 472 1402 q 463 1361 472 1381 q 439 1326 454 1341 q 405 1303 425 1312 q 363 1294 385 1294 q 321 1303 340 1294 q 286 1326 301 1312 q 263 1361 271 1341 q 255 1402 255 1381 q 286 1480 255 1449 q 363 1511 317 1511 q 405 1503 385 1511 q 439 1480 425 1495 q 463 1445 454 1465 q 472 1402 472 1426 m 724 1402 q 715 1361 724 1381 q 692 1326 707 1341 q 657 1303 677 1312 q 616 1294 637 1294 q 573 1303 593 1294 q 538 1326 553 1312 q 515 1361 524 1341 q 507 1402 507 1381 q 538 1480 507 1449 q 616 1511 570 1511 q 657 1503 637 1511 q 692 1480 677 1495 q 715 1445 707 1465 q 724 1402 724 1426 z "},"Ù":{"ha":975,"x_min":37,"x_max":939,"o":"m 895 321 q 833 184 873 243 q 741 85 793 125 q 628 23 689 45 q 503 0 567 1 q 371 17 437 -3 q 249 77 305 37 q 149 179 193 118 q 81 321 104 240 q 59 442 68 373 q 45 589 50 511 q 39 745 41 666 q 38 894 38 823 l 38 1134 q 45 1181 37 1160 q 68 1215 53 1202 q 104 1236 84 1229 q 146 1244 125 1244 q 187 1237 167 1244 q 223 1217 208 1230 q 247 1182 239 1203 q 254 1134 255 1161 q 252 1022 254 1090 q 251 860 251 954 q 252 729 251 796 q 257 599 254 662 q 267 480 260 536 q 283 387 273 425 q 366 255 308 298 q 490 213 425 212 q 554 224 522 213 q 613 257 586 236 q 661 311 640 278 q 693 387 682 343 q 709 477 703 425 q 719 591 716 530 q 723 716 722 651 q 724 842 724 781 q 724 986 724 907 q 723 1134 724 1065 q 729 1182 720 1161 q 753 1217 738 1203 q 788 1237 768 1230 q 830 1244 808 1244 q 872 1236 852 1244 q 907 1215 892 1229 q 930 1181 922 1202 q 937 1134 939 1160 l 937 894 q 936 743 937 822 q 930 587 935 663 q 918 441 926 510 q 895 321 909 372 m 370 1444 q 362 1495 358 1470 q 380 1539 366 1520 q 417 1571 395 1558 q 463 1583 439 1583 q 505 1572 484 1583 q 543 1538 526 1561 l 605 1438 q 616 1388 620 1415 q 599 1340 613 1362 q 562 1304 585 1318 q 515 1290 538 1290 q 472 1300 492 1290 q 438 1336 452 1310 l 441 1333 q 408 1385 425 1359 q 374 1436 391 1411 l 370 1444 z "},"Û":{"ha":975,"x_min":37,"x_max":939,"o":"m 895 321 q 833 184 873 243 q 741 85 793 125 q 628 23 689 45 q 503 0 567 1 q 371 17 437 -3 q 249 77 305 37 q 149 179 193 118 q 81 321 104 240 q 59 442 68 373 q 45 589 50 511 q 39 745 41 666 q 38 894 38 823 l 38 1134 q 45 1181 37 1160 q 68 1215 53 1202 q 104 1236 84 1229 q 146 1244 125 1244 q 187 1237 167 1244 q 223 1217 208 1230 q 247 1182 239 1203 q 254 1134 255 1161 q 252 1022 254 1090 q 251 860 251 954 q 252 729 251 796 q 257 599 254 662 q 267 480 260 536 q 283 387 273 425 q 366 255 308 298 q 490 213 425 212 q 554 224 522 213 q 613 257 586 236 q 661 311 640 278 q 693 387 682 343 q 709 477 703 425 q 719 591 716 530 q 723 716 722 651 q 724 842 724 781 q 724 986 724 907 q 723 1134 724 1065 q 729 1182 720 1161 q 753 1217 738 1203 q 788 1237 768 1230 q 830 1244 808 1244 q 872 1236 852 1244 q 907 1215 892 1229 q 930 1181 922 1202 q 937 1134 939 1160 l 937 894 q 936 743 937 822 q 930 587 935 663 q 918 441 926 510 q 895 321 909 372 m 382 1321 q 344 1297 365 1299 q 303 1303 323 1294 q 267 1329 283 1312 q 241 1366 251 1347 q 233 1404 232 1385 q 247 1434 233 1423 l 387 1561 q 487 1606 437 1606 q 540 1594 515 1606 q 589 1561 564 1583 l 708 1451 q 730 1386 738 1420 q 698 1328 722 1352 q 644 1295 674 1303 q 601 1305 614 1286 q 542 1359 575 1328 q 483 1413 509 1390 l 382 1321 z "},"Ű":{"ha":975,"x_min":37,"x_max":939,"o":"m 895 321 q 833 184 873 243 q 741 85 793 125 q 628 23 689 45 q 503 0 567 1 q 371 17 437 -3 q 249 77 305 37 q 149 179 193 118 q 81 321 104 240 q 59 442 68 373 q 45 589 50 511 q 39 745 41 666 q 38 894 38 823 l 38 1134 q 45 1181 37 1160 q 68 1215 53 1202 q 104 1236 84 1229 q 146 1244 125 1244 q 187 1237 167 1244 q 223 1217 208 1230 q 247 1182 239 1203 q 254 1134 255 1161 q 252 1022 254 1090 q 251 860 251 954 q 252 729 251 796 q 257 599 254 662 q 267 480 260 536 q 283 387 273 425 q 366 255 308 298 q 490 213 425 212 q 554 224 522 213 q 613 257 586 236 q 661 311 640 278 q 693 387 682 343 q 709 477 703 425 q 719 591 716 530 q 723 716 722 651 q 724 842 724 781 q 724 986 724 907 q 723 1134 724 1065 q 729 1182 720 1161 q 753 1217 738 1203 q 788 1237 768 1230 q 830 1244 808 1244 q 872 1236 852 1244 q 907 1215 892 1229 q 930 1181 922 1202 q 937 1134 939 1160 l 937 894 q 936 743 937 822 q 930 587 935 663 q 918 441 926 510 q 895 321 909 372 m 401 1320 l 404 1322 q 369 1286 389 1297 q 327 1276 349 1276 q 281 1291 304 1276 q 243 1326 258 1305 q 224 1375 228 1348 q 237 1424 221 1401 q 269 1474 252 1449 q 300 1525 285 1500 q 336 1558 316 1548 q 378 1569 357 1569 q 423 1557 401 1569 q 459 1525 445 1545 q 478 1480 473 1506 q 471 1428 483 1455 l 401 1320 m 678 1310 l 681 1313 q 646 1277 666 1287 q 604 1267 627 1267 q 557 1281 581 1267 q 520 1318 534 1295 q 503 1366 506 1340 q 514 1416 499 1392 l 514 1415 q 545 1465 529 1439 q 576 1515 562 1491 q 613 1550 593 1539 q 655 1561 633 1561 q 701 1549 678 1561 q 737 1517 723 1537 q 755 1472 751 1497 q 747 1419 760 1446 l 678 1310 z "},"Ų":{"ha":975,"x_min":37,"x_max":939,"o":"m 518 -194 q 479 -125 491 -161 q 468 -52 468 -90 q 473 0 468 -22 q 349 24 410 1 q 237 87 289 46 q 144 186 184 127 q 81 321 103 245 q 59 442 68 373 q 45 589 50 511 q 39 745 41 666 q 38 894 38 823 l 38 1134 q 45 1181 37 1160 q 68 1215 53 1202 q 104 1236 84 1229 q 146 1244 125 1244 q 187 1237 167 1244 q 223 1217 208 1230 q 247 1182 239 1203 q 254 1134 255 1161 q 252 1022 254 1090 q 251 860 251 954 q 252 729 251 796 q 257 599 254 662 q 267 480 260 536 q 283 387 273 425 q 366 255 308 298 q 490 213 425 212 q 554 224 522 213 q 613 257 586 236 q 661 311 640 278 q 693 387 682 343 q 709 477 703 425 q 719 591 716 530 q 723 716 722 651 q 724 842 724 781 q 724 986 724 907 q 723 1134 724 1065 q 729 1182 720 1161 q 753 1217 738 1203 q 788 1237 768 1230 q 830 1244 808 1244 q 872 1236 852 1244 q 907 1215 892 1229 q 930 1181 922 1202 q 937 1134 939 1160 l 937 894 q 936 743 937 822 q 930 587 935 663 q 918 441 926 510 q 895 321 909 372 q 812 155 868 222 q 686 49 757 87 q 680 27 685 39 q 663 -12 671 8 q 655 -47 655 -31 q 665 -66 655 -58 q 703 -122 699 -94 q 693 -174 708 -151 q 650 -213 678 -198 q 591 -228 623 -228 q 553 -220 571 -228 q 519 -195 534 -213 l 518 -194 z "},"Ů":{"ha":975,"x_min":37,"x_max":939,"o":"m 895 321 q 833 184 873 243 q 741 85 793 125 q 628 23 689 45 q 503 0 567 1 q 371 17 437 -3 q 249 77 305 37 q 149 179 193 118 q 81 321 104 240 q 59 442 68 373 q 45 589 50 511 q 39 745 41 666 q 38 894 38 823 l 38 1134 q 45 1181 37 1160 q 68 1215 53 1202 q 104 1236 84 1229 q 146 1244 125 1244 q 187 1237 167 1244 q 223 1217 208 1230 q 247 1182 239 1203 q 254 1134 255 1161 q 252 1022 254 1090 q 251 860 251 954 q 252 729 251 796 q 257 599 254 662 q 267 480 260 536 q 283 387 273 425 q 366 255 308 298 q 490 213 425 212 q 554 224 522 213 q 613 257 586 236 q 661 311 640 278 q 693 387 682 343 q 709 477 703 425 q 719 591 716 530 q 723 716 722 651 q 724 842 724 781 q 724 986 724 907 q 723 1134 724 1065 q 729 1182 720 1161 q 753 1217 738 1203 q 788 1237 768 1230 q 830 1244 808 1244 q 872 1236 852 1244 q 907 1215 892 1229 q 930 1181 922 1202 q 937 1134 939 1160 l 937 894 q 936 743 937 822 q 930 587 935 663 q 918 441 926 510 q 895 321 909 372 m 492 1442 q 498 1428 492 1434 q 514 1421 505 1421 q 528 1428 522 1421 q 534 1442 534 1434 q 528 1457 534 1451 q 514 1463 522 1463 q 492 1442 492 1463 m 673 1440 q 660 1378 673 1408 q 625 1326 647 1348 q 574 1292 604 1305 q 513 1279 545 1279 q 450 1292 479 1279 q 399 1326 420 1305 q 366 1378 378 1348 q 354 1440 354 1408 q 366 1502 354 1473 q 399 1553 378 1531 q 450 1587 420 1575 q 513 1599 479 1599 q 574 1587 545 1599 q 625 1553 604 1575 q 660 1502 647 1531 q 673 1440 673 1473 z "},"Ū":{"ha":975,"x_min":37,"x_max":939,"o":"m 895 321 q 833 184 873 243 q 741 85 793 125 q 628 23 689 45 q 503 0 567 1 q 371 17 437 -3 q 249 77 305 37 q 149 179 193 118 q 81 321 104 240 q 59 442 68 373 q 45 589 50 511 q 39 745 41 666 q 38 894 38 823 l 38 1134 q 45 1181 37 1160 q 68 1215 53 1202 q 104 1236 84 1229 q 146 1244 125 1244 q 187 1237 167 1244 q 223 1217 208 1230 q 247 1182 239 1203 q 254 1134 255 1161 q 252 1022 254 1090 q 251 860 251 954 q 252 729 251 796 q 257 599 254 662 q 267 480 260 536 q 283 387 273 425 q 366 255 308 298 q 490 213 425 212 q 554 224 522 213 q 613 257 586 236 q 661 311 640 278 q 693 387 682 343 q 709 477 703 425 q 719 591 716 530 q 723 716 722 651 q 724 842 724 781 q 724 986 724 907 q 723 1134 724 1065 q 729 1182 720 1161 q 753 1217 738 1203 q 788 1237 768 1230 q 830 1244 808 1244 q 872 1236 852 1244 q 907 1215 892 1229 q 930 1181 922 1202 q 937 1134 939 1160 l 937 894 q 936 743 937 822 q 930 587 935 663 q 918 441 926 510 q 895 321 909 372 m 289 1280 q 216 1311 239 1280 q 193 1379 193 1341 q 216 1448 193 1416 q 288 1482 240 1480 l 686 1482 q 756 1451 734 1482 q 779 1382 779 1420 q 772 1342 779 1362 q 753 1308 765 1322 q 722 1286 741 1294 q 678 1282 703 1278 l 686 1280 l 289 1280 z "},"Ũ":{"ha":975,"x_min":37,"x_max":939,"o":"m 895 321 q 833 184 873 243 q 741 85 793 125 q 628 23 689 45 q 503 0 567 1 q 371 17 437 -3 q 249 77 305 37 q 149 179 193 118 q 81 321 104 240 q 59 442 68 373 q 45 589 50 511 q 39 745 41 666 q 38 894 38 823 l 38 1134 q 45 1181 37 1160 q 68 1215 53 1202 q 104 1236 84 1229 q 146 1244 125 1244 q 187 1237 167 1244 q 223 1217 208 1230 q 247 1182 239 1203 q 254 1134 255 1161 q 252 1022 254 1090 q 251 860 251 954 q 252 729 251 796 q 257 599 254 662 q 267 480 260 536 q 283 387 273 425 q 366 255 308 298 q 490 213 425 212 q 554 224 522 213 q 613 257 586 236 q 661 311 640 278 q 693 387 682 343 q 709 477 703 425 q 719 591 716 530 q 723 716 722 651 q 724 842 724 781 q 724 986 724 907 q 723 1134 724 1065 q 729 1182 720 1161 q 753 1217 738 1203 q 788 1237 768 1230 q 830 1244 808 1244 q 872 1236 852 1244 q 907 1215 892 1229 q 930 1181 922 1202 q 937 1134 939 1160 l 937 894 q 936 743 937 822 q 930 587 935 663 q 918 441 926 510 q 895 321 909 372 m 401 1360 q 368 1310 392 1326 q 315 1294 343 1294 q 275 1303 294 1294 q 241 1326 256 1312 q 219 1362 227 1341 q 216 1405 212 1382 q 244 1481 225 1447 q 290 1537 263 1515 q 347 1571 316 1560 q 414 1581 378 1583 q 467 1571 444 1580 q 511 1550 491 1563 q 546 1524 530 1538 q 575 1496 562 1510 q 592 1477 583 1487 q 604 1468 601 1468 q 604 1500 600 1474 q 635 1559 610 1539 q 694 1579 661 1579 q 735 1571 715 1579 q 770 1548 755 1564 q 792 1510 785 1533 q 793 1459 799 1488 q 772 1394 785 1424 q 739 1341 760 1364 q 687 1303 718 1317 q 616 1287 656 1289 l 617 1287 q 555 1293 582 1286 q 509 1313 529 1301 q 473 1341 488 1325 q 444 1373 457 1358 q 425 1392 433 1383 q 410 1398 416 1401 q 403 1362 412 1398 l 401 1360 z "},"Ẃ":{"ha":1571,"x_min":69,"x_max":1514,"o":"m 792 543 q 726 319 760 430 q 661 95 693 208 q 606 23 640 46 q 536 0 572 0 q 467 20 499 0 q 416 81 434 41 l 83 1104 q 74 1160 69 1134 q 95 1206 79 1187 q 136 1237 111 1226 q 184 1248 160 1248 q 239 1232 213 1248 q 281 1180 266 1215 l 530 384 l 689 929 q 730 989 700 968 q 791 1009 760 1009 q 852 989 825 1009 q 892 929 880 968 l 1054 380 q 1116 576 1085 475 q 1179 781 1147 678 q 1241 985 1210 883 q 1303 1183 1272 1086 q 1345 1234 1318 1218 q 1400 1251 1371 1251 q 1449 1240 1424 1251 q 1489 1210 1473 1229 q 1510 1164 1506 1191 q 1500 1107 1514 1138 l 1501 1112 q 1419 859 1461 989 q 1335 596 1377 728 q 1251 333 1293 464 q 1168 80 1208 202 q 1118 19 1150 39 q 1048 -1 1085 -1 q 978 22 1012 -1 q 924 94 944 45 l 792 543 m 886 1332 q 850 1296 871 1306 q 808 1286 830 1286 q 762 1300 785 1286 q 724 1336 739 1314 q 706 1384 709 1358 q 719 1434 703 1411 q 750 1484 734 1458 q 781 1534 766 1510 q 818 1568 798 1557 q 860 1579 838 1579 q 905 1567 883 1579 q 941 1535 926 1554 q 960 1490 955 1515 q 952 1438 964 1465 l 886 1332 z "},"Ŵ":{"ha":1571,"x_min":69,"x_max":1514,"o":"m 792 543 q 726 319 760 430 q 661 95 693 208 q 606 23 640 46 q 536 0 572 0 q 467 20 499 0 q 416 81 434 41 l 83 1104 q 74 1160 69 1134 q 95 1206 79 1187 q 136 1237 111 1226 q 184 1248 160 1248 q 239 1232 213 1248 q 281 1180 266 1215 l 530 384 l 689 929 q 730 989 700 968 q 791 1009 760 1009 q 852 989 825 1009 q 892 929 880 968 l 1054 380 q 1116 576 1085 475 q 1179 781 1147 678 q 1241 985 1210 883 q 1303 1183 1272 1086 q 1345 1234 1318 1218 q 1400 1251 1371 1251 q 1449 1240 1424 1251 q 1489 1210 1473 1229 q 1510 1164 1506 1191 q 1500 1107 1514 1138 l 1501 1112 q 1419 859 1461 989 q 1335 596 1377 728 q 1251 333 1293 464 q 1168 80 1208 202 q 1118 19 1150 39 q 1048 -1 1085 -1 q 978 22 1012 -1 q 924 94 944 45 l 792 543 m 789 1308 q 751 1283 772 1286 q 710 1289 730 1280 q 674 1316 690 1298 q 648 1352 658 1333 q 640 1390 639 1371 q 654 1420 640 1409 l 793 1548 q 894 1592 844 1592 q 947 1581 922 1592 q 996 1548 971 1569 l 1115 1438 q 1137 1373 1145 1407 q 1105 1314 1128 1339 q 1051 1281 1081 1290 q 1008 1291 1021 1272 q 949 1345 982 1314 q 890 1400 916 1377 l 789 1308 z "},"Ẅ":{"ha":1571,"x_min":69,"x_max":1514,"o":"m 792 543 q 726 319 760 430 q 661 95 693 208 q 606 23 640 46 q 536 0 572 0 q 467 20 499 0 q 416 81 434 41 l 83 1104 q 74 1160 69 1134 q 95 1206 79 1187 q 136 1237 111 1226 q 184 1248 160 1248 q 239 1232 213 1248 q 281 1180 266 1215 l 530 384 l 689 929 q 730 989 700 968 q 791 1009 760 1009 q 852 989 825 1009 q 892 929 880 968 l 1054 380 q 1116 576 1085 475 q 1179 781 1147 678 q 1241 985 1210 883 q 1303 1183 1272 1086 q 1345 1234 1318 1218 q 1400 1251 1371 1251 q 1449 1240 1424 1251 q 1489 1210 1473 1229 q 1510 1164 1506 1191 q 1500 1107 1514 1138 l 1501 1112 q 1419 859 1461 989 q 1335 596 1377 728 q 1251 333 1293 464 q 1168 80 1208 202 q 1118 19 1150 39 q 1048 -1 1085 -1 q 978 22 1012 -1 q 924 94 944 45 l 792 543 m 769 1402 q 760 1361 769 1381 q 736 1326 751 1341 q 702 1303 722 1312 q 661 1294 682 1294 q 618 1303 637 1294 q 583 1326 598 1312 q 560 1361 568 1341 q 552 1402 552 1381 q 583 1480 552 1449 q 661 1511 614 1511 q 702 1503 682 1511 q 736 1480 722 1495 q 760 1445 751 1465 q 769 1402 769 1426 m 1021 1402 q 1013 1361 1021 1381 q 989 1326 1004 1341 q 954 1303 974 1312 q 913 1294 935 1294 q 870 1303 890 1294 q 836 1326 850 1312 q 812 1361 821 1341 q 804 1402 804 1381 q 836 1480 804 1449 q 913 1511 867 1511 q 954 1503 935 1511 q 989 1480 974 1495 q 1013 1445 1004 1465 q 1021 1402 1021 1426 z "},"Ẁ":{"ha":1571,"x_min":69,"x_max":1514,"o":"m 792 543 q 726 319 760 430 q 661 95 693 208 q 606 23 640 46 q 536 0 572 0 q 467 20 499 0 q 416 81 434 41 l 83 1104 q 74 1160 69 1134 q 95 1206 79 1187 q 136 1237 111 1226 q 184 1248 160 1248 q 239 1232 213 1248 q 281 1180 266 1215 l 530 384 l 689 929 q 730 989 700 968 q 791 1009 760 1009 q 852 989 825 1009 q 892 929 880 968 l 1054 380 q 1116 576 1085 475 q 1179 781 1147 678 q 1241 985 1210 883 q 1303 1183 1272 1086 q 1345 1234 1318 1218 q 1400 1251 1371 1251 q 1449 1240 1424 1251 q 1489 1210 1473 1229 q 1510 1164 1506 1191 q 1500 1107 1514 1138 l 1501 1112 q 1419 859 1461 989 q 1335 596 1377 728 q 1251 333 1293 464 q 1168 80 1208 202 q 1118 19 1150 39 q 1048 -1 1085 -1 q 978 22 1012 -1 q 924 94 944 45 l 792 543 m 669 1444 q 661 1495 656 1470 q 679 1539 665 1520 q 715 1571 693 1558 q 761 1583 738 1583 q 804 1572 783 1583 q 841 1538 825 1561 l 903 1438 q 915 1388 918 1415 q 897 1340 911 1362 q 860 1304 883 1318 q 814 1290 837 1290 q 770 1300 791 1290 q 736 1336 750 1310 l 739 1333 q 706 1385 723 1359 q 673 1436 689 1411 l 669 1444 z "},"Ý":{"ha":1055,"x_min":30,"x_max":1016,"o":"m 412 495 q 320 652 366 579 q 228 797 274 726 q 136 941 182 868 q 43 1099 90 1015 q 35 1156 30 1130 q 55 1202 39 1183 q 95 1234 71 1222 q 144 1245 119 1245 q 195 1232 171 1245 q 235 1191 220 1219 l 525 743 l 808 1188 q 849 1233 823 1219 q 903 1246 875 1246 q 954 1235 929 1246 q 994 1203 978 1223 q 1013 1155 1009 1183 q 1002 1095 1016 1127 l 624 495 l 624 85 q 591 12 624 34 q 519 -11 559 -11 q 477 -4 498 -11 q 441 15 457 3 q 418 45 426 27 q 412 85 410 62 l 412 495 m 628 1332 q 593 1296 613 1306 q 551 1286 572 1286 q 505 1300 528 1286 q 467 1336 481 1314 q 448 1384 452 1358 q 461 1434 445 1411 q 492 1484 476 1458 q 524 1534 509 1510 q 560 1568 540 1557 q 602 1579 581 1579 q 647 1567 625 1579 q 683 1535 669 1554 q 702 1490 697 1515 q 694 1438 707 1465 l 628 1332 z "},"Ŷ":{"ha":1055,"x_min":30,"x_max":1016,"o":"m 412 495 q 320 652 366 579 q 228 797 274 726 q 136 941 182 868 q 43 1099 90 1015 q 35 1156 30 1130 q 55 1202 39 1183 q 95 1234 71 1222 q 144 1245 119 1245 q 195 1232 171 1245 q 235 1191 220 1219 l 525 743 l 808 1188 q 849 1233 823 1219 q 903 1246 875 1246 q 954 1235 929 1246 q 994 1203 978 1223 q 1013 1155 1009 1183 q 1002 1095 1016 1127 l 624 495 l 624 85 q 591 12 624 34 q 519 -11 559 -11 q 477 -4 498 -11 q 441 15 457 3 q 418 45 426 27 q 412 85 410 62 l 412 495 m 439 1341 q 401 1317 422 1320 q 360 1323 380 1314 q 324 1350 340 1332 q 298 1386 308 1367 q 290 1424 289 1405 q 304 1454 290 1443 l 444 1581 q 544 1626 494 1626 q 597 1615 572 1626 q 646 1581 621 1603 l 765 1472 q 787 1407 795 1440 q 755 1348 779 1373 q 701 1315 731 1324 q 658 1325 671 1306 q 599 1379 632 1348 q 540 1434 566 1411 l 439 1341 z "},"Ÿ":{"ha":1055,"x_min":30,"x_max":1016,"o":"m 412 495 q 320 652 366 579 q 228 797 274 726 q 136 941 182 868 q 43 1099 90 1015 q 35 1156 30 1130 q 55 1202 39 1183 q 95 1234 71 1222 q 144 1245 119 1245 q 195 1232 171 1245 q 235 1191 220 1219 l 525 743 l 808 1188 q 849 1233 823 1219 q 903 1246 875 1246 q 954 1235 929 1246 q 994 1203 978 1223 q 1013 1155 1009 1183 q 1002 1095 1016 1127 l 624 495 l 624 85 q 591 12 624 34 q 519 -11 559 -11 q 477 -4 498 -11 q 441 15 457 3 q 418 45 426 27 q 412 85 410 62 l 412 495 m 511 1402 q 503 1361 511 1381 q 479 1326 494 1341 q 444 1303 464 1312 q 403 1294 425 1294 q 360 1303 380 1294 q 326 1326 340 1312 q 302 1361 311 1341 q 294 1402 294 1381 q 326 1480 294 1449 q 403 1511 357 1511 q 444 1503 425 1511 q 479 1480 464 1495 q 503 1445 494 1465 q 511 1402 511 1426 m 764 1402 q 755 1361 764 1381 q 731 1326 746 1341 q 696 1303 716 1312 q 655 1294 677 1294 q 612 1303 632 1294 q 578 1326 593 1312 q 555 1361 563 1341 q 547 1402 547 1381 q 578 1480 547 1449 q 655 1511 609 1511 q 696 1503 677 1511 q 731 1480 716 1495 q 755 1445 746 1465 q 764 1402 764 1426 z "},"Ỳ":{"ha":1055,"x_min":30,"x_max":1016,"o":"m 412 495 q 320 652 366 579 q 228 797 274 726 q 136 941 182 868 q 43 1099 90 1015 q 35 1156 30 1130 q 55 1202 39 1183 q 95 1234 71 1222 q 144 1245 119 1245 q 195 1232 171 1245 q 235 1191 220 1219 l 525 743 l 808 1188 q 849 1233 823 1219 q 903 1246 875 1246 q 954 1235 929 1246 q 994 1203 978 1223 q 1013 1155 1009 1183 q 1002 1095 1016 1127 l 624 495 l 624 85 q 591 12 624 34 q 519 -11 559 -11 q 477 -4 498 -11 q 441 15 457 3 q 418 45 426 27 q 412 85 410 62 l 412 495 m 411 1444 q 403 1495 399 1470 q 421 1539 407 1520 q 458 1571 435 1558 q 503 1583 480 1583 q 546 1572 525 1583 q 583 1538 567 1561 l 646 1438 q 657 1388 661 1415 q 640 1340 654 1362 q 602 1304 625 1318 q 556 1290 579 1290 q 513 1300 533 1290 q 479 1336 492 1310 l 481 1333 q 448 1385 465 1359 q 415 1436 431 1411 l 411 1444 z "},"Ź":{"ha":979,"x_min":28,"x_max":940,"o":"m 191 5 q 73 39 111 5 q 34 132 34 72 q 76 248 34 179 l 639 1036 l 129 1036 q 53 1071 77 1039 q 28 1142 28 1103 q 53 1213 28 1181 q 129 1245 77 1245 l 840 1245 q 914 1217 888 1245 q 940 1143 940 1188 q 903 1043 940 1093 l 316 217 q 577 216 448 217 q 838 216 707 216 q 913 184 890 216 q 936 111 936 152 q 929 71 936 91 q 909 35 922 50 q 876 12 895 20 q 830 7 856 3 l 838 5 l 191 5 m 590 1332 q 555 1296 575 1306 q 513 1286 534 1286 q 467 1300 490 1286 q 429 1336 444 1314 q 410 1384 414 1358 q 423 1434 407 1411 q 454 1484 438 1458 q 486 1534 471 1510 q 522 1568 502 1557 q 564 1579 543 1579 q 609 1567 587 1579 q 645 1535 631 1554 q 664 1490 659 1515 q 656 1438 669 1465 l 590 1332 z "},"Ž":{"ha":979,"x_min":28,"x_max":940,"o":"m 191 5 q 73 39 111 5 q 34 132 34 72 q 76 248 34 179 l 639 1036 l 129 1036 q 53 1071 77 1039 q 28 1142 28 1103 q 53 1213 28 1181 q 129 1245 77 1245 l 840 1245 q 914 1217 888 1245 q 940 1143 940 1188 q 903 1043 940 1093 l 316 217 q 577 216 448 217 q 838 216 707 216 q 913 184 890 216 q 936 111 936 152 q 929 71 936 91 q 909 35 922 50 q 876 12 895 20 q 830 7 856 3 l 838 5 l 191 5 m 627 1584 q 665 1608 644 1605 q 706 1603 686 1611 q 742 1576 726 1594 q 768 1539 758 1558 q 777 1501 777 1520 q 762 1472 776 1482 l 608 1328 q 507 1283 557 1283 q 454 1295 479 1283 q 406 1328 430 1306 l 286 1438 q 264 1503 256 1469 q 296 1561 273 1537 q 350 1594 320 1586 q 393 1584 380 1603 q 452 1530 419 1561 q 511 1476 486 1499 l 627 1584 z "},"Ż":{"ha":979,"x_min":28,"x_max":940,"o":"m 191 5 q 73 39 111 5 q 34 132 34 72 q 76 248 34 179 l 639 1036 l 129 1036 q 53 1071 77 1039 q 28 1142 28 1103 q 53 1213 28 1181 q 129 1245 77 1245 l 840 1245 q 914 1217 888 1245 q 940 1143 940 1188 q 903 1043 940 1093 l 316 217 q 577 216 448 217 q 838 216 707 216 q 913 184 890 216 q 936 111 936 152 q 929 71 936 91 q 909 35 922 50 q 876 12 895 20 q 830 7 856 3 l 838 5 l 191 5 m 646 1401 q 637 1360 646 1379 q 613 1325 628 1340 q 578 1301 598 1310 q 536 1293 557 1293 q 460 1325 491 1293 q 429 1401 429 1358 q 460 1478 429 1447 q 536 1510 491 1510 q 613 1478 581 1510 q 646 1401 646 1447 z "},"á":{"ha":972,"x_min":58,"x_max":902,"o":"m 796 -7 q 731 14 760 -7 q 700 73 703 34 q 594 20 648 38 q 488 0 540 1 q 298 37 380 -4 q 163 149 217 79 q 84 310 110 220 q 61 494 58 400 q 94 673 65 586 q 179 829 123 761 q 316 939 235 898 q 505 977 397 979 q 606 962 555 975 q 705 921 658 949 q 743 969 716 954 q 800 985 769 985 q 868 961 837 985 q 902 890 899 937 l 902 80 q 892 42 902 58 q 868 15 883 26 q 834 -1 853 4 q 796 -7 815 -7 m 269 479 q 281 376 269 426 q 321 286 294 326 q 388 223 347 247 q 484 199 429 199 q 541 212 510 199 q 602 246 572 224 q 658 300 632 269 q 700 372 684 332 l 700 631 q 612 738 665 704 q 503 774 559 772 q 403 752 446 777 q 330 685 359 727 q 284 589 300 643 q 269 479 269 534 m 586 1138 q 551 1102 571 1112 q 509 1092 530 1092 q 463 1106 486 1092 q 425 1142 439 1120 q 406 1190 410 1164 q 419 1240 403 1217 q 450 1290 434 1264 q 481 1340 467 1316 q 518 1374 498 1363 q 560 1385 538 1385 q 605 1373 583 1385 q 641 1341 627 1360 q 660 1296 655 1321 q 652 1244 665 1271 l 586 1138 z "},"ă":{"ha":972,"x_min":58,"x_max":902,"o":"m 796 -7 q 731 14 760 -7 q 700 73 703 34 q 594 20 648 38 q 488 0 540 1 q 298 37 380 -4 q 163 149 217 79 q 84 310 110 220 q 61 494 58 400 q 94 673 65 586 q 179 829 123 761 q 316 939 235 898 q 505 977 397 979 q 606 962 555 975 q 705 921 658 949 q 743 969 716 954 q 800 985 769 985 q 868 961 837 985 q 902 890 899 937 l 902 80 q 892 42 902 58 q 868 15 883 26 q 834 -1 853 4 q 796 -7 815 -7 m 269 479 q 281 376 269 426 q 321 286 294 326 q 388 223 347 247 q 484 199 429 199 q 541 212 510 199 q 602 246 572 224 q 658 300 632 269 q 700 372 684 332 l 700 631 q 612 738 665 704 q 503 774 559 772 q 403 752 446 777 q 330 685 359 727 q 284 589 300 643 q 269 479 269 534 m 464 1287 q 506 1261 480 1261 q 534 1271 521 1261 q 559 1294 547 1280 q 634 1331 597 1333 q 696 1303 671 1329 q 726 1238 720 1278 q 708 1165 732 1199 q 612 1094 665 1116 q 509 1072 560 1072 q 391 1101 445 1072 q 305 1179 338 1130 q 288 1236 286 1208 q 303 1284 289 1263 q 340 1318 317 1305 q 388 1331 363 1331 q 430 1320 410 1331 q 465 1287 450 1310 l 464 1287 m 716 1175 q 708 1165 715 1169 q 716 1175 715 1172 z "},"â":{"ha":972,"x_min":58,"x_max":902,"o":"m 796 -7 q 731 14 760 -7 q 700 73 703 34 q 594 20 648 38 q 488 0 540 1 q 298 37 380 -4 q 163 149 217 79 q 84 310 110 220 q 61 494 58 400 q 94 673 65 586 q 179 829 123 761 q 316 939 235 898 q 505 977 397 979 q 606 962 555 975 q 705 921 658 949 q 743 969 716 954 q 800 985 769 985 q 868 961 837 985 q 902 890 899 937 l 902 80 q 892 42 902 58 q 868 15 883 26 q 834 -1 853 4 q 796 -7 815 -7 m 269 479 q 281 376 269 426 q 321 286 294 326 q 388 223 347 247 q 484 199 429 199 q 541 212 510 199 q 602 246 572 224 q 658 300 632 269 q 700 372 684 332 l 700 631 q 612 738 665 704 q 503 774 559 772 q 403 752 446 777 q 330 685 359 727 q 284 589 300 643 q 269 479 269 534 m 415 1095 q 376 1070 397 1073 q 336 1076 355 1067 q 300 1103 316 1085 q 274 1139 283 1120 q 265 1177 264 1158 q 279 1207 266 1196 l 419 1335 q 519 1379 469 1379 q 572 1368 548 1379 q 621 1335 597 1356 l 741 1225 q 762 1160 770 1194 q 730 1101 754 1126 q 677 1068 707 1077 q 633 1078 647 1059 q 574 1133 608 1101 q 515 1187 541 1164 l 415 1095 z "},"ä":{"ha":972,"x_min":58,"x_max":902,"o":"m 796 -7 q 731 14 760 -7 q 700 73 703 34 q 594 20 648 38 q 488 0 540 1 q 298 37 380 -4 q 163 149 217 79 q 84 310 110 220 q 61 494 58 400 q 94 673 65 586 q 179 829 123 761 q 316 939 235 898 q 505 977 397 979 q 606 962 555 975 q 705 921 658 949 q 743 969 716 954 q 800 985 769 985 q 868 961 837 985 q 902 890 899 937 l 902 80 q 892 42 902 58 q 868 15 883 26 q 834 -1 853 4 q 796 -7 815 -7 m 269 479 q 281 376 269 426 q 321 286 294 326 q 388 223 347 247 q 484 199 429 199 q 541 212 510 199 q 602 246 572 224 q 658 300 632 269 q 700 372 684 332 l 700 631 q 612 738 665 704 q 503 774 559 772 q 403 752 446 777 q 330 685 359 727 q 284 589 300 643 q 269 479 269 534 m 471 1177 q 462 1136 471 1156 q 438 1101 453 1116 q 404 1078 423 1086 q 362 1069 384 1069 q 319 1078 339 1069 q 285 1101 300 1086 q 262 1136 270 1116 q 254 1177 254 1156 q 285 1255 254 1223 q 362 1286 316 1286 q 404 1278 384 1286 q 438 1255 423 1270 q 462 1220 453 1240 q 471 1177 471 1200 m 723 1177 q 714 1136 723 1156 q 690 1101 705 1116 q 656 1078 675 1086 q 614 1069 636 1069 q 572 1078 591 1069 q 537 1101 552 1086 q 514 1136 522 1116 q 506 1177 506 1156 q 537 1255 506 1223 q 614 1286 568 1286 q 656 1278 636 1286 q 690 1255 675 1270 q 714 1220 705 1240 q 723 1177 723 1200 z "},"à":{"ha":972,"x_min":58,"x_max":902,"o":"m 796 -7 q 731 14 760 -7 q 700 73 703 34 q 594 20 648 38 q 488 0 540 1 q 298 37 380 -4 q 163 149 217 79 q 84 310 110 220 q 61 494 58 400 q 94 673 65 586 q 179 829 123 761 q 316 939 235 898 q 505 977 397 979 q 606 962 555 975 q 705 921 658 949 q 743 969 716 954 q 800 985 769 985 q 868 961 837 985 q 902 890 899 937 l 902 80 q 892 42 902 58 q 868 15 883 26 q 834 -1 853 4 q 796 -7 815 -7 m 269 479 q 281 376 269 426 q 321 286 294 326 q 388 223 347 247 q 484 199 429 199 q 541 212 510 199 q 602 246 572 224 q 658 300 632 269 q 700 372 684 332 l 700 631 q 612 738 665 704 q 503 774 559 772 q 403 752 446 777 q 330 685 359 727 q 284 589 300 643 q 269 479 269 534 m 369 1242 q 361 1293 357 1268 q 379 1337 365 1318 q 416 1369 393 1356 q 461 1381 438 1381 q 504 1370 483 1381 q 541 1336 525 1359 l 604 1236 q 615 1186 618 1213 q 597 1138 612 1160 q 560 1102 583 1116 q 514 1088 537 1088 q 471 1098 491 1088 q 437 1134 450 1108 l 439 1131 q 406 1183 423 1157 q 373 1234 389 1208 l 369 1242 z "},"ā":{"ha":972,"x_min":58,"x_max":902,"o":"m 796 -7 q 731 14 760 -7 q 700 73 703 34 q 594 20 648 38 q 488 0 540 1 q 298 37 380 -4 q 163 149 217 79 q 84 310 110 220 q 61 494 58 400 q 94 673 65 586 q 179 829 123 761 q 316 939 235 898 q 505 977 397 979 q 606 962 555 975 q 705 921 658 949 q 743 969 716 954 q 800 985 769 985 q 868 961 837 985 q 902 890 899 937 l 902 80 q 892 42 902 58 q 868 15 883 26 q 834 -1 853 4 q 796 -7 815 -7 m 269 479 q 281 376 269 426 q 321 286 294 326 q 388 223 347 247 q 484 199 429 199 q 541 212 510 199 q 602 246 572 224 q 658 300 632 269 q 700 372 684 332 l 700 631 q 612 738 665 704 q 503 774 559 772 q 403 752 446 777 q 330 685 359 727 q 284 589 300 643 q 269 479 269 534 m 288 1078 q 214 1109 237 1078 q 191 1177 191 1139 q 215 1246 191 1214 q 286 1280 239 1278 l 685 1280 q 755 1249 732 1280 q 777 1180 777 1218 q 770 1140 777 1160 q 751 1106 764 1120 q 720 1084 739 1092 q 677 1080 701 1076 l 685 1078 l 288 1078 z "},"ą":{"ha":972,"x_min":58,"x_max":902,"o":"m 701 -221 q 663 -153 674 -189 q 651 -79 651 -117 q 664 2 651 -37 q 700 71 677 41 l 700 73 q 594 20 648 38 q 488 0 540 1 q 298 37 380 -4 q 163 149 217 79 q 84 310 110 220 q 61 494 58 400 q 94 673 65 586 q 179 829 123 761 q 316 939 235 898 q 505 977 397 979 q 606 962 555 975 q 705 921 658 949 q 743 969 716 954 q 800 985 769 985 q 868 961 837 985 q 902 890 899 937 l 902 80 q 892 41 902 57 q 867 14 882 24 q 865 7 865 11 q 863 0 864 3 q 846 -39 854 -19 q 838 -75 838 -58 q 848 -94 838 -85 q 886 -149 882 -121 q 876 -201 891 -178 q 833 -240 861 -225 q 774 -255 806 -255 q 736 -248 754 -255 q 703 -222 718 -240 l 701 -221 m 269 479 q 281 376 269 426 q 321 286 294 326 q 388 223 347 247 q 484 199 429 199 q 541 212 510 199 q 602 246 572 224 q 658 300 632 269 q 700 372 684 332 l 700 631 q 612 738 665 704 q 503 774 559 772 q 403 752 446 777 q 330 685 359 727 q 284 589 300 643 q 269 479 269 534 z "},"å":{"ha":972,"x_min":58,"x_max":902,"o":"m 796 -7 q 731 14 760 -7 q 700 73 703 34 q 594 20 648 38 q 488 0 540 1 q 298 37 380 -4 q 163 149 217 79 q 84 310 110 220 q 61 494 58 400 q 94 673 65 586 q 179 829 123 761 q 316 939 235 898 q 505 977 397 979 q 606 962 555 975 q 705 921 658 949 q 743 969 716 954 q 800 985 769 985 q 868 961 837 985 q 902 890 899 937 l 902 80 q 892 42 902 58 q 868 15 883 26 q 834 -1 853 4 q 796 -7 815 -7 m 269 479 q 281 376 269 426 q 321 286 294 326 q 388 223 347 247 q 484 199 429 199 q 541 212 510 199 q 602 246 572 224 q 658 300 632 269 q 700 372 684 332 l 700 631 q 612 738 665 704 q 503 774 559 772 q 403 752 446 777 q 330 685 359 727 q 284 589 300 643 q 269 479 269 534 m 491 1236 q 497 1221 491 1227 q 513 1215 503 1215 q 527 1221 521 1215 q 533 1236 533 1227 q 527 1251 533 1245 q 513 1257 521 1257 q 491 1236 491 1257 m 671 1234 q 659 1172 671 1202 q 624 1120 646 1142 q 573 1086 602 1099 q 511 1073 544 1073 q 448 1086 477 1073 q 398 1120 419 1099 q 365 1172 377 1142 q 353 1234 353 1202 q 365 1296 353 1267 q 398 1347 377 1325 q 448 1381 419 1369 q 511 1393 477 1393 q 573 1381 544 1393 q 624 1347 602 1369 q 659 1296 646 1325 q 671 1234 671 1267 z "},"ã":{"ha":972,"x_min":58,"x_max":902,"o":"m 796 -7 q 731 14 760 -7 q 700 73 703 34 q 594 20 648 38 q 488 0 540 1 q 298 37 380 -4 q 163 149 217 79 q 84 310 110 220 q 61 494 58 400 q 94 673 65 586 q 179 829 123 761 q 316 939 235 898 q 505 977 397 979 q 606 962 555 975 q 705 921 658 949 q 743 969 716 954 q 800 985 769 985 q 868 961 837 985 q 902 890 899 937 l 902 80 q 892 42 902 58 q 868 15 883 26 q 834 -1 853 4 q 796 -7 815 -7 m 269 479 q 281 376 269 426 q 321 286 294 326 q 388 223 347 247 q 484 199 429 199 q 541 212 510 199 q 602 246 572 224 q 658 300 632 269 q 700 372 684 332 l 700 631 q 612 738 665 704 q 503 774 559 772 q 403 752 446 777 q 330 685 359 727 q 284 589 300 643 q 269 479 269 534 m 396 1156 q 362 1105 387 1122 q 309 1089 338 1089 q 270 1098 289 1089 q 236 1122 251 1107 q 214 1157 221 1137 q 210 1200 206 1177 q 239 1276 220 1242 q 284 1333 258 1310 q 342 1367 311 1355 q 408 1377 373 1378 q 462 1367 438 1375 q 505 1345 486 1358 q 541 1319 525 1333 q 570 1291 556 1305 q 587 1272 578 1282 q 598 1263 595 1263 q 598 1295 594 1270 q 630 1354 605 1335 q 689 1374 655 1374 q 730 1367 709 1374 q 765 1343 750 1359 q 787 1305 780 1328 q 788 1255 793 1283 q 767 1190 780 1219 q 733 1136 754 1160 q 682 1098 712 1112 q 610 1082 651 1084 l 612 1082 q 550 1088 576 1081 q 503 1108 524 1096 q 467 1137 483 1120 q 438 1168 452 1153 q 419 1187 427 1179 q 404 1194 411 1196 q 397 1157 407 1194 l 396 1156 z "},"æ":{"ha":1507,"x_min":75,"x_max":1430,"o":"m 815 457 q 831 360 817 407 q 873 277 846 313 q 941 220 901 241 q 1038 198 982 198 q 1095 208 1066 198 q 1149 237 1124 217 q 1195 290 1175 258 q 1227 368 1215 323 q 1263 435 1234 412 q 1328 457 1293 457 q 1398 429 1367 457 q 1430 345 1430 401 q 1371 191 1411 256 q 1280 83 1332 126 q 1166 20 1227 41 q 1040 -1 1104 -1 q 884 21 958 -4 q 760 91 811 46 q 635 12 701 39 q 505 -16 568 -15 q 315 22 396 -19 q 180 134 233 64 q 100 294 126 203 q 77 477 75 384 q 111 658 81 570 q 195 814 140 746 q 332 924 251 883 q 521 962 414 964 q 650 939 585 959 q 770 872 716 918 q 892 945 823 918 q 1043 971 960 971 q 1197 937 1131 971 q 1308 847 1263 902 q 1379 724 1354 792 q 1413 589 1405 655 q 1413 536 1417 560 q 1390 494 1408 511 q 1341 467 1373 476 q 1260 457 1310 457 l 815 457 m 502 184 q 573 203 534 184 q 647 255 612 222 q 618 353 628 302 q 608 458 609 404 q 551 495 568 467 q 533 557 533 524 q 557 625 533 594 q 628 659 581 656 l 636 659 q 644 682 639 671 q 652 704 648 693 q 587 743 621 731 q 519 758 553 755 q 419 736 463 761 q 346 670 376 712 q 300 574 316 628 q 285 463 285 519 q 298 359 285 410 q 338 271 311 309 q 406 208 365 232 q 502 184 446 184 m 1046 769 q 935 740 981 769 q 861 659 890 711 l 1191 659 q 1135 738 1172 707 q 1046 769 1099 769 z "},"ǽ":{"ha":1572,"x_min":75,"x_max":1430,"o":"m 815 457 q 831 360 817 407 q 873 277 846 313 q 941 220 901 241 q 1038 198 982 198 q 1095 208 1066 198 q 1149 237 1124 217 q 1195 290 1175 258 q 1227 368 1215 323 q 1263 435 1234 412 q 1328 457 1293 457 q 1398 429 1367 457 q 1430 345 1430 401 q 1371 191 1411 256 q 1280 83 1332 126 q 1166 20 1227 41 q 1040 -1 1104 -1 q 884 21 958 -4 q 760 91 811 46 q 635 12 701 39 q 505 -16 568 -15 q 315 22 396 -19 q 180 134 233 64 q 100 294 126 203 q 77 477 75 384 q 111 658 81 570 q 195 814 140 746 q 332 924 251 883 q 521 962 414 964 q 650 939 585 959 q 770 872 716 918 q 892 945 823 918 q 1043 971 960 971 q 1197 937 1131 971 q 1308 847 1263 902 q 1379 724 1354 792 q 1413 589 1405 655 q 1413 536 1417 560 q 1390 494 1408 511 q 1341 467 1373 476 q 1260 457 1310 457 l 815 457 m 502 184 q 573 203 534 184 q 647 255 612 222 q 618 353 628 302 q 608 458 609 404 q 551 495 568 467 q 533 557 533 524 q 557 625 533 594 q 628 659 581 656 l 636 659 q 644 682 639 671 q 652 704 648 693 q 587 743 621 731 q 519 758 553 755 q 419 736 463 761 q 346 670 376 712 q 300 574 316 628 q 285 463 285 519 q 298 359 285 410 q 338 271 311 309 q 406 208 365 232 q 502 184 446 184 m 1046 769 q 935 740 981 769 q 861 659 890 711 l 1191 659 q 1135 738 1172 707 q 1046 769 1099 769 m 886 1107 q 850 1071 871 1081 q 808 1061 830 1061 q 762 1075 785 1061 q 724 1111 739 1089 q 706 1159 709 1133 q 719 1208 703 1185 q 750 1259 734 1233 q 781 1309 766 1284 q 818 1343 798 1332 q 860 1354 838 1354 q 905 1341 883 1354 q 941 1310 926 1329 q 960 1265 955 1290 q 952 1213 964 1240 l 886 1107 z "},"ć":{"ha":926,"x_min":60,"x_max":876,"o":"m 834 652 q 803 572 834 598 q 732 545 772 545 q 670 566 700 545 q 632 632 640 587 q 589 732 620 693 q 503 773 557 770 q 401 750 445 776 q 328 681 358 724 q 284 582 298 637 q 270 469 270 526 q 283 368 270 416 q 323 281 297 319 q 391 221 350 244 q 486 198 431 198 q 543 208 514 198 q 597 237 572 217 q 642 290 623 258 q 674 368 662 323 q 711 435 681 412 q 776 457 741 457 q 846 429 815 457 q 876 345 876 401 q 819 191 857 256 q 728 84 780 126 q 614 21 675 42 q 488 -1 552 0 q 302 35 382 -4 q 168 142 221 75 q 87 296 114 209 q 61 476 60 384 q 92 659 62 570 q 177 819 121 749 q 316 932 233 890 q 505 975 399 975 q 623 947 567 971 q 724 880 680 922 q 797 782 768 838 q 834 659 826 726 l 834 652 m 567 1134 q 532 1098 552 1108 q 490 1088 511 1088 q 444 1102 467 1088 q 406 1138 420 1116 q 387 1186 391 1160 q 400 1236 384 1213 q 431 1286 415 1260 q 463 1336 448 1312 q 499 1370 479 1359 q 541 1381 519 1381 q 586 1369 564 1381 q 622 1337 608 1356 q 641 1292 636 1317 q 633 1240 646 1267 l 567 1134 z "},"č":{"ha":926,"x_min":60,"x_max":876,"o":"m 834 652 q 803 572 834 598 q 732 545 772 545 q 670 566 700 545 q 632 632 640 587 q 589 732 620 693 q 503 773 557 770 q 401 750 445 776 q 328 681 358 724 q 284 582 298 637 q 270 469 270 526 q 283 368 270 416 q 323 281 297 319 q 391 221 350 244 q 486 198 431 198 q 543 208 514 198 q 597 237 572 217 q 642 290 623 258 q 674 368 662 323 q 711 435 681 412 q 776 457 741 457 q 846 429 815 457 q 876 345 876 401 q 819 191 857 256 q 728 84 780 126 q 614 21 675 42 q 488 -1 552 0 q 302 35 382 -4 q 168 142 221 75 q 87 296 114 209 q 61 476 60 384 q 92 659 62 570 q 177 819 121 749 q 316 932 233 890 q 505 975 399 975 q 623 947 567 971 q 724 880 680 922 q 797 782 768 838 q 834 659 826 726 l 834 652 m 620 1375 q 659 1399 637 1396 q 699 1394 680 1402 q 735 1367 719 1385 q 761 1331 751 1350 q 770 1293 770 1312 q 755 1263 769 1274 l 601 1119 q 500 1074 551 1074 q 448 1086 472 1074 q 399 1119 423 1097 l 279 1229 q 258 1294 250 1260 q 290 1352 266 1328 q 343 1385 313 1377 q 387 1375 373 1394 q 446 1321 412 1352 q 505 1267 479 1290 l 620 1375 z "}}}
